<?xml version="1.0" encoding="utf-8"?>
<!-- Generator: Adobe Illustrator 18.0.0, SVG Export Plug-In . SVG Version: 6.00 Build 0)  -->
<!DOCTYPE svg PUBLIC "-//W3C//DTD SVG 1.1//EN" "http://www.w3.org/Graphics/SVG/1.1/DTD/svg11.dtd">
<svg version="1.1" id="Layer_1" xmlns="http://www.w3.org/2000/svg" xmlns:xlink="http://www.w3.org/1999/xlink" x="0px" y="0px"
	 viewBox="0 0 333.2 62.4" enable-background="new 0 0 333.2 62.4" xml:space="preserve">
<g>
	<g>
		<g>
			<g>
				<g>
					<path opacity="0.58" fill="#FFFFFF" d="M232.9,18.8h2.3l2.5,2.5l-2.5,2.5h-2.3l2.5-2.5L232.9,18.8z M230.5,21.3l-2.5,2.5h2.3
						l2.5-2.5l-2.5-2.5H228L230.5,21.3z M225.6,21.3l-2.5,2.5h2.3l2.5-2.5l-2.5-2.5h-2.3L225.6,21.3z M220.7,21.3l-2.5,2.5h2.3
						l2.5-2.5l-2.5-2.5h-2.3L220.7,21.3z M215.8,21.3l-2.5,2.5h2.3l2.5-2.5l-2.5-2.5h-2.3L215.8,21.3z M210.9,21.3l-2.5,2.5h2.3
						l2.5-2.5l-2.5-2.5h-2.3L210.9,21.3z M206,21.3l-2.5,2.5h2.3l2.5-2.5l-2.5-2.5h-2.3L206,21.3z M201.1,21.3l-2.5,2.5h2.3l2.5-2.5
						l-2.5-2.5h-2.3L201.1,21.3z M196.2,21.3l-2.5,2.5h2.3l2.5-2.5l-2.5-2.5h-2.3L196.2,21.3z M191.3,21.3l-2.5,2.5h2.3l2.5-2.5
						l-2.5-2.5h-2.3L191.3,21.3z"/>
					<path fill="#29ABE2" d="M326.7,39.1l-7,7h6.4l7-7l-7-7h-6.4L326.7,39.1z M313,39.1l-7,7l6.4,0l7-7l-7-7H306L313,39.1z
						 M299.2,39.1l-7,7h6.4l7-7l-7-7h-6.4L299.2,39.1z M285.4,39.1l-7,7h6.4l7-7l-7-7h-6.4L285.4,39.1z M271.7,39.1l-7,7h6.4l7-7
						l-7-7l-6.4,0L271.7,39.1z M257.9,39.1l-7,7h6.4l7-7l-7-7h-6.4L257.9,39.1z M244.1,39.1l-7,7h6.4l7-7l-7-7h-6.4L244.1,39.1z
						 M230.4,39.1l-7,7h6.4l7-7l-7-7h-6.4L230.4,39.1z M216.6,39.1l-7,7h6.4l7-7l-7-7h-6.4L216.6,39.1z"/>
				</g>
			</g>
			<g>
				<g>
					<g>
						<g opacity="0.2">
							<path d="M46.7,6c-3.5,0-5.3,1.8-5.3,5.3v1h3.9c0.6,0,1,0.2,1.4,0.6c0.4,0.4,0.6,0.9,0.6,1.4c0,0.6-0.2,1-0.6,1.4
								c-0.4,0.4-0.9,0.6-1.4,0.6h-3.9v14.4c0,0.3-0.1,0.5-0.2,0.8c-0.1,0.2-0.2,0.5-0.4,0.6c-0.2,0.2-0.4,0.3-0.6,0.4
								c-0.2,0.1-0.5,0.2-0.8,0.2c-0.3,0-0.5-0.1-0.8-0.2c-0.2-0.1-0.5-0.2-0.6-0.4c-0.2-0.2-0.3-0.4-0.4-0.6
								c-0.1-0.2-0.2-0.5-0.2-0.8V16.3h-0.9c-0.6,0-1.1-0.2-1.4-0.6c-0.4-0.4-0.6-0.9-0.6-1.4c0-0.6,0.2-1.1,0.6-1.4
								c0.4-0.4,0.9-0.6,1.4-0.6h0.9v-1c0-6.2,3.1-9.3,9.3-9.3c0.6,0,1,0.2,1.4,0.6C48.5,3,48.7,3.4,48.7,4c0,0.6-0.2,1-0.6,1.4
								C47.7,5.8,47.2,6,46.7,6z"/>
							<path d="M71.6,22c0,3-1.1,5.5-3.1,7.6c-2.1,2.1-4.7,3.1-7.6,3.1c-3,0-5.5-1-7.6-3.1c-2.1-2.1-3.1-4.6-3.1-7.6
								c0-3,1-5.5,3.1-7.6c2.1-2.1,4.6-3.1,7.6-3.1c2.9,0,5.5,1.1,7.6,3.1c1,1,1.8,2.2,2.4,3.5C71.4,19.1,71.6,20.5,71.6,22z
								 M60.9,15.2c-0.9,0-1.8,0.2-2.7,0.5c-0.8,0.4-1.5,0.8-2.1,1.5c-0.6,0.6-1.1,1.3-1.4,2.1c-0.4,0.8-0.5,1.7-0.5,2.6
								s0.2,1.8,0.5,2.6c0.4,0.8,0.8,1.5,1.4,2.1c0.6,0.6,1.3,1.1,2.1,1.5c0.8,0.4,1.7,0.5,2.7,0.5c0.9,0,1.8-0.2,2.6-0.5
								c0.8-0.4,1.5-0.8,2.1-1.5c0.6-0.6,1.1-1.3,1.4-2.1c0.4-0.8,0.5-1.7,0.5-2.6s-0.2-1.8-0.5-2.6c-0.4-0.8-0.8-1.5-1.4-2.1
								c-0.6-0.6-1.3-1.1-2.1-1.5C62.7,15.4,61.8,15.2,60.9,15.2z"/>
							<path d="M78.7,13.2v0.4c1-0.8,2-1.4,3.1-1.8c1.1-0.4,2.3-0.6,3.6-0.6c0.6,0,1.2,0,1.8,0.1c0.6,0.1,1.2,0.2,1.8,0.4
								c0.5,0.2,1,0.5,1.4,0.8c0.4,0.3,0.5,0.8,0.5,1.3c0,0.3-0.1,0.5-0.2,0.8c-0.1,0.2-0.3,0.5-0.4,0.6c-0.2,0.2-0.4,0.3-0.6,0.4
								c-0.2,0.1-0.5,0.2-0.8,0.2c-0.2,0-0.5-0.1-0.8-0.2c-0.8-0.3-1.7-0.5-2.6-0.5c-0.9,0-1.8,0.2-2.6,0.5
								c-0.8,0.4-1.5,0.8-2.1,1.4c-0.6,0.6-1.1,1.3-1.4,2.1c-0.4,0.8-0.5,1.7-0.5,2.6v8.8c0,0.6-0.2,1-0.6,1.4
								c-0.4,0.4-0.9,0.6-1.4,0.6c-0.6,0-1-0.2-1.4-0.6c-0.4-0.4-0.6-0.9-0.6-1.4V13.2c0-0.6,0.2-1,0.6-1.4c0.4-0.4,0.9-0.6,1.4-0.6
								c0.6,0,1,0.2,1.4,0.6C78.5,12.2,78.7,12.6,78.7,13.2z"/>
							<path d="M97.1,22.5c-1.2-0.5-2-0.9-2.5-1.4h0c-1-1-1.5-2.1-1.5-3.5c0-1,0.3-1.9,0.8-2.6c0.5-0.8,1.2-1.5,2-2
								c0.8-0.6,1.8-1,2.8-1.3c1-0.3,2.1-0.5,3.1-0.5c3.2,0,5.9,1.3,8.2,3.9c0.3,0.3,0.4,0.7,0.4,1.2c0,0.6-0.2,1.1-0.6,1.4
								c-0.4,0.4-0.9,0.6-1.4,0.6c-0.4,0-0.8-0.1-1-0.3c-0.3-0.2-0.6-0.5-0.8-0.7c-1.3-1.3-2.9-2-4.8-2c-1.8,0-3.3,0.6-4.4,1.7
								c-0.2,0.2-0.3,0.5-0.3,0.8c0,0.4,0.2,0.6,0.5,0.7l9,3c1.3,0.5,2.1,1,2.5,1.4h0c1,1,1.5,2.1,1.5,3.5c0,1-0.3,1.9-0.8,2.7
								c-0.5,0.8-1.2,1.5-2,2c-0.8,0.6-1.8,1-2.8,1.3c-1,0.3-2.1,0.4-3.1,0.4c-3.2,0-6-1.3-8.2-3.8c-0.3-0.4-0.4-0.8-0.4-1.2
								c0-0.6,0.2-1.1,0.6-1.4c0.4-0.4,0.9-0.6,1.4-0.6c0.4,0,0.8,0.1,1.1,0.4c0.3,0.2,0.6,0.5,0.8,0.7c1.3,1.3,2.9,2,4.8,2
								c1.8,0,3.3-0.6,4.4-1.7c0.2-0.2,0.3-0.5,0.3-0.8c0-0.4-0.2-0.6-0.5-0.7L97.1,22.5z"/>
							<path d="M131,30.7v-0.4c-1,0.8-2,1.4-3.1,1.8c-1.1,0.4-2.3,0.6-3.6,0.6c-3,0-5.5-1-7.6-3.1c-2.1-2.1-3.1-4.6-3.1-7.6
								c0-3,1-5.5,3.1-7.6c2.1-2.1,4.6-3.1,7.6-3.1c2.9,0,5.5,1.1,7.6,3.1C134,16.4,135,19,135,22v8.8c0,0.6-0.2,1-0.6,1.4
								c-0.4,0.4-0.9,0.6-1.4,0.6c-0.6,0-1-0.2-1.4-0.6C131.2,31.7,131,31.3,131,30.7z M124.3,15.2c-0.9,0-1.8,0.2-2.7,0.5
								c-0.8,0.4-1.5,0.8-2.1,1.5c-0.6,0.6-1.1,1.3-1.4,2.1c-0.4,0.8-0.5,1.7-0.5,2.6s0.2,1.8,0.5,2.6c0.4,0.8,0.8,1.5,1.4,2.1
								c0.6,0.6,1.3,1.1,2.1,1.5c0.8,0.4,1.7,0.5,2.7,0.5c0.9,0,1.8-0.2,2.6-0.5c0.8-0.4,1.5-0.8,2.1-1.5c0.6-0.6,1.1-1.3,1.4-2.1
								c0.4-0.8,0.5-1.7,0.5-2.6s-0.2-1.8-0.5-2.6c-0.4-0.8-0.8-1.5-1.4-2.1c-0.6-0.6-1.3-1.1-2.1-1.5
								C126.1,15.4,125.2,15.2,124.3,15.2z"/>
							<path d="M155.6,30.3c-1.9,1.6-4.2,2.4-6.7,2.4c-3,0-5.5-1-7.6-3.1c-2.1-2.1-3.1-4.6-3.1-7.6c0-3,1-5.5,3.1-7.6
								c2.1-2.1,4.6-3.1,7.6-3.1c2.9,0,5.5,1.1,7.6,3.1c2.1,2.1,3.1,4.6,3.1,7.6v10.7c0,0.9-0.1,1.8-0.4,2.6
								c-0.3,0.8-0.7,1.6-1.2,2.3c-0.5,0.7-1.1,1.3-1.8,1.9c-0.7,0.6-1.4,1-2.2,1.4c-0.8,0.4-1.6,0.7-2.5,0.9
								c-0.9,0.2-1.7,0.3-2.6,0.3c-1,0-2-0.1-3-0.4c-1-0.3-1.9-0.7-2.8-1.2c-0.9-0.5-1.7-1.1-2.4-1.9c-0.7-0.8-1.4-1.6-1.9-2.5
								c-0.2-0.3-0.3-0.7-0.3-1.1c0-0.6,0.2-1.1,0.6-1.4c0.4-0.4,0.9-0.6,1.4-0.6c0.4,0,0.7,0.1,1,0.3c0.2,0.2,0.6,0.6,1,1.2
								c0.4,0.6,0.8,1.1,1.2,1.4c1.5,1.5,3.2,2.2,5.3,2.2c2.1,0,3.8-0.7,5.3-2.2c0.9-1.1,1.3-2.1,1.3-3.1V30.3z M148.9,15.2
								c-0.9,0-1.8,0.2-2.7,0.5c-0.8,0.4-1.5,0.8-2.1,1.5c-0.6,0.6-1.1,1.3-1.4,2.1c-0.4,0.8-0.5,1.7-0.5,2.6s0.2,1.8,0.5,2.6
								c0.4,0.8,0.8,1.5,1.4,2.1c0.6,0.6,1.3,1.1,2.1,1.5c0.8,0.4,1.7,0.5,2.7,0.5c0.9,0,1.8-0.2,2.6-0.5c0.8-0.4,1.5-0.8,2.1-1.5
								c0.6-0.6,1.1-1.3,1.4-2.1c0.4-0.8,0.5-1.7,0.5-2.6s-0.2-1.8-0.5-2.6c-0.4-0.8-0.8-1.5-1.4-2.1c-0.6-0.6-1.3-1.1-2.1-1.5
								C150.7,15.4,149.8,15.2,148.9,15.2z"/>
							<path d="M179,26.7c0.6,0,1.1,0.2,1.4,0.6c0.4,0.4,0.6,0.9,0.6,1.4c0,0.6-0.2,1-0.6,1.4c-2,1.7-4.3,2.6-7,2.6
								c-3,0-5.5-1-7.6-3.1c-2.1-2.1-3.1-4.6-3.1-7.6c0-3,1-5.5,3.1-7.6c2.1-2.1,4.6-3.1,7.6-3.1c2.9,0,5.5,1.1,7.6,3.1
								c1,1,1.8,2.2,2.4,3.5c0.5,1.3,0.8,2.7,0.8,4.1c0,0.6-0.2,1.1-0.6,1.4c-0.4,0.4-0.9,0.6-1.4,0.6H167c0.2,0.7,0.5,1.3,1,1.9
								c0.4,0.6,0.9,1.1,1.5,1.5c0.6,0.4,1.2,0.7,1.9,1c0.7,0.2,1.4,0.3,2.1,0.3c0.8,0,1.6-0.1,2.3-0.4c0.7-0.3,1.4-0.6,2-1.2
								C178.1,26.8,178.5,26.7,179,26.7z M179.9,20c-0.2-0.7-0.5-1.3-1-1.9c-0.4-0.6-0.9-1.1-1.5-1.5c-0.6-0.4-1.2-0.7-1.9-1
								c-0.7-0.2-1.4-0.3-2.1-0.3c-0.7,0-1.4,0.1-2.1,0.3c-0.7,0.2-1.3,0.6-1.9,1c-0.6,0.4-1.1,0.9-1.5,1.5
								c-0.4,0.6-0.7,1.2-0.9,1.9H179.9z"/>
						</g>
						<g>
							<g>
								<path fill="#FFFFFF" d="M44.7,4c-3.5,0-5.3,1.8-5.3,5.3v1h3.9c0.6,0,1,0.2,1.4,0.6c0.4,0.4,0.6,0.9,0.6,1.4
									c0,0.6-0.2,1-0.6,1.4c-0.4,0.4-0.9,0.6-1.4,0.6h-3.9v14.4c0,0.3-0.1,0.5-0.2,0.8c-0.1,0.2-0.2,0.5-0.4,0.6
									c-0.2,0.2-0.4,0.3-0.6,0.4c-0.2,0.1-0.5,0.2-0.8,0.2c-0.3,0-0.5-0.1-0.8-0.2c-0.2-0.1-0.5-0.2-0.6-0.4
									c-0.2-0.2-0.3-0.4-0.4-0.6c-0.1-0.2-0.2-0.5-0.2-0.8V14.3h-0.9c-0.6,0-1.1-0.2-1.4-0.6c-0.4-0.4-0.6-0.9-0.6-1.4
									c0-0.6,0.2-1.1,0.6-1.4c0.4-0.4,0.9-0.6,1.4-0.6h0.9v-1c0-6.2,3.1-9.3,9.3-9.3c0.6,0,1,0.2,1.4,0.6C46.5,1,46.7,1.4,46.7,2
									c0,0.6-0.2,1-0.6,1.4C45.7,3.8,45.2,4,44.7,4z"/>
								<path fill="#FFFFFF" d="M69.6,20c0,3-1.1,5.5-3.1,7.6c-2.1,2.1-4.7,3.1-7.6,3.1c-3,0-5.5-1-7.6-3.1
									c-2.1-2.1-3.1-4.6-3.1-7.6c0-3,1-5.5,3.1-7.6c2.1-2.1,4.6-3.1,7.6-3.1c2.9,0,5.5,1.1,7.6,3.1c1,1,1.8,2.2,2.4,3.5
									C69.4,17.1,69.6,18.5,69.6,20z M58.9,13.2c-0.9,0-1.8,0.2-2.7,0.5c-0.8,0.4-1.5,0.8-2.1,1.5c-0.6,0.6-1.1,1.3-1.4,2.1
									c-0.4,0.8-0.5,1.7-0.5,2.6s0.2,1.8,0.5,2.6c0.4,0.8,0.8,1.5,1.4,2.1c0.6,0.6,1.3,1.1,2.1,1.5c0.8,0.4,1.7,0.5,2.7,0.5
									c0.9,0,1.8-0.2,2.6-0.5c0.8-0.4,1.5-0.8,2.1-1.5c0.6-0.6,1.1-1.3,1.4-2.1c0.4-0.8,0.5-1.7,0.5-2.6s-0.2-1.8-0.5-2.6
									c-0.4-0.8-0.8-1.5-1.4-2.1c-0.6-0.6-1.3-1.1-2.1-1.5C60.7,13.4,59.8,13.2,58.9,13.2z"/>
								<path fill="#FFFFFF" d="M76.7,11.2v0.4c1-0.8,2-1.4,3.1-1.8c1.1-0.4,2.3-0.6,3.6-0.6c0.6,0,1.2,0,1.8,0.1
									c0.6,0.1,1.2,0.2,1.8,0.4c0.5,0.2,1,0.5,1.4,0.8c0.4,0.3,0.5,0.8,0.5,1.3c0,0.3-0.1,0.5-0.2,0.8c-0.1,0.2-0.3,0.5-0.4,0.6
									c-0.2,0.2-0.4,0.3-0.6,0.4c-0.2,0.1-0.5,0.2-0.8,0.2c-0.2,0-0.5-0.1-0.8-0.2c-0.8-0.3-1.7-0.5-2.6-0.5
									c-0.9,0-1.8,0.2-2.6,0.5c-0.8,0.4-1.5,0.8-2.1,1.4c-0.6,0.6-1.1,1.3-1.4,2.1c-0.4,0.8-0.5,1.7-0.5,2.6v8.8
									c0,0.6-0.2,1-0.6,1.4c-0.4,0.4-0.9,0.6-1.4,0.6c-0.6,0-1-0.2-1.4-0.6c-0.4-0.4-0.6-0.9-0.6-1.4V11.2c0-0.6,0.2-1,0.6-1.4
									c0.4-0.4,0.9-0.6,1.4-0.6c0.6,0,1,0.2,1.4,0.6C76.5,10.2,76.7,10.6,76.7,11.2z"/>
								<path fill="#FFFFFF" d="M95.1,20.5c-1.2-0.5-2-0.9-2.5-1.4h0c-1-1-1.5-2.1-1.5-3.5c0-1,0.3-1.9,0.8-2.6c0.5-0.8,1.2-1.5,2-2
									c0.8-0.6,1.8-1,2.8-1.3c1-0.3,2.1-0.5,3.1-0.5c3.2,0,5.9,1.3,8.2,3.9c0.3,0.3,0.4,0.7,0.4,1.2c0,0.6-0.2,1.1-0.6,1.4
									c-0.4,0.4-0.9,0.6-1.4,0.6c-0.4,0-0.8-0.1-1-0.3c-0.3-0.2-0.6-0.5-0.8-0.7c-1.3-1.3-2.9-2-4.8-2c-1.8,0-3.3,0.6-4.4,1.7
									c-0.2,0.2-0.3,0.5-0.3,0.8c0,0.4,0.2,0.6,0.5,0.7l9,3c1.3,0.5,2.1,1,2.5,1.4h0c1,1,1.5,2.1,1.5,3.5c0,1-0.3,1.9-0.8,2.7
									c-0.5,0.8-1.2,1.5-2,2c-0.8,0.6-1.8,1-2.8,1.3c-1,0.3-2.1,0.4-3.1,0.4c-3.2,0-6-1.3-8.2-3.8c-0.3-0.4-0.4-0.8-0.4-1.2
									c0-0.6,0.2-1.1,0.6-1.4c0.4-0.4,0.9-0.6,1.4-0.6c0.4,0,0.8,0.1,1.1,0.4c0.3,0.2,0.6,0.5,0.8,0.7c1.3,1.3,2.9,2,4.8,2
									c1.8,0,3.3-0.6,4.4-1.7c0.2-0.2,0.3-0.5,0.3-0.8c0-0.4-0.2-0.6-0.5-0.7L95.1,20.5z"/>
								<path fill="#FFFFFF" d="M129,28.7v-0.4c-1,0.8-2,1.4-3.1,1.8c-1.1,0.4-2.3,0.6-3.6,0.6c-3,0-5.5-1-7.6-3.1
									c-2.1-2.1-3.1-4.6-3.1-7.6c0-3,1-5.5,3.1-7.6c2.1-2.1,4.6-3.1,7.6-3.1c2.9,0,5.5,1.1,7.6,3.1C132,14.4,133,17,133,20v8.8
									c0,0.6-0.2,1-0.6,1.4c-0.4,0.4-0.9,0.6-1.4,0.6c-0.6,0-1-0.2-1.4-0.6C129.2,29.7,129,29.3,129,28.7z M122.3,13.2
									c-0.9,0-1.8,0.2-2.7,0.5c-0.8,0.4-1.5,0.8-2.1,1.5c-0.6,0.6-1.1,1.3-1.4,2.1c-0.4,0.8-0.5,1.7-0.5,2.6s0.2,1.8,0.5,2.6
									c0.4,0.8,0.8,1.5,1.4,2.1c0.6,0.6,1.3,1.1,2.1,1.5c0.8,0.4,1.7,0.5,2.7,0.5c0.9,0,1.8-0.2,2.6-0.5c0.8-0.4,1.5-0.8,2.1-1.5
									c0.6-0.6,1.1-1.3,1.4-2.1c0.4-0.8,0.5-1.7,0.5-2.6s-0.2-1.8-0.5-2.6c-0.4-0.8-0.8-1.5-1.4-2.1c-0.6-0.6-1.3-1.1-2.1-1.5
									C124.1,13.4,123.2,13.2,122.3,13.2z"/>
								<path fill="#FFFFFF" d="M153.6,28.3c-1.9,1.6-4.2,2.4-6.7,2.4c-3,0-5.5-1-7.6-3.1c-2.1-2.1-3.1-4.6-3.1-7.6
									c0-3,1-5.5,3.1-7.6c2.1-2.1,4.6-3.1,7.6-3.1c2.9,0,5.5,1.1,7.6,3.1c2.1,2.1,3.1,4.6,3.1,7.6v10.7c0,0.9-0.1,1.8-0.4,2.6
									c-0.3,0.8-0.7,1.6-1.2,2.3c-0.5,0.7-1.1,1.3-1.8,1.9c-0.7,0.6-1.4,1-2.2,1.4c-0.8,0.4-1.6,0.7-2.5,0.9
									c-0.9,0.2-1.7,0.3-2.6,0.3c-1,0-2-0.1-3-0.4c-1-0.3-1.9-0.7-2.8-1.2c-0.9-0.5-1.7-1.1-2.4-1.9c-0.7-0.8-1.4-1.6-1.9-2.5
									c-0.2-0.3-0.3-0.7-0.3-1.1c0-0.6,0.2-1.1,0.6-1.4c0.4-0.4,0.9-0.6,1.4-0.6c0.4,0,0.7,0.1,1,0.3c0.2,0.2,0.6,0.6,1,1.2
									c0.4,0.6,0.8,1.1,1.2,1.4c1.5,1.5,3.2,2.2,5.3,2.2c2.1,0,3.8-0.7,5.3-2.2c0.9-1.1,1.3-2.1,1.3-3.1V28.3z M146.9,13.2
									c-0.9,0-1.8,0.2-2.7,0.5c-0.8,0.4-1.5,0.8-2.1,1.5c-0.6,0.6-1.1,1.3-1.4,2.1c-0.4,0.8-0.5,1.7-0.5,2.6s0.2,1.8,0.5,2.6
									c0.4,0.8,0.8,1.5,1.4,2.1c0.6,0.6,1.3,1.1,2.1,1.5c0.8,0.4,1.7,0.5,2.7,0.5c0.9,0,1.8-0.2,2.6-0.5c0.8-0.4,1.5-0.8,2.1-1.5
									c0.6-0.6,1.1-1.3,1.4-2.1c0.4-0.8,0.5-1.7,0.5-2.6s-0.2-1.8-0.5-2.6c-0.4-0.8-0.8-1.5-1.4-2.1c-0.6-0.6-1.3-1.1-2.1-1.5
									C148.7,13.4,147.8,13.2,146.9,13.2z"/>
								<path fill="#FFFFFF" d="M177,24.7c0.6,0,1.1,0.2,1.4,0.6c0.4,0.4,0.6,0.9,0.6,1.4c0,0.6-0.2,1-0.6,1.4c-2,1.7-4.3,2.6-7,2.6
									c-3,0-5.5-1-7.6-3.1c-2.1-2.1-3.1-4.6-3.1-7.6c0-3,1-5.5,3.1-7.6c2.1-2.1,4.6-3.1,7.6-3.1c2.9,0,5.5,1.1,7.6,3.1
									c1,1,1.8,2.2,2.4,3.5c0.5,1.3,0.8,2.7,0.8,4.1c0,0.6-0.2,1.1-0.6,1.4c-0.4,0.4-0.9,0.6-1.4,0.6H165c0.2,0.7,0.5,1.3,1,1.9
									c0.4,0.6,0.9,1.1,1.5,1.5c0.6,0.4,1.2,0.7,1.9,1c0.7,0.2,1.4,0.3,2.1,0.3c0.8,0,1.6-0.1,2.3-0.4c0.7-0.3,1.4-0.6,2-1.2
									C176.1,24.8,176.5,24.7,177,24.7z M177.9,18c-0.2-0.7-0.5-1.3-1-1.9c-0.4-0.6-0.9-1.1-1.5-1.5c-0.6-0.4-1.2-0.7-1.9-1
									c-0.7-0.2-1.4-0.3-2.1-0.3c-0.7,0-1.4,0.1-2.1,0.3c-0.7,0.2-1.3,0.6-1.9,1c-0.6,0.4-1.1,0.9-1.5,1.5
									c-0.4,0.6-0.7,1.2-0.9,1.9H177.9z"/>
							</g>
						</g>
					</g>
				</g>
			</g>
		</g>
		<g>
			
				<radialGradient id="SVGID_1_" cx="11159.9346" cy="-7915.8291" r="85.5333" gradientTransform="matrix(-0.2574 0 0 2.930000e-002 2983.2476 268.3046)" gradientUnits="userSpaceOnUse">
				<stop  offset="0" style="stop-color:#FF0000"/>
				<stop  offset="0.8486" style="stop-color:#FF0500;stop-opacity:0"/>
			</radialGradient>
			<ellipse fill="url(#SVGID_1_)" cx="110.5" cy="36.4" rx="22" ry="2.5"/>
			
				<radialGradient id="SVGID_2_" cx="5631.1426" cy="-7915.8291" r="85.5326" gradientTransform="matrix(-0.5365 0 0 2.930000e-002 3067.0154 268.3046)" gradientUnits="userSpaceOnUse">
				<stop  offset="0" style="stop-color:#FF0000"/>
				<stop  offset="0.8486" style="stop-color:#FF0500;stop-opacity:0"/>
			</radialGradient>
			<ellipse fill="url(#SVGID_2_)" cx="45.9" cy="36.4" rx="45.9" ry="2.5"/>
			
				<radialGradient id="SVGID_3_" cx="6397.6558" cy="-15124.9463" r="85.6709" gradientTransform="matrix(-0.4817 0 0 1.870000e-002 3123.6531 318.7303)" gradientUnits="userSpaceOnUse">
				<stop  offset="0" style="stop-color:#FF0000"/>
				<stop  offset="0.8486" style="stop-color:#FF0500;stop-opacity:0"/>
			</radialGradient>
			<ellipse fill="url(#SVGID_3_)" cx="42" cy="35.9" rx="41.2" ry="1.6"/>
			
				<radialGradient id="SVGID_4_" cx="7944.8022" cy="-9930.0859" r="85.49" gradientTransform="matrix(-0.3633 0 0 2.470000e-002 2983.449 281.4083)" gradientUnits="userSpaceOnUse">
				<stop  offset="0" style="stop-color:#C40006"/>
				<stop  offset="0.9892" style="stop-color:#FF0500;stop-opacity:0"/>
			</radialGradient>
			<ellipse fill="url(#SVGID_4_)" cx="97.2" cy="36.1" rx="31.1" ry="2.1"/>
		</g>
	</g>
	<g>
		<g opacity="0.26">
			<path d="M168.3,46.7l-6.3-5.8c-0.3-0.3-0.5-0.6-0.5-1c0-0.2,0.1-0.4,0.2-0.6c0.1-0.2,0.2-0.4,0.4-0.5c0.2-0.1,0.4-0.3,0.6-0.3
				c0.2-0.1,0.5-0.1,0.8-0.1c0.6,0,1.1,0.2,1.5,0.5l5.9,5.5l5.9-5.5c0.4-0.3,0.9-0.5,1.5-0.5c0.3,0,0.6,0,0.8,0.1s0.5,0.2,0.6,0.3
				s0.3,0.3,0.4,0.5c0.1,0.2,0.2,0.4,0.2,0.6c0,0.4-0.2,0.7-0.5,1l-6.3,5.8l6.4,5.9c0.3,0.3,0.4,0.6,0.4,1c0,0.2-0.1,0.4-0.2,0.6
				c-0.1,0.2-0.3,0.4-0.4,0.5c-0.2,0.1-0.4,0.3-0.6,0.3s-0.5,0.1-0.8,0.1c-0.6,0-1-0.2-1.5-0.5l-5.9-5.5l-6,5.5
				c-0.4,0.3-0.9,0.5-1.4,0.5c-0.3,0-0.6,0-0.8-0.1c-0.2-0.1-0.5-0.2-0.6-0.3c-0.2-0.1-0.3-0.3-0.4-0.5c-0.1-0.2-0.2-0.4-0.2-0.6
				c0-0.4,0.1-0.7,0.4-1L168.3,46.7z"/>
			<path d="M184.8,37.2c0-0.9,0.2-1.7,0.6-2.5s1-1.4,1.7-2c0.7-0.6,1.6-1,2.5-1.3s2-0.5,3.1-0.5c1.1,0,2.1,0.2,3.1,0.5
				s1.8,0.8,2.5,1.4c0.7,0.6,1.3,1.2,1.7,2c0.4,0.8,0.6,1.6,0.6,2.4c0,1.7-0.8,3.2-2.4,4.5c2.6,1.6,3.9,3.6,3.9,6c0,1-0.2,2-0.7,2.9
				s-1.2,1.7-2,2.4c-0.9,0.7-1.9,1.2-3,1.6c-1.1,0.4-2.4,0.6-3.7,0.6s-2.5-0.2-3.7-0.6c-1.1-0.4-2.1-0.9-3-1.6
				c-0.9-0.7-1.5-1.5-2-2.4s-0.7-1.9-0.7-2.9c0-0.5,0.2-0.8,0.6-1.2c0.4-0.3,0.9-0.5,1.5-0.5c0.6,0,1.1,0.2,1.5,0.5s0.6,0.7,0.6,1.2
				c0,0.6,0.1,1.2,0.4,1.7s0.7,1,1.1,1.3c0.5,0.4,1,0.7,1.7,0.9c0.6,0.2,1.4,0.3,2.1,0.3c0.7,0,1.4-0.1,2.1-0.3
				c0.7-0.2,1.2-0.5,1.7-0.9c0.5-0.4,0.9-0.8,1.1-1.3c0.3-0.5,0.4-1.1,0.4-1.6s-0.1-1.1-0.4-1.6c-0.3-0.5-0.7-1-1.1-1.3
				c-0.5-0.4-1-0.7-1.7-0.9c-0.7-0.2-1.4-0.3-2.1-0.3c-0.6,0-1.1-0.2-1.5-0.5c-0.4-0.3-0.6-0.7-0.6-1.1c0-0.5,0.2-0.8,0.6-1.2
				c0.4-0.3,0.9-0.5,1.5-0.5c0.5,0,1-0.1,1.5-0.2c0.5-0.2,0.9-0.4,1.2-0.7s0.6-0.6,0.8-1c0.2-0.4,0.3-0.8,0.3-1.2
				c0-0.4-0.1-0.8-0.3-1.2c-0.2-0.4-0.5-0.7-0.8-1c-0.4-0.3-0.8-0.5-1.2-0.7c-0.5-0.2-1-0.2-1.5-0.2c-0.5,0-1,0.1-1.5,0.2
				c-0.5,0.2-0.9,0.4-1.2,0.7c-0.4,0.3-0.6,0.6-0.8,1c-0.2,0.4-0.3,0.8-0.3,1.2c0,0.4-0.2,0.8-0.6,1.1c-0.4,0.3-0.9,0.5-1.5,0.5
				c-0.6,0-1-0.2-1.4-0.5S184.8,37.6,184.8,37.2z"/>
		</g>
		<g>
			<g>
				<path fill="#FF6CC5" d="M167.3,45.7l-6.3-5.8c-0.3-0.3-0.5-0.6-0.5-1c0-0.2,0.1-0.4,0.2-0.6c0.1-0.2,0.2-0.4,0.4-0.5
					c0.2-0.1,0.4-0.3,0.6-0.3c0.2-0.1,0.5-0.1,0.8-0.1c0.6,0,1.1,0.2,1.5,0.5l5.9,5.5l5.9-5.5c0.4-0.3,0.9-0.5,1.5-0.5
					c0.3,0,0.6,0,0.8,0.1s0.5,0.2,0.6,0.3s0.3,0.3,0.4,0.5c0.1,0.2,0.2,0.4,0.2,0.6c0,0.4-0.2,0.7-0.5,1l-6.3,5.8l6.4,5.9
					c0.3,0.3,0.4,0.6,0.4,1c0,0.2-0.1,0.4-0.2,0.6c-0.1,0.2-0.3,0.4-0.4,0.5c-0.2,0.1-0.4,0.3-0.6,0.3s-0.5,0.1-0.8,0.1
					c-0.6,0-1-0.2-1.5-0.5l-5.9-5.5l-6,5.5c-0.4,0.3-0.9,0.5-1.4,0.5c-0.3,0-0.6,0-0.8-0.1c-0.2-0.1-0.5-0.2-0.6-0.3
					c-0.2-0.1-0.3-0.3-0.4-0.5c-0.1-0.2-0.2-0.4-0.2-0.6c0-0.4,0.1-0.7,0.4-1L167.3,45.7z"/>
				<path fill="#FF6CC5" d="M183.8,36.2c0-0.9,0.2-1.7,0.6-2.5s1-1.4,1.7-2c0.7-0.6,1.6-1,2.5-1.3s2-0.5,3.1-0.5
					c1.1,0,2.1,0.2,3.1,0.5s1.8,0.8,2.5,1.4c0.7,0.6,1.3,1.2,1.7,2c0.4,0.8,0.6,1.6,0.6,2.4c0,1.7-0.8,3.2-2.4,4.5
					c2.6,1.6,3.9,3.6,3.9,6c0,1-0.2,2-0.7,2.9s-1.2,1.7-2,2.4c-0.9,0.7-1.9,1.2-3,1.6c-1.1,0.4-2.4,0.6-3.7,0.6s-2.5-0.2-3.7-0.6
					c-1.1-0.4-2.1-0.9-3-1.6c-0.9-0.7-1.5-1.5-2-2.4s-0.7-1.9-0.7-2.9c0-0.5,0.2-0.8,0.6-1.2c0.4-0.3,0.9-0.5,1.5-0.5
					c0.6,0,1.1,0.2,1.5,0.5s0.6,0.7,0.6,1.2c0,0.6,0.1,1.2,0.4,1.7s0.7,1,1.1,1.3c0.5,0.4,1,0.7,1.7,0.9c0.6,0.2,1.4,0.3,2.1,0.3
					c0.7,0,1.4-0.1,2.1-0.3c0.7-0.2,1.2-0.5,1.7-0.9c0.5-0.4,0.9-0.8,1.1-1.3c0.3-0.5,0.4-1.1,0.4-1.6s-0.1-1.1-0.4-1.6
					c-0.3-0.5-0.7-1-1.1-1.3c-0.5-0.4-1-0.7-1.7-0.9c-0.7-0.2-1.4-0.3-2.1-0.3c-0.6,0-1.1-0.2-1.5-0.5c-0.4-0.3-0.6-0.7-0.6-1.1
					c0-0.5,0.2-0.8,0.6-1.2c0.4-0.3,0.9-0.5,1.5-0.5c0.5,0,1-0.1,1.5-0.2c0.5-0.2,0.9-0.4,1.2-0.7s0.6-0.6,0.8-1
					c0.2-0.4,0.3-0.8,0.3-1.2c0-0.4-0.1-0.8-0.3-1.2c-0.2-0.4-0.5-0.7-0.8-1c-0.4-0.3-0.8-0.5-1.2-0.7c-0.5-0.2-1-0.2-1.5-0.2
					c-0.5,0-1,0.1-1.5,0.2c-0.5,0.2-0.9,0.4-1.2,0.7c-0.4,0.3-0.6,0.6-0.8,1c-0.2,0.4-0.3,0.8-0.3,1.2c0,0.4-0.2,0.8-0.6,1.1
					c-0.4,0.3-0.9,0.5-1.5,0.5c-0.6,0-1-0.2-1.4-0.5S183.8,36.6,183.8,36.2z"/>
			</g>
		</g>
	</g>
</g>
</svg>
