<svg xmlns="http://www.w3.org/2000/svg" xmlns:xlink="http://www.w3.org/1999/xlink" width="21" height="14" viewBox="0 0 21 14">
  <metadata><?xpacket begin="﻿" id="W5M0MpCehiHzreSzNTczkc9d"?>
<x:xmpmeta xmlns:x="adobe:ns:meta/" x:xmptk="Adobe XMP Core 5.6-c138 79.159824, 2016/09/14-01:09:01        ">
   <rdf:RDF xmlns:rdf="http://www.w3.org/1999/02/22-rdf-syntax-ns#">
      <rdf:Description rdf:about=""/>
   </rdf:RDF>
</x:xmpmeta>
                                                                                                    
                                                                                                    
                                                                                                    
                                                                                                    
                                                                                                    
                                                                                                    
                                                                                                    
                                                                                                    
                                                                                                    
                                                                                                    
                                                                                                    
                                                                                                    
                                                                                                    
                                                                                                    
                                                                                                    
                                                                                                    
                                                                                                    
                                                                                                    
                                                                                                    
                                                                                                    
                           
<?xpacket end="w"?></metadata>
<defs>
    <style>
      .cls-1 {
        fill: #ededed;
        fill-rule: evenodd;
        filter: url(#filter);
      }
    </style>
    <filter id="filter" x="1001" y="781" width="21" height="14" filterUnits="userSpaceOnUse">
      <feFlood result="flood" flood-color="#cbcbcb"/>
      <feComposite result="composite" operator="in" in2="SourceGraphic"/>
      <feBlend result="blend" in2="SourceGraphic"/>
    </filter>
  </defs>
  <path class="cls-1" d="M1017.22,790.528a0.734,0.734,0,0,1-.57-0.87,0.678,0.678,0,0,1,.27-0.432,3.229,3.229,0,0,1-1.2-.026,3.225,3.225,0,0,1-.65-0.2,0.736,0.736,0,0,1,.57-1.358,1.655,1.655,0,0,0,.36.111,1.97,1.97,0,0,0,.76,0,1.655,1.655,0,0,0,.36-0.111,2.434,2.434,0,0,0,.32-0.173,2.19,2.19,0,0,0,.28-0.233,1.994,1.994,0,0,0,.23-0.285,2.634,2.634,0,0,0,.18-0.318c0.04-.115.08-0.237,0.11-0.359a2.434,2.434,0,0,0,0-.762c-0.03-.122-0.07-0.244-0.11-0.359a2.675,2.675,0,0,0-.18-0.322,1.962,1.962,0,0,0-.23-0.281,1.9,1.9,0,0,0-.28-0.233,2.081,2.081,0,0,0-.32-0.177,2.156,2.156,0,0,0-.36-0.111,1.9,1.9,0,0,0-.38-0.034,2.166,2.166,0,0,0-.29.019,1.86,1.86,0,0,0-.29.066,0.712,0.712,0,0,1-.63-0.1,3.983,3.983,0,0,1,.07.777,3.739,3.739,0,0,1-1.09,2.659,3.783,3.783,0,0,1-1.65.966,6.053,6.053,0,0,1,1.42.4,6.275,6.275,0,0,1,2.06,1.38,6.361,6.361,0,0,1,1.29,1.857,6.187,6.187,0,0,1,.55,2.182,0.732,0.732,0,1,1-1.46.107,4.925,4.925,0,0,0-3-4.165,4.935,4.935,0,0,0-3.73,0,5.016,5.016,0,0,0-1.58,1.065,4.91,4.91,0,0,0-.98,1.425,4.679,4.679,0,0,0-.43,1.675,0.737,0.737,0,1,1-1.47-.107,6.42,6.42,0,0,1,.56-2.182,6.316,6.316,0,0,1,3.34-3.237,6.192,6.192,0,0,1,1.42-.4,3.773,3.773,0,0,1-2.74-3.625,3.523,3.523,0,0,1,.07-0.732,0.717,0.717,0,0,1-.6.062,1.432,1.432,0,0,0-.3-0.074,1.954,1.954,0,0,0-.3-0.022,1.9,1.9,0,0,0-.38.034,1.8,1.8,0,0,0-.68.288,2.063,2.063,0,0,0-.28.229h0v0a1.533,1.533,0,0,0-.23.281,1.322,1.322,0,0,0-.18.322,1.922,1.922,0,0,0,0,1.48,1.3,1.3,0,0,0,.18.318,1.483,1.483,0,0,0,.23.285h0a1.882,1.882,0,0,0,.28.233,1.932,1.932,0,0,0,.32.173,1.375,1.375,0,0,0,.36.111,1.689,1.689,0,0,0,.38.037,1.75,1.75,0,0,0,.38-0.037,1.427,1.427,0,0,0,.35-0.111,0.738,0.738,0,0,1,.58,1.358,3.49,3.49,0,0,1-1.31.27,3.391,3.391,0,0,1-.54-0.044,0.721,0.721,0,0,1,.27.432,0.742,0.742,0,0,1-.57.87,3.964,3.964,0,0,0-.78.244,3.954,3.954,0,0,0-.37.177v0c-0.1.06-.22,0.13-0.34,0.211s-0.23.163-.32,0.241a3.012,3.012,0,0,0-.29.27,2.612,2.612,0,0,0-.25.27c-0.09.1-.16,0.2-0.23,0.288a3.636,3.636,0,0,0-.19.311c-0.06.1-.11,0.2-0.17,0.325a4.286,4.286,0,0,0-.25.7c-0.03.118-.06,0.244-0.08,0.373s-0.03.244-.04,0.381a0.737,0.737,0,1,1-1.47-.107,4.635,4.635,0,0,1,.06-0.511,4.577,4.577,0,0,1,.11-0.506,4.435,4.435,0,0,1,.15-0.481,5.526,5.526,0,0,1,.42-0.91c0.08-.144.17-0.285,0.26-0.418,0.11-.148.21-0.277,0.3-0.392a4.029,4.029,0,0,1,.33-0.366c0.12-.115.25-0.237,0.4-0.367s0.3-.229.44-0.325,0.29-.189.46-0.281h0v0c0.14-.077.31-0.155,0.49-0.233a5.124,5.124,0,0,1,.53-0.192,4.784,4.784,0,0,1,.53-0.137c0.01,0,.02,0,0.03-0.007a1.666,1.666,0,0,1-.2-0.078,2.917,2.917,0,0,1-.57-0.307,3.006,3.006,0,0,1-.5-0.414h0a4.113,4.113,0,0,1-.42-0.5,4.226,4.226,0,0,1-.3-0.573,3.466,3.466,0,0,1-.2-0.644,3.237,3.237,0,0,1,0-1.339,3.387,3.387,0,0,1,.2-0.643,4.24,4.24,0,0,1,.3-0.574,3.368,3.368,0,0,1,.42-0.5h0v0h0a2.757,2.757,0,0,1,.5-0.41,3.1,3.1,0,0,1,.57-0.311,3.323,3.323,0,0,1,.64-0.2,3.177,3.177,0,0,1,.67-0.07,3.588,3.588,0,0,1,.54.044,3.262,3.262,0,0,1,.53.133,0.729,0.729,0,0,1,.44.415,3.977,3.977,0,0,1,.72-1.006,3.735,3.735,0,0,1,5.3,0,3.66,3.66,0,0,1,.73,1.046,0.759,0.759,0,0,1,.48-0.469,3.2,3.2,0,0,1,.5-0.123,3.876,3.876,0,0,1,.52-0.04,3.247,3.247,0,0,1,.67.07,3.552,3.552,0,0,1,.64.2,3.1,3.1,0,0,1,.57.311,3.379,3.379,0,0,1,1.22,1.487,4.3,4.3,0,0,1,.2.643,3.237,3.237,0,0,1,0,1.339,4.427,4.427,0,0,1-.2.644,3.368,3.368,0,0,1-.31.573,3.309,3.309,0,0,1-.41.5,3.4,3.4,0,0,1-.5.414,2.917,2.917,0,0,1-.57.307c-0.07.029-.13,0.055-0.2,0.078a0.033,0.033,0,0,1,.02.007,4.436,4.436,0,0,1,.54.137,4.254,4.254,0,0,1,.52.192c0.19,0.078.35,0.156,0.5,0.233a0.216,0.216,0,0,0,.05.033c0.15,0.086.28,0.167,0.41,0.252s0.28,0.2.43,0.325a4.3,4.3,0,0,1,.4.367,6.129,6.129,0,0,1,.63.758,3.629,3.629,0,0,1,.27.418,5.526,5.526,0,0,1,.42.91,4.435,4.435,0,0,1,.15.481c0.04,0.17.08,0.336,0.11,0.506s0.04,0.344.06,0.511a0.749,0.749,0,0,1-.69.791,0.734,0.734,0,0,1-.78-0.684,6.942,6.942,0,0,0-.12-0.754c-0.04-.123-0.07-0.241-0.11-0.356s-0.09-.222-0.14-0.344-0.12-.229-0.17-0.325-0.13-.211-0.2-0.311-0.14-.185-0.22-0.288c-0.07-.085-0.16-0.178-0.25-0.27-0.11-.107-0.2-0.2-0.29-0.27a3.092,3.092,0,0,0-.33-0.241,3.343,3.343,0,0,0-.29-0.185c-0.02-.007-0.03-0.015-0.05-0.022a2.957,2.957,0,0,0-.36-0.177,3.973,3.973,0,0,0-.38-0.141c-0.14-.041-0.27-0.078-0.4-0.1h0Zm-4.11-7.38a2.3,2.3,0,1,0,.66,1.613,2.275,2.275,0,0,0-.66-1.613h0Z" transform="translate(-1001 -781)"/>
</svg>
