<svg xmlns="http://www.w3.org/2000/svg" width="26" height="24.031" viewBox="0 0 26 24.031">
  <metadata><?xpacket begin="﻿" id="W5M0MpCehiHzreSzNTczkc9d"?>
<x:xmpmeta xmlns:x="adobe:ns:meta/" x:xmptk="Adobe XMP Core 5.6-c138 79.159824, 2016/09/14-01:09:01        ">
   <rdf:RDF xmlns:rdf="http://www.w3.org/1999/02/22-rdf-syntax-ns#">
      <rdf:Description rdf:about=""/>
   </rdf:RDF>
</x:xmpmeta>
                                                                                                    
                                                                                                    
                                                                                                    
                                                                                                    
                                                                                                    
                                                                                                    
                                                                                                    
                                                                                                    
                                                                                                    
                                                                                                    
                                                                                                    
                                                                                                    
                                                                                                    
                                                                                                    
                                                                                                    
                                                                                                    
                                                                                                    
                                                                                                    
                                                                                                    
                                                                                                    
                           
<?xpacket end="w"?></metadata>
<defs>
    <style>
      .cls-1 {
        fill: #ffa100;
        fill-rule: evenodd;
      }
    </style>
  </defs>
  <path id="Forma_1" data-name="Forma 1" class="cls-1" d="M1431.62,363.768V373.4a1.618,1.618,0,0,0,1.63,1.605h8.12V363.768h-9.75Zm22.75-6.418h-5.14a6.281,6.281,0,0,0,.91-0.717,3.327,3.327,0,0,0,0-4.721,3.47,3.47,0,0,0-4.77,0c-0.7.7-2.57,3.54-2.31,5.438h-0.12c0.26-1.9-1.61-4.74-2.31-5.438a3.474,3.474,0,0,0-4.77,0,3.327,3.327,0,0,0,0,4.721,6.281,6.281,0,0,0,.91.717h-5.15a1.616,1.616,0,0,0-1.62,1.6v2.407a0.805,0.805,0,0,0,.81.8h10.56v-3.21h3.25v3.21h10.57a0.805,0.805,0,0,0,.81-0.8v-2.407A1.618,1.618,0,0,0,1454.37,357.35Zm-13.09-.053a0.547,0.547,0,0,1-.3.053,8.051,8.051,0,0,1-3.97-1.849,1.739,1.739,0,0,1,2.46-2.458C1440.57,354.131,1441.66,356.91,1441.28,357.3Zm3.74,0.053a0.523,0.523,0,0,1-.3-0.053c-0.38-.387.71-3.166,1.81-4.254a1.786,1.786,0,0,1,2.46,0,1.736,1.736,0,0,1,0,2.458A8.051,8.051,0,0,1,1445.02,357.35Zm-0.4,6.418V375h8.13a1.609,1.609,0,0,0,1.62-1.605v-9.627h-9.75Z" transform="translate(-1430 -350.969)"/>
</svg>
