<svg xmlns="http://www.w3.org/2000/svg" width="38.43" height="25.656" viewBox="0 0 38.43 25.656">
  <metadata><?xpacket begin="﻿" id="W5M0MpCehiHzreSzNTczkc9d"?>
<x:xmpmeta xmlns:x="adobe:ns:meta/" x:xmptk="Adobe XMP Core 5.6-c138 79.159824, 2016/09/14-01:09:01        ">
   <rdf:RDF xmlns:rdf="http://www.w3.org/1999/02/22-rdf-syntax-ns#">
      <rdf:Description rdf:about=""/>
   </rdf:RDF>
</x:xmpmeta>
                                                                                                    
                                                                                                    
                                                                                                    
                                                                                                    
                                                                                                    
                                                                                                    
                                                                                                    
                                                                                                    
                                                                                                    
                                                                                                    
                                                                                                    
                                                                                                    
                                                                                                    
                                                                                                    
                                                                                                    
                                                                                                    
                                                                                                    
                                                                                                    
                                                                                                    
                                                                                                    
                           
<?xpacket end="w"?></metadata>
<defs>
    <style>
      .cls-1 {
        fill: #8dcbcf;
        fill-rule: evenodd;
      }
    </style>
  </defs>
  <path id="Shape_14_copy_3" data-name="Shape 14 copy 3" class="cls-1" d="M1364.34,366.8a1.342,1.342,0,0,1-1.04-1.594,1.289,1.289,0,0,1,.49-0.793,6.121,6.121,0,0,1-.99.081,6.228,6.228,0,0,1-1.21-.129,5.57,5.57,0,0,1-1.17-.366,1.346,1.346,0,1,1,1.03-2.488,3.562,3.562,0,0,0,1.35.271,3.135,3.135,0,0,0,.7-0.068,2.923,2.923,0,0,0,.66-0.2,4.018,4.018,0,0,0,.58-0.319,3.8,3.8,0,0,0,.51-0.427,3.581,3.581,0,0,0,.44-0.522,4.129,4.129,0,0,0,.31-0.584,3.047,3.047,0,0,0,.2-0.658,3.515,3.515,0,0,0,0-1.4,3.047,3.047,0,0,0-.2-0.658,4.186,4.186,0,0,0-.31-0.59,3.48,3.48,0,0,0-.44-0.515,3.339,3.339,0,0,0-.51-0.427,3.431,3.431,0,0,0-.58-0.326,3.781,3.781,0,0,0-.66-0.2,3.569,3.569,0,0,0-.7-0.061,4.06,4.06,0,0,0-.53.033,3.187,3.187,0,0,0-.52.122,1.337,1.337,0,0,1-1.17-.176,6.7,6.7,0,0,1,.15,1.424,6.886,6.886,0,0,1-5.03,6.645,11.118,11.118,0,0,1,2.6.74,11.484,11.484,0,0,1,3.78,2.529,11.731,11.731,0,0,1,2.35,3.4,11.517,11.517,0,0,1,1.02,4,1.349,1.349,0,1,1-2.69.2,8.791,8.791,0,0,0-2.59-5.682,9,9,0,0,0-2.89-1.953,8.935,8.935,0,0,0-12.31,7.635,1.349,1.349,0,1,1-2.69-.2,11.742,11.742,0,0,1,1.02-4,11.928,11.928,0,0,1,2.35-3.4,11.588,11.588,0,0,1,3.78-2.529,11.118,11.118,0,0,1,2.6-.74,6.828,6.828,0,0,1-3.01-1.769,6.9,6.9,0,0,1-2.01-4.876,6.59,6.59,0,0,1,.13-1.342,1.333,1.333,0,0,1-1.1.115,3.029,3.029,0,0,0-.55-0.136,4,4,0,0,0-1.26.021,3.436,3.436,0,0,0-.65.2,3.152,3.152,0,0,0-.59.326,3.5,3.5,0,0,0-.51.42h0l-0.01.007a3.561,3.561,0,0,0-.42.515,3.422,3.422,0,0,0-.32.59,3.047,3.047,0,0,0-.2.658,4.09,4.09,0,0,0,0,1.4,3.047,3.047,0,0,0,.2.658,3.377,3.377,0,0,0,.32.584,4.257,4.257,0,0,0,.43.522h0a3.188,3.188,0,0,0,.51.427,3.632,3.632,0,0,0,.59.319,2.7,2.7,0,0,0,.65.2,3.2,3.2,0,0,0,.7.068,3.1,3.1,0,0,0,.69-0.068,2.775,2.775,0,0,0,.66-0.2,1.348,1.348,0,0,1,1.04,2.488,5.76,5.76,0,0,1-1.17.366,6.247,6.247,0,0,1-1.22.129,5.909,5.909,0,0,1-.98-0.081,1.383,1.383,0,0,1,.49.793,1.356,1.356,0,0,1-1.05,1.594,7,7,0,0,0-.73.19,6.17,6.17,0,0,0-.7.257,6.846,6.846,0,0,0-.66.326v-0.007q-0.3.162-.63,0.386c-0.22.156-.42,0.3-0.59,0.441s-0.34.3-.54,0.5c-0.16.17-.32,0.339-0.45,0.5a6.48,6.48,0,0,0-.41.529,6.217,6.217,0,0,0-.36.57c-0.1.176-.2,0.373-0.3,0.6a4.316,4.316,0,0,0-.26.631,6.124,6.124,0,0,0-.21.651c-0.05.217-.1,0.448-0.14,0.685-0.03.217-.06,0.448-0.08,0.7a1.343,1.343,0,0,1-1.44,1.255,1.362,1.362,0,0,1-1.25-1.451c0.03-.306.06-0.617,0.11-0.936s0.12-.617.2-0.929c0.08-.292.17-0.59,0.28-0.882a7.3,7.3,0,0,1,.34-0.854q0.18-.387.42-0.814a7.652,7.652,0,0,1,.49-0.766c0.19-.271.37-0.509,0.55-0.719a7.5,7.5,0,0,1,.6-0.671c0.21-.21.46-0.434,0.74-0.671s0.54-.421.79-0.6,0.54-.346.86-0.515h0v-0.007a10.586,10.586,0,0,1,1.85-.78,8.454,8.454,0,0,1,.98-0.251,0.251,0.251,0,0,1,.05-0.013c-0.12-.041-0.25-0.089-0.37-0.143a5.374,5.374,0,0,1-1.04-.563,6.1,6.1,0,0,1-.92-0.759h0a6.43,6.43,0,0,1-.76-0.916,7.343,7.343,0,0,1-.56-1.051,7.537,7.537,0,0,1-.36-1.179,6.338,6.338,0,0,1,0-2.455,6.277,6.277,0,0,1,.92-2.231,6.968,6.968,0,0,1,.76-0.916h0l0.01-.006h0a5.2,5.2,0,0,1,.91-0.753,5.8,5.8,0,0,1,1.04-.57,6.238,6.238,0,0,1,1.18-.359,5.749,5.749,0,0,1,1.22-.129,6.2,6.2,0,0,1,.99.082,5.739,5.739,0,0,1,.97.244,1.334,1.334,0,0,1,.81.759,6.906,6.906,0,0,1,1.32-1.844,6.83,6.83,0,0,1,9.7,0,6.723,6.723,0,0,1,1.34,1.919,1.368,1.368,0,0,1,.87-0.861,6.233,6.233,0,0,1,.93-0.224,6.636,6.636,0,0,1,.94-0.075,5.911,5.911,0,0,1,1.23.129,6.139,6.139,0,0,1,1.17.359,6.266,6.266,0,0,1,1.05.57,5.838,5.838,0,0,1,.91.753,5.916,5.916,0,0,1,.76.922,6.128,6.128,0,0,1,.92,4.686,6.6,6.6,0,0,1-.36,1.179,6.462,6.462,0,0,1-.56,1.051A6.063,6.063,0,0,1,1365.2,364a3.337,3.337,0,0,1-.37.143,0.138,0.138,0,0,1,.05.013,8.454,8.454,0,0,1,.98.251,9.069,9.069,0,0,1,.96.353,9.377,9.377,0,0,1,.9.427,0.877,0.877,0,0,1,.1.061c0.27,0.156.52,0.305,0.75,0.461,0.26,0.176.52,0.373,0.79,0.6a9.832,9.832,0,0,1,.74.671c0.2,0.2.4,0.42,0.61,0.671a7.352,7.352,0,0,1,.54.719,7.652,7.652,0,0,1,.49.766,6.827,6.827,0,0,1,.42.814c0.12,0.258.24,0.542,0.35,0.854a7.421,7.421,0,0,1,.27.882,7.7,7.7,0,0,1,.2.929c0.05,0.319.09,0.63,0.11,0.936a1.349,1.349,0,1,1-2.69.2,4.9,4.9,0,0,0-.08-0.7,6.907,6.907,0,0,0-.14-0.685c-0.06-.224-0.13-0.441-0.2-0.651-0.07-.19-0.16-0.407-0.26-0.631s-0.21-.42-0.31-0.6a6.217,6.217,0,0,0-.36-0.57,6.48,6.48,0,0,0-.41-0.529c-0.13-.156-0.28-0.325-0.45-0.5-0.2-.2-0.37-0.359-0.53-0.5s-0.38-.285-0.6-0.441c-0.19-.128-0.36-0.237-0.54-0.339l-0.09-.04a5.867,5.867,0,0,0-.66-0.326,6.17,6.17,0,0,0-.7-0.257,6.41,6.41,0,0,0-.73-0.19h0Zm-7.53-13.528a4.16,4.16,0,0,0-7.1,2.956,4.16,4.16,0,0,0,1.22,2.957,4.136,4.136,0,0,0,5.88,0,4.192,4.192,0,0,0,0-5.913h0Z" transform="translate(-1334.66 -349.344)"/>
</svg>
