<svg xmlns="http://www.w3.org/2000/svg" width="73" height="73" viewBox="0 0 73 73">
  <metadata><?xpacket begin="﻿" id="W5M0MpCehiHzreSzNTczkc9d"?>
<x:xmpmeta xmlns:x="adobe:ns:meta/" x:xmptk="Adobe XMP Core 5.6-c138 79.159824, 2016/09/14-01:09:01        ">
   <rdf:RDF xmlns:rdf="http://www.w3.org/1999/02/22-rdf-syntax-ns#">
      <rdf:Description rdf:about=""/>
   </rdf:RDF>
</x:xmpmeta>
                                                                                                    
                                                                                                    
                                                                                                    
                                                                                                    
                                                                                                    
                                                                                                    
                                                                                                    
                                                                                                    
                                                                                                    
                                                                                                    
                                                                                                    
                                                                                                    
                                                                                                    
                                                                                                    
                                                                                                    
                                                                                                    
                                                                                                    
                                                                                                    
                                                                                                    
                                                                                                    
                           
<?xpacket end="w"?></metadata>
<defs>
    <style>
      .cls-1 {
        fill: #2e77bc;
        fill-rule: evenodd;
      }
    </style>
  </defs>
  <path class="cls-1" d="M1140.67,303.6a7.046,7.046,0,0,0-3.09-12.574v-1.283a5.894,5.894,0,0,0-5.89-5.887h-20.01v-4.291a3.622,3.622,0,0,0,2.21.759,3.673,3.673,0,0,0,3.66-3.546,3.657,3.657,0,0,0,3.53-3.532,3.667,3.667,0,0,0,3.54-3.532,3.672,3.672,0,0,0,2.47-6.261l-0.25-.244a11.162,11.162,0,0,0-16.34-15.142,11.158,11.158,0,0,0-15.75,15.8,3.634,3.634,0,0,0-.73,2.185,3.671,3.671,0,0,0,3.54,3.662,3.665,3.665,0,0,0,3.53,3.532,3.666,3.666,0,0,0,3.54,3.532,3.673,3.673,0,0,0,3.66,3.546,3.627,3.627,0,0,0,1.03-.165v3.7h-20.01a5.894,5.894,0,0,0-5.89,5.887v1.283a7.046,7.046,0,0,0-3.09,12.574,10.612,10.612,0,0,0-6.33,9.691V318h21.19v-4.71a10.6,10.6,0,0,0-6.32-9.691,7.052,7.052,0,0,0-3.1-12.574v-1.283a3.541,3.541,0,0,1,3.54-3.532h20.01v4.815a7.053,7.053,0,0,0-3.09,12.574,10.612,10.612,0,0,0-6.33,9.691V318h21.2v-4.71a10.612,10.612,0,0,0-6.33-9.691,7.053,7.053,0,0,0-3.09-12.574V286.21h20.01a3.541,3.541,0,0,1,3.54,3.532v1.283a7.052,7.052,0,0,0-3.1,12.574,10.6,10.6,0,0,0-6.32,9.691V318H1147v-4.71a10.612,10.612,0,0,0-6.33-9.691h0Zm-22.5-56.244a8.82,8.82,0,0,1,8.81,8.813,8.725,8.725,0,0,1-1.82,5.357l-5.41-5.414a8.855,8.855,0,0,0,1-.859l-1.66-1.665a6.83,6.83,0,0,1-4.86,2.01h-1.86l-2.01,2.01a1.192,1.192,0,0,1-.84.345h-4.42a0.49,0.49,0,0,1-.49-0.488,0.463,0.463,0,0,1,.15-0.345l7.18-7.183a8.752,8.752,0,0,1,6.23-2.581h0Zm-15.34,0a8.72,8.72,0,0,1,5.99,2.365l-5.73,5.734a2.808,2.808,0,0,0-.83,2.01,2.842,2.842,0,0,0,2.84,2.842h4.42a3.505,3.505,0,0,0,2.5-1.035l1.32-1.319h0.89a9.192,9.192,0,0,0,3.38-.643l7.81,7.808a1.322,1.322,0,0,1-1.87,1.868l-2.8-2.8-1.66,1.665,2.8,2.8a1.3,1.3,0,0,1,.38.933,1.318,1.318,0,0,1-2.25.934l-2.8-2.8-1.67,1.665,2.81,2.8a1.343,1.343,0,0,1,.38.934,1.318,1.318,0,0,1-2.25.933l-2.8-2.8-1.67,1.665,2.8,2.8a1.318,1.318,0,1,1-1.86,1.868l-0.4-.394a3.667,3.667,0,0,0-3.25-5.094,3.666,3.666,0,0,0-3.53-3.533,3.665,3.665,0,0,0-3.53-3.532,3.681,3.681,0,0,0-3.67-3.545,3.616,3.616,0,0,0-2.16.719,8.728,8.728,0,0,1-2.4-6.035,8.82,8.82,0,0,1,8.81-8.813h0Zm-6.46,18.7a1.314,1.314,0,0,1,.39-0.934l0.89-.892a1.321,1.321,0,0,1,1.87,1.867l-0.9.893A1.318,1.318,0,0,1,1096.37,266.051Zm3.53,3.532a1.31,1.31,0,0,1,.39-0.933l0.89-.893a1.322,1.322,0,1,1,1.87,1.868l-0.89.892A1.325,1.325,0,0,1,1099.9,269.583Zm3.54,3.533a1.3,1.3,0,0,1,.38-0.934l0.89-.893a1.322,1.322,0,1,1,1.87,1.868l-0.89.892A1.318,1.318,0,0,1,1103.44,273.116Zm4.85,4.852a1.321,1.321,0,0,1-1.32-1.32,1.347,1.347,0,0,1,.38-0.934l0.9-.892a1.318,1.318,0,1,1,1.86,1.867l-0.89.893A1.314,1.314,0,0,1,1108.29,277.968Zm-15.45,35.322v2.355h-2.36v-4.71h-2.35v4.71h-7.07v-4.71h-2.35v4.71h-2.36V313.29A8.245,8.245,0,0,1,1092.84,313.29Zm-3.53-15.306a4.71,4.71,0,1,1-4.71-4.71A4.72,4.72,0,0,1,1089.31,297.984Zm29.43,15.306v2.355h-2.35v-4.71h-2.36v4.71h-7.06v-4.71h-2.36v4.71h-2.35V313.29A8.24,8.24,0,1,1,1118.74,313.29Zm-3.53-15.306a4.71,4.71,0,1,1-4.71-4.71A4.714,4.714,0,0,1,1115.21,297.984Zm16.48,0a4.71,4.71,0,1,1,4.71,4.71A4.719,4.719,0,0,1,1131.69,297.984Zm12.96,17.661h-2.36v-4.71h-2.35v4.71h-7.07v-4.71h-2.35v4.71h-2.36V313.29a8.245,8.245,0,0,1,16.49,0v2.355Z" transform="translate(-1074 -245)"/>
</svg>
