<svg xmlns="http://www.w3.org/2000/svg" width="21" height="14" viewBox="0 0 21 14">
  <metadata><?xpacket begin="﻿" id="W5M0MpCehiHzreSzNTczkc9d"?>
<x:xmpmeta xmlns:x="adobe:ns:meta/" x:xmptk="Adobe XMP Core 5.6-c138 79.159824, 2016/09/14-01:09:01        ">
   <rdf:RDF xmlns:rdf="http://www.w3.org/1999/02/22-rdf-syntax-ns#">
      <rdf:Description rdf:about=""/>
   </rdf:RDF>
</x:xmpmeta>
                                                                                                    
                                                                                                    
                                                                                                    
                                                                                                    
                                                                                                    
                                                                                                    
                                                                                                    
                                                                                                    
                                                                                                    
                                                                                                    
                                                                                                    
                                                                                                    
                                                                                                    
                                                                                                    
                                                                                                    
                                                                                                    
                                                                                                    
                                                                                                    
                                                                                                    
                                                                                                    
                           
<?xpacket end="w"?></metadata>
<defs>
    <style>
      .cls-1 {
        fill-rule: evenodd;
      }
    </style>
  </defs>
  <path class="cls-1" d="M469.219,427.528a0.737,0.737,0,0,1-.3-1.3,3.292,3.292,0,0,1-.538.045,3.443,3.443,0,0,1-.663-0.07,3.113,3.113,0,0,1-.642-0.2,0.736,0.736,0,0,1,.568-1.358,1.553,1.553,0,0,0,.361.111,1.944,1.944,0,0,0,.755,0,1.546,1.546,0,0,0,.362-0.111,2.081,2.081,0,0,0,.317-0.173,1.962,1.962,0,0,0,.515-0.518,2,2,0,0,0,.174-0.318,2.04,2.04,0,0,0,.11-0.359,1.98,1.98,0,0,0,0-.762,2.04,2.04,0,0,0-.11-0.359,2.078,2.078,0,0,0-.174-0.322,2.148,2.148,0,0,0-.235-0.281,1.9,1.9,0,0,0-.28-0.233,1.814,1.814,0,0,0-.317-0.177,1.828,1.828,0,0,0-.741-0.145,2.182,2.182,0,0,0-.291.019,1.735,1.735,0,0,0-.284.066,0.727,0.727,0,0,1-.638-0.1,3.835,3.835,0,0,1,.078.777,3.752,3.752,0,0,1-1.1,2.659,3.79,3.79,0,0,1-1.647.966,6.128,6.128,0,0,1,1.419.4,6.313,6.313,0,0,1,2.064,1.38,6.423,6.423,0,0,1,1.282,1.856,6.314,6.314,0,0,1,.556,2.183,0.735,0.735,0,1,1-1.466.107,4.92,4.92,0,0,0-2.993-4.165,4.88,4.88,0,0,0-6.725,4.165,0.735,0.735,0,1,1-1.467-.107,6.39,6.39,0,0,1,1.839-4.039,6.3,6.3,0,0,1,2.064-1.38,6.114,6.114,0,0,1,1.419-.4,3.765,3.765,0,0,1-2.742-3.625,3.672,3.672,0,0,1,.07-0.732,0.724,0.724,0,0,1-.6.062,1.563,1.563,0,0,0-.3-0.073,2.1,2.1,0,0,0-.686.011,1.784,1.784,0,0,0-.357.111,1.708,1.708,0,0,0-.321.177,1.947,1.947,0,0,0-.28.229h0l0,0a2.008,2.008,0,0,0-.228.281,1.747,1.747,0,0,0-.177.322,1.959,1.959,0,0,0-.11.359,2.152,2.152,0,0,0,0,.762,1.959,1.959,0,0,0,.11.359,1.688,1.688,0,0,0,.177.318,1.879,1.879,0,0,0,.232.285h0a1.785,1.785,0,0,0,.28.233,1.94,1.94,0,0,0,.321.173,1.466,1.466,0,0,0,.357.111,1.965,1.965,0,0,0,.759,0,1.515,1.515,0,0,0,.358-0.111,0.737,0.737,0,0,1,.571,1.358,3.182,3.182,0,0,1-.641.2,3.5,3.5,0,0,1-.667.07,3.2,3.2,0,0,1-.534-0.045,0.743,0.743,0,0,1,.265.433,0.736,0.736,0,0,1-.571.87,4.158,4.158,0,0,0-.782.244c-0.106.044-.224,0.1-0.361,0.177v0c-0.107.06-.221,0.13-0.342,0.211s-0.229.163-.325,0.241-0.184.162-.291,0.27c-0.092.092-.177,0.185-0.247,0.27-0.088.1-.162,0.2-0.225,0.288a3.447,3.447,0,0,0-.195.311c-0.055.1-.11,0.2-0.166,0.325a3.06,3.06,0,0,0-.143.344c-0.041.111-.078,0.233-0.111,0.356s-0.055.244-.077,0.373-0.034.244-.045,0.381a0.735,0.735,0,1,1-1.466-.107,4.883,4.883,0,0,1,.059-0.511c0.029-.17.062-0.336,0.106-0.506s0.093-.322.152-0.481a4.512,4.512,0,0,1,.188-0.466q0.1-.212.232-0.444a4.4,4.4,0,0,1,.265-0.418c0.1-.148.2-0.278,0.3-0.392a4.191,4.191,0,0,1,.332-0.366c0.114-.115.251-0.237,0.4-0.367s0.295-.229.431-0.325,0.3-.189.468-0.281h0v0c0.14-.077.306-0.155,0.49-0.233a5.013,5.013,0,0,1,.523-0.192,4.65,4.65,0,0,1,.535-0.137,0.2,0.2,0,0,1,.026-0.007c-0.067-.023-0.133-0.049-0.2-0.078a3.055,3.055,0,0,1-.572-0.307,3.585,3.585,0,0,1-.5-0.414h0a3.641,3.641,0,0,1-.412-0.5,3.579,3.579,0,0,1-.306-0.573,3.7,3.7,0,0,1-.2-0.644,3.379,3.379,0,0,1,0-1.339,3.495,3.495,0,0,1,.5-1.217,3.5,3.5,0,0,1,.412-0.5h0l0,0h0a3.084,3.084,0,0,1,.5-0.41,3.288,3.288,0,0,1,1.213-.507,3.177,3.177,0,0,1,.667-0.07,3.493,3.493,0,0,1,.542.044,3.342,3.342,0,0,1,.53.133,0.733,0.733,0,0,1,.442.415,3.852,3.852,0,0,1,.719-1.007,3.736,3.736,0,0,1,5.3,0,3.815,3.815,0,0,1,.734,1.047,0.734,0.734,0,0,1,.475-0.469,3.35,3.35,0,0,1,.5-0.123,3.807,3.807,0,0,1,.516-0.04,3.177,3.177,0,0,1,.667.07,3.29,3.29,0,0,1,.641.2,3.073,3.073,0,0,1,.571.311,3.185,3.185,0,0,1,.5.41,3.341,3.341,0,0,1,.413.5,3.672,3.672,0,0,1,.306.574,3.315,3.315,0,0,1,.2.643,3.237,3.237,0,0,1,0,1.339,3.39,3.39,0,0,1-.2.644,3.661,3.661,0,0,1-.306.573,3.317,3.317,0,0,1-.413.5,3.207,3.207,0,0,1-.5.414,2.9,2.9,0,0,1-.571.307,1.872,1.872,0,0,1-.2.078,0.12,0.12,0,0,1,.026.007,4.581,4.581,0,0,1,.534.137,4.79,4.79,0,0,1,.524.192c0.184,0.078.35,0.156,0.493,0.233l0.056,0.033c0.147,0.085.283,0.167,0.409,0.252s0.283,0.2.431,0.325,0.287,0.252.4,0.367a4.033,4.033,0,0,1,.331.366,3.927,3.927,0,0,1,.3.392c0.1,0.133.184,0.274,0.269,0.418a4.959,4.959,0,0,1,.228.444,4.512,4.512,0,0,1,.188.466,4.677,4.677,0,0,1,.151.481c0.045,0.17.078,0.336,0.107,0.506s0.048,0.344.063,0.511a0.744,0.744,0,0,1-.686.791,0.736,0.736,0,0,1-.785-0.684,2.871,2.871,0,0,0-.044-0.381,3.722,3.722,0,0,0-.077-0.373c-0.033-.123-0.07-0.241-0.111-0.356s-0.085-.221-0.14-0.344-0.114-.229-0.169-0.325a3.457,3.457,0,0,0-.2-0.311c-0.062-.089-0.136-0.185-0.224-0.288-0.07-.085-0.155-0.178-0.247-0.27-0.107-.108-0.2-0.2-0.291-0.27s-0.2-.156-0.325-0.241c-0.1-.07-0.2-0.129-0.3-0.185-0.014-.007-0.033-0.014-0.047-0.022a3.472,3.472,0,0,0-.362-0.177,3.583,3.583,0,0,0-.383-0.141,3.64,3.64,0,0,0-.4-0.1h0Zm-4.113-7.38a2.282,2.282,0,1,0,0,3.226,2.291,2.291,0,0,0,0-3.226h0Z" transform="translate(-453 -418)"/>
</svg>
