<svg xmlns="http://www.w3.org/2000/svg" width="21" height="14" viewBox="0 0 21 14">
  <metadata><?xpacket begin="﻿" id="W5M0MpCehiHzreSzNTczkc9d"?>
<x:xmpmeta xmlns:x="adobe:ns:meta/" x:xmptk="Adobe XMP Core 5.6-c138 79.159824, 2016/09/14-01:09:01        ">
   <rdf:RDF xmlns:rdf="http://www.w3.org/1999/02/22-rdf-syntax-ns#">
      <rdf:Description rdf:about=""/>
   </rdf:RDF>
</x:xmpmeta>
                                                                                                    
                                                                                                    
                                                                                                    
                                                                                                    
                                                                                                    
                                                                                                    
                                                                                                    
                                                                                                    
                                                                                                    
                                                                                                    
                                                                                                    
                                                                                                    
                                                                                                    
                                                                                                    
                                                                                                    
                                                                                                    
                                                                                                    
                                                                                                    
                                                                                                    
                                                                                                    
                           
<?xpacket end="w"?></metadata>
<defs>
    <style>
      .cls-1 {
        fill: #ffa100;
        fill-rule: evenodd;
      }
    </style>
  </defs>
  <path class="cls-1" d="M498.219,381.527a0.734,0.734,0,0,1-.571-0.869,0.725,0.725,0,0,1,.269-0.433,3.292,3.292,0,0,1-.538.045,3.461,3.461,0,0,1-.664-0.07,3.123,3.123,0,0,1-.641-0.2,0.736,0.736,0,0,1,.568-1.358,1.553,1.553,0,0,0,.361.111,1.944,1.944,0,0,0,.755,0,1.546,1.546,0,0,0,.362-0.111,1.956,1.956,0,0,0,.316-0.174,1.982,1.982,0,0,0,.28-0.232,2.112,2.112,0,0,0,.236-0.285,2.044,2.044,0,0,0,.174-0.318,2.128,2.128,0,0,0,.11-0.359,1.98,1.98,0,0,0,0-.762,2.128,2.128,0,0,0-.11-0.359,2.033,2.033,0,0,0-.174-0.322,2.08,2.08,0,0,0-.236-0.281,1.8,1.8,0,0,0-.28-0.233,1.772,1.772,0,0,0-.316-0.177,1.828,1.828,0,0,0-.741-0.145,2.182,2.182,0,0,0-.291.019,1.735,1.735,0,0,0-.284.066,0.727,0.727,0,0,1-.638-0.1,3.835,3.835,0,0,1,.078.777,3.752,3.752,0,0,1-1.1,2.659,3.79,3.79,0,0,1-1.647.966,6.079,6.079,0,0,1,1.419.4,6.313,6.313,0,0,1,2.064,1.38,6.443,6.443,0,0,1,1.282,1.856,6.314,6.314,0,0,1,.556,2.183,0.735,0.735,0,1,1-1.466.107,4.92,4.92,0,0,0-2.993-4.165,4.88,4.88,0,0,0-6.725,4.165,0.735,0.735,0,1,1-1.467-.107,6.39,6.39,0,0,1,1.839-4.039,6.3,6.3,0,0,1,2.064-1.38,6.065,6.065,0,0,1,1.419-.4,3.765,3.765,0,0,1-2.742-3.625,3.672,3.672,0,0,1,.07-0.732,0.724,0.724,0,0,1-.6.062,1.563,1.563,0,0,0-.3-0.073,2.1,2.1,0,0,0-.686.011,1.784,1.784,0,0,0-.357.111,1.708,1.708,0,0,0-.321.177,1.947,1.947,0,0,0-.28.229h0l0,0a1.952,1.952,0,0,0-.228.281,1.715,1.715,0,0,0-.177.322,2.043,2.043,0,0,0-.111.359,2.216,2.216,0,0,0,0,.762,2.043,2.043,0,0,0,.111.359,1.719,1.719,0,0,0,.177.318,1.879,1.879,0,0,0,.232.285h0a1.727,1.727,0,0,0,.28.232,1.875,1.875,0,0,0,.321.174,1.466,1.466,0,0,0,.357.111,1.965,1.965,0,0,0,.759,0,1.515,1.515,0,0,0,.358-0.111,0.737,0.737,0,0,1,.571,1.358,3.182,3.182,0,0,1-.641.2,3.5,3.5,0,0,1-.667.07,3.22,3.22,0,0,1-.535-0.045,0.739,0.739,0,0,1-.305,1.3,3.823,3.823,0,0,0-.4.1,3.6,3.6,0,0,0-.384.141,3.785,3.785,0,0,0-.361.177v0c-0.107.06-.221,0.13-0.343,0.211s-0.228.163-.324,0.241-0.184.162-.291,0.27c-0.092.092-.177,0.185-0.247,0.27-0.088.1-.162,0.2-0.225,0.288a3.447,3.447,0,0,0-.195.311c-0.055.1-.111,0.2-0.166,0.325a3.193,3.193,0,0,0-.144.344c-0.04.111-.077,0.233-0.11,0.356s-0.055.244-.077,0.373-0.034.244-.045,0.381a0.735,0.735,0,1,1-1.466-.107c0.011-.167.029-0.337,0.058-0.511s0.063-.336.107-0.506,0.092-.322.152-0.481a4.516,4.516,0,0,1,.187-0.466c0.067-.141.144-0.289,0.233-0.444a4.4,4.4,0,0,1,.265-0.418c0.1-.148.2-0.278,0.3-0.392a4.037,4.037,0,0,1,.332-0.366c0.114-.115.251-0.237,0.4-0.367s0.295-.229.431-0.325,0.3-.189.468-0.281h0v0a5.181,5.181,0,0,1,.49-0.233,4.8,4.8,0,0,1,.523-0.192,4.6,4.6,0,0,1,.535-0.137,0.2,0.2,0,0,1,.026-0.007c-0.067-.023-0.133-0.049-0.2-0.078a3.024,3.024,0,0,1-.572-0.307,3.528,3.528,0,0,1-.5-0.414h0a3.721,3.721,0,0,1-.413-0.5,3.5,3.5,0,0,1-.5-1.217,3.379,3.379,0,0,1,0-1.339,3.536,3.536,0,0,1,.2-0.643,3.625,3.625,0,0,1,.305-0.574,3.505,3.505,0,0,1,.413-0.5h0l0,0h0a3.041,3.041,0,0,1,.5-0.41,3.216,3.216,0,0,1,.572-0.311,3.269,3.269,0,0,1,.641-0.2,3.177,3.177,0,0,1,.667-0.07,3.47,3.47,0,0,1,.541.044,3.327,3.327,0,0,1,.531.133,0.737,0.737,0,0,1,.442.414,3.864,3.864,0,0,1,.719-1.006,3.736,3.736,0,0,1,5.3,0,3.815,3.815,0,0,1,.734,1.047,0.731,0.731,0,0,1,.475-0.469,3.35,3.35,0,0,1,.5-0.123,3.8,3.8,0,0,1,.516-0.04,3.177,3.177,0,0,1,.667.07,3.29,3.29,0,0,1,.641.2,3.073,3.073,0,0,1,.571.311,3.231,3.231,0,0,1,.5.41,3.341,3.341,0,0,1,.413.5,3.628,3.628,0,0,1,.306.574,3.315,3.315,0,0,1,.2.643,3.237,3.237,0,0,1,0,1.339,3.413,3.413,0,0,1-.2.644,3.661,3.661,0,0,1-.306.573,3.317,3.317,0,0,1-.413.5,3.254,3.254,0,0,1-.5.414,2.9,2.9,0,0,1-.571.307,1.872,1.872,0,0,1-.2.078,0.138,0.138,0,0,1,.026.007,4.581,4.581,0,0,1,.534.137,4.509,4.509,0,0,1,.523.192c0.185,0.078.351,0.155,0.494,0.233l0.056,0.033c0.147,0.085.283,0.167,0.409,0.252s0.283,0.2.431,0.325,0.287,0.252.4,0.367a5.8,5.8,0,0,1,.631.758c0.1,0.133.184,0.274,0.269,0.418s0.165,0.3.228,0.444a4.748,4.748,0,0,1,.188.466,4.677,4.677,0,0,1,.151.481c0.044,0.17.078,0.336,0.107,0.506s0.048,0.344.063,0.511a0.745,0.745,0,0,1-.686.791,0.736,0.736,0,0,1-.785-0.684,2.871,2.871,0,0,0-.044-0.381,3.722,3.722,0,0,0-.077-0.373c-0.033-.123-0.07-0.241-0.111-0.356s-0.085-.222-0.14-0.344-0.114-.229-0.169-0.325a3.457,3.457,0,0,0-.2-0.311c-0.062-.089-0.136-0.185-0.224-0.288-0.071-.085-0.155-0.178-0.247-0.27-0.107-.108-0.2-0.2-0.292-0.27s-0.2-.156-0.324-0.241c-0.1-.07-0.2-0.129-0.3-0.185-0.014-.007-0.033-0.014-0.048-0.022a3.37,3.37,0,0,0-.361-0.177,3.583,3.583,0,0,0-.383-0.141,3.889,3.889,0,0,0-.4-0.1h0Zm-4.113-7.379a2.282,2.282,0,1,0,0,3.226,2.291,2.291,0,0,0,0-3.226h0Z" transform="translate(-482 -372)"/>
</svg>
