<svg xmlns="http://www.w3.org/2000/svg" width="53" height="51" viewBox="0 0 53 51">
  <metadata><?xpacket begin="﻿" id="W5M0MpCehiHzreSzNTczkc9d"?>
<x:xmpmeta xmlns:x="adobe:ns:meta/" x:xmptk="Adobe XMP Core 5.6-c138 79.159824, 2016/09/14-01:09:01        ">
   <rdf:RDF xmlns:rdf="http://www.w3.org/1999/02/22-rdf-syntax-ns#">
      <rdf:Description rdf:about=""/>
   </rdf:RDF>
</x:xmpmeta>
                                                                                                    
                                                                                                    
                                                                                                    
                                                                                                    
                                                                                                    
                                                                                                    
                                                                                                    
                                                                                                    
                                                                                                    
                                                                                                    
                                                                                                    
                                                                                                    
                                                                                                    
                                                                                                    
                                                                                                    
                                                                                                    
                                                                                                    
                                                                                                    
                                                                                                    
                                                                                                    
                           
<?xpacket end="w"?></metadata>
<defs>
    <style>
      .cls-1 {
        fill: #2e77bc;
        fill-rule: evenodd;
      }
    </style>
  </defs>
  <path class="cls-1" d="M1020.08,815.128c0.54,0.074,1.08.147,1.61,0.221l0.59,0.115,1.38,0.262a0.679,0.679,0,0,0,.45.137c0.42,0.126.84,0.253,1.27,0.378l0.3,0.086,1.44,0.536c0.11,0.049.22,0.1,0.34,0.148,0.42,0.193.85,0.386,1.27,0.579l0.36,0.194c0.38,0.2.76,0.4,1.15,0.608,0.11,0.071.23,0.142,0.35,0.214,0.3,0.192.61,0.385,0.91,0.578,0.16,0.11.32,0.22,0.47,0.33,0.35,0.244.69,0.488,1.03,0.733l0.24,0.2c0.29,0.24.59,0.479,0.88,0.719,0.13,0.111.26,0.222,0.38,0.334a4.817,4.817,0,0,0,.83.785,0.891,0.891,0,0,0,.34.341,4.867,4.867,0,0,0,.79.825c0.11,0.127.23,0.254,0.34,0.381l0.72,0.877c0.1,0.131.21,0.263,0.31,0.394,0.21,0.291.42,0.583,0.62,0.874l0.33,0.463c0.2,0.307.39,0.614,0.59,0.921l0.21,0.349c0.21,0.383.41,0.765,0.61,1.148,0.07,0.117.13,0.234,0.2,0.351,0.18,0.393.35,0.786,0.53,1.178,0.08,0.2.17,0.395,0.26,0.592,0.13,0.369.27,0.738,0.4,1.106,0.06,0.158.11,0.317,0.17,0.475,0.14,0.456.27,0.911,0.4,1.367,0.04,0.117.07,0.234,0.11,0.352a8.575,8.575,0,0,0,.32,1.5c0.03,0.156.05,0.313,0.07,0.47,0.07,0.493.13,0.987,0.2,1.481a0.908,0.908,0,0,0,.08.584c0.01,0.535.03,1.07,0.05,1.605,0,0.194.01,0.389,0.02,0.584l-0.06,1.839c-0.02.194-.03,0.387-0.05,0.581a14.532,14.532,0,0,0-.25,1.857c-0.04.264-.09,0.528-0.14,0.792-0.18.727-.36,1.454-0.55,2.181l-0.27.93c-0.4.961-.79,1.922-1.19,2.882a5.993,5.993,0,0,0-.58,1.14,32.938,32.938,0,0,1-2.84,4.1,26.252,26.252,0,0,1-7.14,5.931,2.948,2.948,0,0,0-.28.193c-0.38.191-.76,0.381-1.13,0.572l-2.67,1.1a0.217,0.217,0,0,0-.23.1v0a1.411,1.411,0,0,0-.69.215c-0.81.2-1.62,0.407-2.42,0.611a1.152,1.152,0,0,0-.58.1l-2.08.263a0.9,0.9,0,0,0-.58.06l-1.84.053-0.47-.009-1.73-.09-0.47-.032-1.61-.222a1.414,1.414,0,0,0-.58-0.115l-1.38-.275a0.889,0.889,0,0,0-.44-0.142l-1.14-.319-0.51-.186a8.856,8.856,0,0,0-1.37-.489l-0.36-.189-1.14-.5-0.36-.2a5.833,5.833,0,0,0-1.22-.593,0.219,0.219,0,0,0-.2-0.16,5.763,5.763,0,0,0-1.08-.678,0.622,0.622,0,0,0-.34-0.229c-0.31-.228-0.63-0.456-0.94-0.685-0.15-.121-0.31-0.242-0.47-0.363-0.27-.224-0.54-0.447-0.8-0.67a1.316,1.316,0,0,0-.46-0.388c-0.27-.257-0.539-0.513-0.811-0.77l-0.354-.355-0.769-.816c-0.129-.151-0.259-0.3-0.389-0.452a3.913,3.913,0,0,0-.67-0.8l-0.256-.329a5.222,5.222,0,0,0-.793-1.081c-0.041-.062-0.082-0.125-0.122-0.188a2.551,2.551,0,0,0-.828-1.132h-0.58l-1.726-.129-0.441-.166-1.04-.586-0.222-.183-0.738-.909-0.215-.348a6.667,6.667,0,0,1-.37-1.38c-0.012-.194-0.023-0.388-0.035-0.583a8.975,8.975,0,0,0,.008-1.719A1.175,1.175,0,0,0,990,846.95a8.816,8.816,0,0,0,.009-1.719,1.175,1.175,0,0,0-.009-0.586,8.816,8.816,0,0,0,.009-1.719A1.175,1.175,0,0,0,990,842.34a8.826,8.826,0,0,0,.009-1.72,1.175,1.175,0,0,0-.009-0.586,8.815,8.815,0,0,0,.009-1.719,1.175,1.175,0,0,0-.009-0.586,8.816,8.816,0,0,0,.009-1.719,1.175,1.175,0,0,0-.009-0.586,8.816,8.816,0,0,0,.009-1.719,1.175,1.175,0,0,0-.009-0.586,10.3,10.3,0,0,0,.019-1.721l0.036-.581a4.4,4.4,0,0,1,3.356-3.311l0.46-.039a2.166,2.166,0,0,0,2.477-1.232,24.183,24.183,0,0,1,8.2-7.734c0.18-.106.35-0.226,0.53-0.34a5.8,5.8,0,0,0,1.14-.587c1.01-.416,2.01-0.832,3.02-1.248a2.412,2.412,0,0,0,.79-0.253l2.31-.589a0.971,0.971,0,0,0,.58-0.1l2.08-.269a0.969,0.969,0,0,0,.58-0.055l1.84-.061,0.47,0.009,1.72,0.086Zm-3.39,8.086c0-.2,0-0.389-0.01-0.584a9.9,9.9,0,0,0,.01-1.722c0-.194,0-0.388-0.01-0.583a9.891,9.891,0,0,0,.01-1.721c0-.194,0-0.389-0.01-0.584,0.01-.265.01-0.534,0.04-0.8,0.08-.573-0.17-0.719-0.68-0.548a1.5,1.5,0,0,0-.69.185,3.664,3.664,0,0,0-1.25.419c-3.28,1.609-5.32,4.352-6.88,7.538a4.151,4.151,0,0,0-.53,1.161,3.311,3.311,0,0,0-.21.4c-0.41,1.194-.78,1.13.78,1.072l0.47,0,1.84,0,0.47,0c0.57,0,1.15-.006,1.73.022,0.35,0.018.49-.1,0.45-0.456a3.493,3.493,0,0,1,.49-2.092c0.22-.221.45-0.442,0.67-0.663a4.179,4.179,0,0,1,2.19-.5l0.59,0.109c0.44,0.243.63,0.119,0.56-.384A2.707,2.707,0,0,1,1016.69,823.214ZM1015.58,852c1.3,0.013,1.16.257,1.11-1.125,0-.194,0-0.389-0.01-0.583a9.891,9.891,0,0,0,.01-1.721c0-.2,0-0.389-0.01-0.584a9.892,9.892,0,0,0,.01-1.721c0-.2-0.01-0.39-0.01-0.585a9.88,9.88,0,0,0,.01-1.72c0-.195,0-0.39-0.01-0.585a9.881,9.881,0,0,0,.01-1.72c0-.2,0-0.39-0.01-0.585,0.12-1.2.12-1.2-.87-1.131l-0.47,0a7.381,7.381,0,0,0-2.07.088,0.183,0.183,0,0,0-.24-0.088l-1.84,0-0.47,0-1.84,0-0.47,0-1.84,0-0.47,0-1.84,0-0.46,0-1.85,0-0.46,0-1.846,0-0.468,0-1.841,0-0.468,0-1.841,0-0.468,0-1.842,0c-1.378-.043-1.2-0.231-1.149,1.137l-0.006,1.842,0.006,0.463-0.006,1.843,0.006,0.462q0,0.923-.007,1.843c0,0.154,0,.308.007,0.463a10.33,10.33,0,0,0,.014,1.836,0.5,0.5,0,0,0,.111.354,1.841,1.841,0,0,0,.784,1.167,0.523,0.523,0,0,0,.331.252,1.961,1.961,0,0,0,1.4.39L994.8,852l1.726-.008L997.1,852l1.726-.008L999.413,852l1.727-.008,0.58,0.008,1.73-.008,0.58,0.008,1.73-.008,0.58,0.008,1.73-.008,0.58,0.008,1.73-.008,0.58,0.008,1.73-.008,0.58,0.008,1.73-.008Zm-0.23-13.6c1.45,0.011,1.27.292,1.22-1.235a1.284,1.284,0,0,0-.01-0.585,8.985,8.985,0,0,0,.01-1.72c-0.01-.225.21-0.593-0.31-0.515a6.876,6.876,0,0,0-1.72.012,0.916,0.916,0,0,0-.59-0.012,6.786,6.786,0,0,0-1.72.013,0.9,0.9,0,0,0-.59-0.012,6.878,6.878,0,0,0-1.72.01,0.923,0.923,0,0,0-.59-0.011,6.879,6.879,0,0,0-1.72.012,0.909,0.909,0,0,0-.59-0.011,6.694,6.694,0,0,0-1.72.012,0.9,0.9,0,0,0-.59-0.012,6.75,6.75,0,0,0-1.71.011,0.919,0.919,0,0,0-.59-0.012,6.825,6.825,0,0,0-1.72.012,0.919,0.919,0,0,0-.59-0.012,6.85,6.85,0,0,0-1.723.012,0.917,0.917,0,0,0-.59-0.012,6.828,6.828,0,0,0-1.72.012,0.917,0.917,0,0,0-.59-0.012,6.82,6.82,0,0,0-1.719.012,0.917,0.917,0,0,0-.59-0.012c-1.658-.185-1.658-0.185-1.627,1.437,0,0.076.013,0.151,0.02,0.226l0.006,0.463v1.839a0.82,0.82,0,0,0,.687.09l1.727-.007,0.583,0.007,1.726-.007,0.583,0.007,1.726-.007,0.584,0.007,1.727-.007,0.58,0.007,1.73-.008,0.58,0.008,1.73-.007,0.58,0.007,1.73-.007,0.58,0.007,1.73-.007,0.58,0.007,1.73-.008,0.58,0.008,1.72-.008Zm-15.943,15.141h-2.088a6.14,6.14,0,0,0,.922,1.287,0.539,0.539,0,0,0,.238.326,3.9,3.9,0,0,0,.794.955,0.531,0.531,0,0,0,.249.307,4.292,4.292,0,0,0,.778.821l0.36,0.36c0.27,0.259.55,0.518,0.82,0.777a0.535,0.535,0,0,0,.3.252,5.233,5.233,0,0,0,.96.793,0.508,0.508,0,0,0,.33.237,4.106,4.106,0,0,0,.93.685,0.7,0.7,0,0,0,.41.257,4.248,4.248,0,0,0,1.09.673c0.16,0.1.33,0.195,0.5,0.293a4.081,4.081,0,0,0,1.01.5,14.444,14.444,0,0,0,3.86,1.454,31.445,31.445,0,0,1-2.55-2.629c-0.26-.362-0.53-0.725-0.8-1.087l-0.12-.176a6.256,6.256,0,0,0-.71-1.149l-0.21-.354a5.548,5.548,0,0,0-.6-1.144,0.836,0.836,0,0,0-.23-0.466c-0.16-.379-0.33-0.758-0.49-1.137l-0.18-.365a5.693,5.693,0,0,0-.48-1.261c-0.04-.335-0.29-0.21-0.47-0.214l-1.85,0-0.46,0-1.844,0Zm-5.535-24.515a2.519,2.519,0,0,0-2.3,2.369v0.465c-0.072.97-.072,0.971,0.866,0.945,0.094,0,.187-0.016.28-0.025l0.46,0.008,1.849-.008,0.46,0.008,1.85-.008,0.46,0.008,1.849-.008,0.459,0.008,1.85-.008,0.46,0.008,1.85-.007,0.46,0.007,1.85-.007,0.46,0.007,1.85-.007,0.46,0.007,1.85-.007,0.46,0.007,1.85-.007,0.46,0.007,1.85-.007c0.97,0.03.97,0.03,0.87-.927a9.881,9.881,0,0,0,.01-1.72c0-.195,0-0.39-0.01-0.585,0.13-.444-0.03-0.624-0.49-0.572-0.32.035-.64,0.022-0.96,0.031l-0.58-.008-1.73.008-0.58-.007-1.73.007-0.58-.007-1.72.007-0.59-.007-1.72.007-0.59-.007-1.72.007L1003.1,829l-1.72.007-0.59-.007-1.722.007L998.485,829l-1.726.007L996.176,829l-1.727.007A1.108,1.108,0,0,0,993.872,829.023Zm11.778-4.546a0.251,0.251,0,0,0,.11-0.228,33.251,33.251,0,0,1,2.48-4.023,31.739,31.739,0,0,1,2.51-2.637c0.05-.029.09-0.057,0.14-0.086a0.113,0.113,0,0,0-.19.027,4.115,4.115,0,0,0-1.12.332,14.737,14.737,0,0,0-3.02,1.3,4.191,4.191,0,0,0-1.04.543c-0.08.052-.15,0.1-0.23,0.156v-0.009a22.611,22.611,0,0,0-6.108,5.092,15.65,15.65,0,0,0-1.848,2.512h0.689l0.469,0,1.838,0,0.47,0,1.84,0,0.47,0c0.27,0.006.53-.006,0.79,0.024a0.589,0.589,0,0,0,.74-0.488c0.14-.506.36-0.989,0.55-1.482,0.15-.346.3-0.691,0.46-1.037h0Zm8.32,30.658a0.336,0.336,0,0,0,.22.235,1.593,1.593,0,0,0,1.77.191,1.344,1.344,0,0,0,.77-1.361c0.02-.538-0.1-0.816-0.69-0.657l-0.47,0c-0.49-.007-0.99-0.016-1.49-0.018-0.14,0-.34-0.029-0.34.191A1.92,1.92,0,0,0,1013.97,855.135Zm5.87-38.227a5.555,5.555,0,0,0-1.22-.284,0.3,0.3,0,0,0-.4.373c0.01,0.534.01,1.068,0.02,1.6v20.747c-0.02.24-.09,0.537,0.34,0.367l1.73-.007a0.614,0.614,0,0,0,.58.007l1.73-.006a0.614,0.614,0,0,0,.58.006l1.72-.007a0.635,0.635,0,0,0,.59.007l1.72-.007a0.719,0.719,0,0,0,.6.016c0.57,0.126,1.15-.105,1.72.067,1.64,0.025,1.69-.035,1.42-1.483a8.582,8.582,0,0,0-.11-1.6,0.946,0.946,0,0,0-.05-0.472,6.8,6.8,0,0,0-.21-1.619c-0.01-.152-0.03-0.3-0.04-0.457-0.09-.469-0.17-0.939-0.25-1.409-0.05-.187-0.09-0.375-0.13-0.562l-0.3-1.367c-0.04-.155-0.09-0.31-0.13-0.465-0.12-.431-0.25-0.862-0.37-1.293a0.87,0.87,0,0,0-.17-0.436,5.252,5.252,0,0,0-.43-1.283,1.457,1.457,0,0,0-.24-0.6,4.108,4.108,0,0,0-.48-1.116,1.073,1.073,0,0,0-.22-0.486,4.682,4.682,0,0,0-.5-1,0.61,0.61,0,0,0-.21-0.349,4.36,4.36,0,0,0-.68-1.162c-0.08-.114-0.15-0.228-0.23-0.342a4.558,4.558,0,0,0-.79-1.107l-0.24-.309a3.848,3.848,0,0,0-.82-0.929c-0.07-.068-0.13-0.135-0.2-0.2a3.9,3.9,0,0,0-.83-0.8,1.357,1.357,0,0,0-.46-0.378,3.485,3.485,0,0,0-.94-0.653,1.02,1.02,0,0,0-.45-0.262,3.672,3.672,0,0,0-1.18-.54A0.945,0.945,0,0,0,1019.84,816.908Zm-3.15,45.5c0-.2,0-0.39-0.01-0.585a9.891,9.891,0,0,0,.01-1.721c0-.194,0-0.389-0.01-0.584a9.891,9.891,0,0,0,.01-1.721c0-.2-0.01-0.39-0.01-0.584,0.04-.185-0.04-0.277-0.21-0.206a5.373,5.373,0,0,1-1.82.215c-0.11-.032-0.23-0.064-0.35-0.1l-1.02-.49c-0.16-.153-0.32-0.307-0.47-0.46l-0.48-.917-0.12-.465c0-.17.01-0.34,0.01-0.509,0-.791,0-0.791-0.8-0.738l-0.47,0-1.84,0-0.47,0c-0.74-.006-1.48-0.007-2.22-0.018-0.24,0-.37.042-0.25,0.321a9.954,9.954,0,0,0,.74,1.653c0.03,0.076.07,0.152,0.1,0.229a5.014,5.014,0,0,0,.57,1.159,1,1,0,0,0,.26.451,3.866,3.866,0,0,0,.66,1.09l0.12,0.181a4.032,4.032,0,0,0,.71,1.034l0.36,0.451a3.339,3.339,0,0,0,.7.81,1.3,1.3,0,0,0,.45.469,2.582,2.582,0,0,0,.78.7c0.12,0.108.25,0.215,0.38,0.323a3.762,3.762,0,0,0,1.03.707c0.12,0.072.24,0.144,0.35,0.216a3.218,3.218,0,0,0,1.27.579,0.947,0.947,0,0,0,.47.2,3.507,3.507,0,0,0,1.27.254c0.28,0.165.35,0.052,0.29-.231A9.881,9.881,0,0,0,1016.69,862.4Zm24.73-22.944a6.686,6.686,0,0,0-.11-1.61,0.837,0.837,0,0,0-.09-0.58,5.064,5.064,0,0,0-.25-1.494,0.558,0.558,0,0,0-.1-0.466,5.672,5.672,0,0,0-.3-1.286,0.8,0.8,0,0,0-.16-0.443,4.568,4.568,0,0,0-.45-1.392c-0.04-.112-0.09-0.223-0.13-0.335a7,7,0,0,0-.5-1.262,0.674,0.674,0,0,0-.2-0.351,4.345,4.345,0,0,0-.67-1.312c-0.04-.064-0.07-0.128-0.11-0.193a4.36,4.36,0,0,0-.69-1.159,0.6,0.6,0,0,0-.23-0.343,4.806,4.806,0,0,0-.72-1.029c-0.06-.079-0.13-0.159-0.2-0.238a3.958,3.958,0,0,0-.83-1.035l-0.33-.379a2.789,2.789,0,0,0-.72-0.769,1.3,1.3,0,0,0-.46-0.459,3.338,3.338,0,0,0-.77-0.713c-0.13-.111-0.26-0.221-0.38-0.332a5.248,5.248,0,0,0-1.04-.833l-0.24-.188a4.481,4.481,0,0,0-1.03-.719,0.549,0.549,0,0,0-.35-0.224,4.025,4.025,0,0,0-1.16-.688,0.579,0.579,0,0,0-.35-0.208,4.207,4.207,0,0,0-1.15-.572l-0.33-.156a11.085,11.085,0,0,0-3.11-1.091c0.72,0.7,1.37,1.436,2.04,2.159,0.07,0.079.14,0.157,0.2,0.235l0.75,1.025,0.33,0.474c0.22,0.356.45,0.712,0.68,1.068a1.919,1.919,0,0,0,.11.195,6.413,6.413,0,0,0,.69,1.305,0.363,0.363,0,0,0,.15.3c0.17,0.393.35,0.786,0.52,1.179a0.51,0.51,0,0,0,.16.323,6.688,6.688,0,0,0,.55,1.435c0.03,0.1.07,0.205,0.1,0.307,0.15,0.48.31,0.96,0.47,1.44l0.06,0.276c0.12,0.459.24,0.918,0.35,1.377,0.05,0.16.09,0.32,0.14,0.48,0.1,0.493.2,0.986,0.31,1.479a0.413,0.413,0,0,0,.08.355,8.78,8.78,0,0,0,.25,1.611c0.01,0.153.03,0.307,0.04,0.461,0.06,0.538.13,1.075,0.19,1.613l0.03,0.461c0.03,0.575.06,1.149,0.1,1.724,0,0.155.01,0.311,0.01,0.466-0.06.269,0.04,0.394,0.33,0.381,0.42-.019.84-0.017,1.26-0.024a0.615,0.615,0,0,0,.58.006l1.73-.007a0.612,0.612,0,0,0,.58.007l1.73-.007a0.615,0.615,0,0,0,.58.007l1.73-.007C1041.36,839.834,1041.48,839.763,1041.42,839.46Zm-25.15-13.805a0.508,0.508,0,0,0-.35-0.235c-1.38-.475-2.23.173-2.21,1.641,0.01,0.38.14,0.475,0.48,0.395l0.47,0c0.55,0.006,1.1.017,1.65,0.014,0.16,0,.39.052,0.39-0.205A1.665,1.665,0,0,0,1016.27,825.655Zm16.3,16c-0.03.613-.07,1.226-0.1,1.839a2.078,2.078,0,0,0-.13.7,15.924,15.924,0,0,1-.12,1.953,1.3,1.3,0,0,0-.09.585c-0.11.657-.23,1.313-0.34,1.97a2.159,2.159,0,0,0-.15.8l-0.63,2.416a1.419,1.419,0,0,0-.19.694c-0.35.922-.7,1.844-1.04,2.766a4.417,4.417,0,0,0-.46,1.038,35.066,35.066,0,0,1-2.48,4.139,27.621,27.621,0,0,1-2.59,2.836,1.225,1.225,0,0,0,.8-0.165,13.6,13.6,0,0,0,2.88-1.169,0.231,0.231,0,0,0,.23-0.112c0.04-.023.09-0.046,0.14-0.07a4,4,0,0,0,.91-0.487c0.07-.042.15-0.085,0.23-0.127v0a20.628,20.628,0,0,0,4.19-3.036,21.967,21.967,0,0,0,4.59-5.721v0c0.04-.077.09-0.154,0.14-0.232a3.243,3.243,0,0,0,.55-1.042,14.163,14.163,0,0,0,1.26-3,1.757,1.757,0,0,0,.24-0.8,9.7,9.7,0,0,0,.61-2.424,1.044,1.044,0,0,0,.09-0.577,9.076,9.076,0,0,0,.27-2.076,1.256,1.256,0,0,0,.04-0.578c0.08-.349-0.01-0.532-0.41-0.5-0.35.029-.71,0.019-1.06,0.027a0.635,0.635,0,0,0-.59-0.007,9.059,9.059,0,0,0-1.84.043l-0.46-.039a7.679,7.679,0,0,0-1.85.039l-0.46-.039-1.73,0C1032.64,841.133,1032.5,841.264,1032.57,841.655Zm-11.67-.365c-0.77,0-1.53,0-2.29-.02a0.32,0.32,0,0,0-.39.4c0.02,0.762.01,1.524,0.02,2.285v18.907a7.649,7.649,0,0,1-.03.958c-0.06.491,0.13,0.653,0.6,0.512l0.69-.161a5.807,5.807,0,0,0,1.88-.725,15.918,15.918,0,0,0,6.36-7.379,4.538,4.538,0,0,0,.53-1.162,15.515,15.515,0,0,0,1.07-2.879,1.685,1.685,0,0,0,.2-0.694,12.625,12.625,0,0,0,.62-2.418,1.138,1.138,0,0,0,.1-0.576,11.67,11.67,0,0,0,.39-2.193,1.13,1.13,0,0,0,.05-0.576,11.081,11.081,0,0,0,.22-2.07c0.01-.155.01-0.31,0.01-0.465a7.592,7.592,0,0,0,.12-1.345c0.02-.376-0.13-0.471-0.46-0.392l-0.46-.008-1.85.009-0.46-.009-1.85.008-0.46-.008-1.85.008-0.46-.008-1.85.008Zm3.17-23.763,0.02-.027-0.03,0Zm0.01,45.941-0.03.032,0.04,0.006Zm-22.82-13.636-0.46-.008-1.85.007-0.461-.007-1.849.007-0.46-.008a1.041,1.041,0,0,1-1.019-.613c0.006-.133.013-0.265,0.019-0.4l0.419-.48,0.584-.073a5.986,5.986,0,0,0,1.722-.009,0.822,0.822,0,0,0,.592.009,5.992,5.992,0,0,0,1.723-.01,0.827,0.827,0,0,0,.59.011,8.167,8.167,0,0,0,1.72.017h2.89a1.612,1.612,0,0,1,1.21.316c0.05,0.107.11,0.213,0.16,0.319a0.927,0.927,0,0,1-.91.918l-0.46-.008-1.85.008-0.46-.008Zm-5.627-3.356-0.372-.342a0.8,0.8,0,0,1,.868-1.134c0.169,0,.339-0.016.508-0.024l0.466,0,1.844,0,0.465,0,1.848,0,0.46,0a1.115,1.115,0,0,1,1.12.488c0.02,0.15.03,0.3,0.05,0.452a1.146,1.146,0,0,1-.59.591l-0.58.006-1.728.008-0.583-.008-1.727.008-0.582-.008Z" transform="translate(-990 -815)"/>
</svg>
