<svg xmlns="http://www.w3.org/2000/svg" width="14" height="18" viewBox="0 0 14 18">
  <metadata><?xpacket begin="﻿" id="W5M0MpCehiHzreSzNTczkc9d"?>
<x:xmpmeta xmlns:x="adobe:ns:meta/" x:xmptk="Adobe XMP Core 5.6-c138 79.159824, 2016/09/14-01:09:01        ">
   <rdf:RDF xmlns:rdf="http://www.w3.org/1999/02/22-rdf-syntax-ns#">
      <rdf:Description rdf:about=""/>
   </rdf:RDF>
</x:xmpmeta>
                                                                                                    
                                                                                                    
                                                                                                    
                                                                                                    
                                                                                                    
                                                                                                    
                                                                                                    
                                                                                                    
                                                                                                    
                                                                                                    
                                                                                                    
                                                                                                    
                                                                                                    
                                                                                                    
                                                                                                    
                                                                                                    
                                                                                                    
                                                                                                    
                                                                                                    
                                                                                                    
                           
<?xpacket end="w"?></metadata>
<defs>
    <style>
      .cls-1 {
        fill: #ffa100;
        fill-rule: evenodd;
      }
    </style>
  </defs>
  <path id="Shape_8_copy_2" data-name="Shape 8 copy 2" class="cls-1" d="M312.157,671.668c-0.452,0-.856.007-1.259,0A1.949,1.949,0,0,1,309,669.658c-0.007-5.437-.006-5.19,0-10.627A1.951,1.951,0,0,1,310.941,657c3.663-.007,3.286-0.007,6.949,0a1.96,1.96,0,0,1,1.948,2.047c0,0.413,0,.826,0,1.271,0.387,0,.75,0,1.114,0A1.977,1.977,0,0,1,323,662.481c0,4.558,0,3.431,0,7.988a0.8,0.8,0,0,1-.237.6q-1.772,1.846-3.527,3.711a0.625,0.625,0,0,1-.5.215c-2.865,0-1.689,0-4.554,0a1.967,1.967,0,0,1-2.029-2.139C312.156,672.468,312.157,672.085,312.157,671.668Zm9.426-1.845c0-.11.01-0.179,0.01-0.247,0-4.26,0-2.835,0-7.1a0.621,0.621,0,0,0-.712-0.733c-3.569,0-3.1,0-6.665,0a0.627,0.627,0,0,0-.7.742v10.356a0.643,0.643,0,0,0,.736.773h3.74c0-.979,0-1.917,0-2.855a0.771,0.771,0,0,1,.9-0.941h2.7Zm-3.176-9.5a0.517,0.517,0,0,0,.026-0.093c0-.336,0-0.672,0-1.008a0.648,0.648,0,0,0-.766-0.8h-6.526a0.668,0.668,0,0,0-.79.834v6.617c0,1.483,0,2.231,0,3.713a0.609,0.609,0,0,0,.516.695c0.419,0.026.84,0.006,1.286,0.006v-0.279c0-4.389,0-3.095,0-7.483a1.987,1.987,0,0,1,2.084-2.205h4.166Zm0.993,12.183,1.2-1.239h-1.2v1.239Z" transform="translate(-309 -657)"/>
</svg>
