<svg xmlns="http://www.w3.org/2000/svg" width="38.437" height="25.656" viewBox="0 0 38.437 25.656">
  <metadata><?xpacket begin="﻿" id="W5M0MpCehiHzreSzNTczkc9d"?>
<x:xmpmeta xmlns:x="adobe:ns:meta/" x:xmptk="Adobe XMP Core 5.6-c138 79.159824, 2016/09/14-01:09:01        ">
   <rdf:RDF xmlns:rdf="http://www.w3.org/1999/02/22-rdf-syntax-ns#">
      <rdf:Description rdf:about=""/>
   </rdf:RDF>
</x:xmpmeta>
                                                                                                    
                                                                                                    
                                                                                                    
                                                                                                    
                                                                                                    
                                                                                                    
                                                                                                    
                                                                                                    
                                                                                                    
                                                                                                    
                                                                                                    
                                                                                                    
                                                                                                    
                                                                                                    
                                                                                                    
                                                                                                    
                                                                                                    
                                                                                                    
                                                                                                    
                                                                                                    
                           
<?xpacket end="w"?></metadata>
<defs>
    <style>
      .cls-1 {
        fill: #ffc5a8;
        fill-rule: evenodd;
      }
    </style>
  </defs>
  <path id="icon_group_invited" class="cls-1" d="M962.262,648.8a1.348,1.348,0,0,1-1.046-1.594,1.324,1.324,0,0,1,.493-0.793,6.137,6.137,0,0,1-.986.081,6.211,6.211,0,0,1-1.214-.129,5.587,5.587,0,0,1-1.174-.366,1.348,1.348,0,0,1,1.039-2.488,2.936,2.936,0,0,0,.661.2,3.55,3.55,0,0,0,1.383,0,2.928,2.928,0,0,0,.662-0.2,3.866,3.866,0,0,0,.58-0.319,3.822,3.822,0,0,0,.513-0.427,4.016,4.016,0,0,0,.432-0.522,3.569,3.569,0,0,0,.317-0.584,3.67,3.67,0,0,0,.2-0.657,3.5,3.5,0,0,0-.519-2.645,3.891,3.891,0,0,0-.432-0.515,3.359,3.359,0,0,0-.513-0.427,3.319,3.319,0,0,0-.58-0.326,3.7,3.7,0,0,0-.662-0.2,3.552,3.552,0,0,0-.7-0.061,4.074,4.074,0,0,0-.533.033,3.175,3.175,0,0,0-.519.122,1.332,1.332,0,0,1-1.168-.176,7.04,7.04,0,0,1,.142,1.424,6.877,6.877,0,0,1-5.02,6.645,11.242,11.242,0,0,1,2.6.74A11.522,11.522,0,0,1,960,648.143a11.767,11.767,0,0,1,2.349,3.4,11.627,11.627,0,0,1,1.019,4,1.347,1.347,0,1,1-2.686.2,9.014,9.014,0,0,0-5.479-7.635,8.94,8.94,0,0,0-12.315,7.635,1.347,1.347,0,1,1-2.686-.2,11.719,11.719,0,0,1,3.367-7.4,11.527,11.527,0,0,1,3.779-2.529,11.228,11.228,0,0,1,2.6-.74,6.9,6.9,0,0,1-5.021-6.645,6.735,6.735,0,0,1,.129-1.342,1.327,1.327,0,0,1-1.1.115,2.938,2.938,0,0,0-.547-0.136,3.967,3.967,0,0,0-1.255.021,3.475,3.475,0,0,0-.654.2,3.139,3.139,0,0,0-.588.326,3.52,3.52,0,0,0-.512.42h0l-0.007.007a3.551,3.551,0,0,0-.418.515,3.139,3.139,0,0,0-.324.59,3.658,3.658,0,0,0-.2.658,4.1,4.1,0,0,0,0,1.4,3.673,3.673,0,0,0,.2.657,3.1,3.1,0,0,0,.324.584,3.408,3.408,0,0,0,.425.522h0a3.2,3.2,0,0,0,.512.427,3.616,3.616,0,0,0,.588.319,2.775,2.775,0,0,0,.654.2,3.586,3.586,0,0,0,1.39,0,2.888,2.888,0,0,0,.655-0.2A1.349,1.349,0,0,1,945.244,646a5.738,5.738,0,0,1-1.174.366,6.3,6.3,0,0,1-1.222.129,5.975,5.975,0,0,1-.978-0.081,1.355,1.355,0,0,1-.56,2.387,6.987,6.987,0,0,0-.729.19,6.426,6.426,0,0,0-.7.257,7.213,7.213,0,0,0-.661.326v-0.007q-0.294.162-.628,0.386c-0.223.156-.418,0.3-0.594,0.441-0.155.136-.337,0.3-0.533,0.5-0.168.17-.323,0.339-0.452,0.5-0.162.19-.3,0.366-0.411,0.529a5.991,5.991,0,0,0-.358.57c-0.1.176-.2,0.372-0.3,0.6a5.77,5.77,0,0,0-.263.63c-0.074.2-.142,0.427-0.2,0.651s-0.1.448-.142,0.685c-0.034.217-.061,0.447-0.081,0.7a1.347,1.347,0,1,1-2.686-.2c0.021-.3.054-0.617,0.108-0.936s0.115-.617.2-0.929c0.081-.292.169-0.59,0.277-0.882a8.612,8.612,0,0,1,.344-0.854q0.181-.387.425-0.814a7.991,7.991,0,0,1,.486-0.766c0.189-.271.371-0.509,0.546-0.719a7.536,7.536,0,0,1,.608-0.671c0.209-.21.458-0.434,0.735-0.671s0.54-.421.79-0.6,0.54-.346.857-0.515h0v-0.007a9.427,9.427,0,0,1,.9-0.427,9.038,9.038,0,0,1,.958-0.353,8.6,8.6,0,0,1,.979-0.251c0.013-.007.034-0.007,0.047-0.013-0.121-.041-0.243-0.089-0.364-0.143a5.487,5.487,0,0,1-1.046-.563,6.4,6.4,0,0,1-.918-0.759h0a6.611,6.611,0,0,1-.756-0.916,6.7,6.7,0,0,1-.56-1.051,6.867,6.867,0,0,1-.364-1.179,6.236,6.236,0,0,1,0-2.455,6.381,6.381,0,0,1,.924-2.231,6.364,6.364,0,0,1,.756-0.915h0l0.007-.007h0a5.563,5.563,0,0,1,.911-0.753,5.928,5.928,0,0,1,1.046-.57,6.086,6.086,0,0,1,1.174-.359,5.8,5.8,0,0,1,1.221-.129,6.27,6.27,0,0,1,.992.082,5.909,5.909,0,0,1,.972.244,1.344,1.344,0,0,1,.81.759,6.959,6.959,0,0,1,1.316-1.844,6.834,6.834,0,0,1,9.7,0,6.958,6.958,0,0,1,1.343,1.919,1.346,1.346,0,0,1,.87-0.861,6.083,6.083,0,0,1,.925-0.224,6.76,6.76,0,0,1,.944-0.075,5.816,5.816,0,0,1,1.222.129,6.107,6.107,0,0,1,1.174.359,5.756,5.756,0,0,1,1.046.57,5.849,5.849,0,0,1,.917.753,6.187,6.187,0,0,1,.756.922,6.751,6.751,0,0,1,.561,1.051,6.154,6.154,0,0,1,.364,1.18,5.95,5.95,0,0,1,0,2.455,6.3,6.3,0,0,1-.364,1.179,6.706,6.706,0,0,1-.561,1.051,6.087,6.087,0,0,1-.756.916,5.827,5.827,0,0,1-.917.759,5.34,5.34,0,0,1-1.046.563,3.028,3.028,0,0,1-.364.143,0.307,0.307,0,0,1,.047.013,9.977,9.977,0,0,1,1.936.6c0.338,0.142.641,0.285,0.9,0.427l0.1,0.061c0.27,0.156.52,0.3,0.749,0.461,0.256,0.176.519,0.373,0.789,0.6s0.527,0.461.736,0.671a7.532,7.532,0,0,1,.607.671,7.361,7.361,0,0,1,.547.719c0.175,0.244.337,0.5,0.492,0.766,0.162,0.285.3,0.556,0.419,0.814a8.863,8.863,0,0,1,.344.854,9.054,9.054,0,0,1,.277.882c0.081,0.312.141,0.617,0.2,0.929s0.088,0.631.115,0.936A1.366,1.366,0,0,1,969.759,657a1.348,1.348,0,0,1-1.437-1.255,5.533,5.533,0,0,0-.081-0.7,6.9,6.9,0,0,0-.142-0.685c-0.061-.224-0.128-0.441-0.2-0.651-0.067-.19-0.155-0.407-0.256-0.63s-0.209-.421-0.31-0.6a6.2,6.2,0,0,0-.358-0.57c-0.115-.163-0.25-0.339-0.412-0.529-0.128-.156-0.283-0.325-0.452-0.5-0.2-.2-0.371-0.359-0.533-0.5s-0.371-.285-0.594-0.441c-0.189-.129-0.364-0.237-0.54-0.339l-0.087-.04a6.631,6.631,0,0,0-.661-0.326,6.5,6.5,0,0,0-.7-0.257,6.987,6.987,0,0,0-.729-0.19h0Zm-7.531-13.528a4.163,4.163,0,0,0-7.105,2.956,4.177,4.177,0,0,0,1.221,2.957,4.141,4.141,0,0,0,5.884,0,4.2,4.2,0,0,0,0-5.913h0Zm0,0a4.163,4.163,0,0,0-7.105,2.956,4.177,4.177,0,0,0,1.221,2.957,4.141,4.141,0,0,0,5.884,0,4.2,4.2,0,0,0,0-5.913h0Z" transform="translate(-932.563 -631.344)"/>
</svg>
