<svg xmlns="http://www.w3.org/2000/svg" width="39" height="35.969" viewBox="0 0 39 35.969">
  <metadata><?xpacket begin="﻿" id="W5M0MpCehiHzreSzNTczkc9d"?>
<x:xmpmeta xmlns:x="adobe:ns:meta/" x:xmptk="Adobe XMP Core 5.6-c138 79.159824, 2016/09/14-01:09:01        ">
   <rdf:RDF xmlns:rdf="http://www.w3.org/1999/02/22-rdf-syntax-ns#">
      <rdf:Description rdf:about=""/>
   </rdf:RDF>
</x:xmpmeta>
                                                                                                    
                                                                                                    
                                                                                                    
                                                                                                    
                                                                                                    
                                                                                                    
                                                                                                    
                                                                                                    
                                                                                                    
                                                                                                    
                                                                                                    
                                                                                                    
                                                                                                    
                                                                                                    
                                                                                                    
                                                                                                    
                                                                                                    
                                                                                                    
                                                                                                    
                                                                                                    
                           
<?xpacket end="w"?></metadata>
<defs>
    <style>
      .cls-1 {
        fill: #ffa100;
        fill-rule: evenodd;
      }
    </style>
  </defs>
  <path class="cls-1" d="M893.409,381.561a1.914,1.914,0,0,1,0,2.8,2.169,2.169,0,0,1-2.952,0l-4.652-4.417a1.916,1.916,0,0,1,0-2.8l4.652-4.408a2.151,2.151,0,0,1,2.952,0,1.9,1.9,0,0,1,0,2.793l-1.085,1.04h7.354a10.4,10.4,0,0,0,7.176-2.842,9.356,9.356,0,0,0,2.983-6.815,9.111,9.111,0,0,0-1.032-4.239,9.825,9.825,0,0,0-2.931-3.407,1.908,1.908,0,0,1-.376-2.774,2.15,2.15,0,0,1,2.91-.356,14.1,14.1,0,0,1,4.131,4.784,12.911,12.911,0,0,1,1.471,5.992,13.243,13.243,0,0,1-4.2,9.618,14.693,14.693,0,0,1-10.128,4h-7.354Zm-10.264-6.933a1.9,1.9,0,0,1,.376,2.763,2.144,2.144,0,0,1-2.921.357,13.836,13.836,0,0,1-4.12-4.774A12.919,12.919,0,0,1,875,366.982a13.235,13.235,0,0,1,4.214-9.618,14.693,14.693,0,0,1,10.128-4H896.7l-1.085-1.041a1.887,1.887,0,0,1,0-2.793,2.157,2.157,0,0,1,2.941,0l4.653,4.418a1.9,1.9,0,0,1,0,2.793l-4.653,4.418a2.157,2.157,0,0,1-2.941,0,1.9,1.9,0,0,1,0-2.8l1.085-1.03h-7.354a10.418,10.418,0,0,0-7.176,2.833,9.4,9.4,0,0,0-2.994,6.825,9.235,9.235,0,0,0,1.033,4.239,9.96,9.96,0,0,0,2.941,3.407h0Z" transform="translate(-875 -348.969)"/>
</svg>
