<svg xmlns="http://www.w3.org/2000/svg" width="53" height="51" viewBox="0 0 53 51">
  <metadata><?xpacket begin="﻿" id="W5M0MpCehiHzreSzNTczkc9d"?>
<x:xmpmeta xmlns:x="adobe:ns:meta/" x:xmptk="Adobe XMP Core 5.6-c138 79.159824, 2016/09/14-01:09:01        ">
   <rdf:RDF xmlns:rdf="http://www.w3.org/1999/02/22-rdf-syntax-ns#">
      <rdf:Description rdf:about=""/>
   </rdf:RDF>
</x:xmpmeta>
                                                                                                    
                                                                                                    
                                                                                                    
                                                                                                    
                                                                                                    
                                                                                                    
                                                                                                    
                                                                                                    
                                                                                                    
                                                                                                    
                                                                                                    
                                                                                                    
                                                                                                    
                                                                                                    
                                                                                                    
                                                                                                    
                                                                                                    
                                                                                                    
                                                                                                    
                                                                                                    
                           
<?xpacket end="w"?></metadata>
<defs>
    <style>
      .cls-1 {
        fill: #ced1d5;
        fill-rule: evenodd;
      }
    </style>
  </defs>
  <path class="cls-1" d="M1066.08,841.128c0.54,0.074,1.08.147,1.61,0.221l0.59,0.115,1.38,0.262a0.679,0.679,0,0,0,.45.137l1.26,0.378c0.11,0.029.21,0.057,0.31,0.086l1.44,0.536c0.11,0.049.22,0.1,0.34,0.148,0.42,0.193.85,0.386,1.27,0.579l0.36,0.194c0.38,0.2.76,0.4,1.15,0.608,0.11,0.071.23,0.142,0.35,0.213,0.3,0.193.61,0.386,0.91,0.579,0.16,0.109.32,0.22,0.47,0.33,0.35,0.244.69,0.488,1.03,0.733l0.24,0.2c0.29,0.24.59,0.479,0.88,0.719,0.13,0.111.26,0.222,0.38,0.334a4.817,4.817,0,0,0,.83.785,0.891,0.891,0,0,0,.34.341,4.867,4.867,0,0,0,.79.825c0.11,0.127.23,0.254,0.34,0.381l0.72,0.877c0.1,0.131.21,0.263,0.31,0.394,0.21,0.291.42,0.583,0.62,0.874l0.33,0.463c0.2,0.307.39,0.614,0.59,0.921l0.21,0.349c0.21,0.383.41,0.765,0.61,1.148,0.07,0.117.13,0.234,0.2,0.351,0.18,0.393.35,0.785,0.53,1.178,0.08,0.2.17,0.395,0.26,0.592,0.13,0.369.27,0.737,0.4,1.106,0.06,0.158.11,0.317,0.17,0.475,0.14,0.455.27,0.911,0.4,1.367,0.04,0.117.07,0.234,0.11,0.352a8.575,8.575,0,0,0,.32,1.5c0.03,0.156.05,0.313,0.07,0.469,0.07,0.494.13,0.988,0.2,1.482a0.908,0.908,0,0,0,.08.584c0.01,0.535.03,1.07,0.05,1.605,0,0.194.01,0.389,0.02,0.583l-0.06,1.84c-0.02.194-.03,0.387-0.05,0.581a14.532,14.532,0,0,0-.25,1.857c-0.04.264-.09,0.528-0.14,0.792-0.18.727-.36,1.454-0.55,2.181l-0.27.93c-0.4.961-.79,1.922-1.19,2.882a5.993,5.993,0,0,0-.58,1.14,32.938,32.938,0,0,1-2.84,4.1,26.252,26.252,0,0,1-7.14,5.931,2.774,2.774,0,0,0-.28.193c-0.38.191-.76,0.381-1.13,0.572l-2.67,1.1a0.217,0.217,0,0,0-.23.1v0a1.411,1.411,0,0,0-.69.215c-0.81.2-1.62,0.407-2.42,0.611a1.152,1.152,0,0,0-.58.1l-2.08.263a0.9,0.9,0,0,0-.58.06l-1.84.053-0.47-.009-1.73-.09-0.47-.032-1.61-.223a1.43,1.43,0,0,0-.58-0.114l-1.38-.275a0.889,0.889,0,0,0-.44-0.142l-1.14-.319-0.51-.186a8.856,8.856,0,0,0-1.37-.489l-0.36-.189-1.14-.5-0.36-.2a5.833,5.833,0,0,0-1.22-.593,0.219,0.219,0,0,0-.2-0.16,5.763,5.763,0,0,0-1.08-.678,0.622,0.622,0,0,0-.34-0.229c-0.31-.228-0.63-0.456-0.94-0.685-0.15-.121-0.31-0.242-0.47-0.363-0.27-.224-0.54-0.447-0.8-0.671a1.324,1.324,0,0,0-.46-0.387l-0.81-.77-0.36-.355c-0.25-.272-0.51-0.544-0.76-0.816l-0.39-.452a3.978,3.978,0,0,0-.67-0.8c-0.09-.11-0.17-0.219-0.26-0.329a5.319,5.319,0,0,0-.79-1.081l-0.12-.188a2.65,2.65,0,0,0-.83-1.132h-0.58l-1.73-.129c-0.15-.055-0.29-0.111-0.44-0.166-0.35-.2-0.69-0.391-1.04-0.586-0.07-.061-0.15-0.122-0.22-0.183-0.25-.3-0.49-0.606-0.74-0.909l-0.21-.348a6.6,6.6,0,0,1-.37-1.38c-0.02-.194-0.03-0.389-0.04-0.583a8.976,8.976,0,0,0,.01-1.719,1.289,1.289,0,0,0-.01-0.586,8.976,8.976,0,0,0,.01-1.719,1.289,1.289,0,0,0-.01-0.586,8.976,8.976,0,0,0,.01-1.719,1.289,1.289,0,0,0-.01-0.586,8.985,8.985,0,0,0,.01-1.72,1.289,1.289,0,0,0-.01-0.586,8.975,8.975,0,0,0,.01-1.719,1.289,1.289,0,0,0-.01-0.586,8.976,8.976,0,0,0,.01-1.719,1.289,1.289,0,0,0-.01-0.586,8.976,8.976,0,0,0,.01-1.719,1.289,1.289,0,0,0-.01-0.586,10.987,10.987,0,0,0,.02-1.721l0.03-.581a4.411,4.411,0,0,1,3.36-3.311l0.46-.039a2.171,2.171,0,0,0,2.48-1.232,24.158,24.158,0,0,1,8.2-7.734c0.18-.106.35-0.226,0.53-0.34a5.8,5.8,0,0,0,1.14-.587c1.01-.416,2.01-0.832,3.02-1.248a2.412,2.412,0,0,0,.79-0.253l2.31-.589a0.971,0.971,0,0,0,.58-0.1l2.08-.269a0.969,0.969,0,0,0,.58-0.055l1.84-.061,0.47,0.009,1.72,0.086Zm-3.39,8.086c0-.2,0-0.389-0.01-0.584a9.9,9.9,0,0,0,.01-1.722c0-.194,0-0.388-0.01-0.583a9.891,9.891,0,0,0,.01-1.721c0-.194,0-0.389-0.01-0.584,0.01-.265.01-0.534,0.04-0.8,0.08-.573-0.17-0.719-0.68-0.548a1.489,1.489,0,0,0-.69.185,3.643,3.643,0,0,0-1.25.419c-3.28,1.609-5.32,4.352-6.88,7.538a4.151,4.151,0,0,0-.53,1.161,3.311,3.311,0,0,0-.21.4c-0.41,1.194-.78,1.13.78,1.072l0.47,0,1.84,0,0.47,0c0.57,0,1.15-.006,1.73.022,0.35,0.018.49-.1,0.45-0.456a3.492,3.492,0,0,1,.49-2.092c0.22-.221.44-0.442,0.67-0.663a4.179,4.179,0,0,1,2.19-.5l0.59,0.109c0.44,0.243.63,0.119,0.56-.384A2.707,2.707,0,0,1,1062.69,849.214ZM1061.58,878c1.3,0.013,1.16.257,1.11-1.125,0-.194,0-0.389-0.01-0.583a9.891,9.891,0,0,0,.01-1.721c0-.2,0-0.39-0.01-0.584a9.892,9.892,0,0,0,.01-1.721c0-.2-0.01-0.39-0.01-0.585a9.88,9.88,0,0,0,.01-1.72c0-.195,0-0.39-0.01-0.585a9.881,9.881,0,0,0,.01-1.72c0-.2,0-0.39-0.01-0.585,0.12-1.2.12-1.2-.87-1.131l-0.47,0a7.418,7.418,0,0,0-2.07.087,0.184,0.184,0,0,0-.24-0.087l-1.84,0-0.47,0-1.84,0-0.47,0-1.84,0-0.47,0-1.84,0-0.47,0-1.84,0-0.46,0-1.85,0-0.46,0-1.84,0-0.47,0-1.84,0-0.47,0-1.84,0c-1.38-.043-1.2-0.231-1.15,1.137-0.01.614-.01,1.228-0.01,1.842,0,0.155,0,.309.01,0.463-0.01.614-.01,1.228-0.01,1.843,0,0.154,0,.308.01,0.462-0.01.615-.01,1.229-0.01,1.843,0,0.154,0,.308.01,0.463a10.236,10.236,0,0,0,.01,1.836,0.557,0.557,0,0,0,.11.354,1.846,1.846,0,0,0,.79,1.167,0.519,0.519,0,0,0,.33.252,1.937,1.937,0,0,0,1.4.39l0.58,0.008,1.73-.008L1043.1,878l1.73-.008,0.58,0.008,1.73-.008,0.58,0.008,1.73-.008,0.58,0.008,1.73-.008,0.58,0.008,1.73-.008,0.58,0.008,1.73-.008,0.58,0.008,1.73-.008,0.58,0.008,1.73-.008Zm-0.23-13.6c1.45,0.011,1.27.292,1.22-1.235a1.284,1.284,0,0,0-.01-0.585,8.986,8.986,0,0,0,.01-1.72c-0.01-.225.21-0.593-0.31-0.515a6.876,6.876,0,0,0-1.72.012,0.916,0.916,0,0,0-.59-0.012,6.786,6.786,0,0,0-1.72.013,0.9,0.9,0,0,0-.59-0.012,6.831,6.831,0,0,0-1.72.01,0.916,0.916,0,0,0-.59-0.011,6.832,6.832,0,0,0-1.72.012,0.909,0.909,0,0,0-.59-0.011,6.694,6.694,0,0,0-1.72.012,0.9,0.9,0,0,0-.59-0.013,6.75,6.75,0,0,0-1.71.012,0.912,0.912,0,0,0-.59-0.012,6.825,6.825,0,0,0-1.72.012,0.912,0.912,0,0,0-.59-0.012,6.825,6.825,0,0,0-1.72.012,0.919,0.919,0,0,0-.59-0.012,6.825,6.825,0,0,0-1.72.012,0.911,0.911,0,0,0-.59-0.012,6.825,6.825,0,0,0-1.72.012,0.911,0.911,0,0,0-.59-0.012c-1.66-.185-1.66-0.185-1.63,1.437a1.709,1.709,0,0,0,.02.226c0,0.154,0,.308.01,0.462v1.84a0.806,0.806,0,0,0,.68.09l1.73-.007,0.58,0.007,1.73-.007,0.58,0.007,1.73-.007,0.58,0.007,1.73-.008,0.58,0.008,1.73-.008,0.58,0.008,1.73-.007,0.58,0.007,1.73-.007,0.58,0.007,1.73-.007,0.58,0.007,1.73-.008,0.58,0.008,1.72-.008Zm-15.94,15.141h-2.09a6.065,6.065,0,0,0,.92,1.287,0.523,0.523,0,0,0,.24.326,3.926,3.926,0,0,0,.79.955,0.529,0.529,0,0,0,.25.307,4.43,4.43,0,0,0,.78.821l0.36,0.36c0.27,0.259.55,0.518,0.82,0.777a0.535,0.535,0,0,0,.3.252,5.233,5.233,0,0,0,.96.793,0.508,0.508,0,0,0,.33.237,4.106,4.106,0,0,0,.93.685,0.7,0.7,0,0,0,.41.257,4.275,4.275,0,0,0,1.09.673c0.16,0.1.33,0.195,0.5,0.293a4.081,4.081,0,0,0,1.01.5,14.444,14.444,0,0,0,3.86,1.454,31.445,31.445,0,0,1-2.55-2.629c-0.26-.362-0.53-0.725-0.8-1.087l-0.12-.176a6.256,6.256,0,0,0-.71-1.149l-0.21-.355a5.566,5.566,0,0,0-.6-1.143,0.836,0.836,0,0,0-.23-0.466c-0.16-.379-0.33-0.758-0.49-1.137l-0.18-.365a5.693,5.693,0,0,0-.48-1.261c-0.04-.335-0.29-0.21-0.47-0.214l-1.85,0-0.46,0-1.84,0Zm-5.54-24.515a2.511,2.511,0,0,0-2.3,2.369v0.465c-0.08.97-.08,0.97,0.86,0.945,0.1,0,.19-0.016.28-0.025l0.46,0.008,1.85-.008,0.46,0.008,1.85-.008,0.46,0.008,1.85-.008,0.46,0.008,1.85-.008,0.46,0.008,1.85-.007,0.46,0.007,1.85-.007,0.46,0.007,1.85-.007,0.46,0.007,1.85-.007,0.46,0.007,1.85-.007,0.46,0.007,1.85-.007c0.97,0.03.97,0.03,0.87-.927a9.891,9.891,0,0,0,.01-1.721c0-.194,0-0.389-0.01-0.584,0.13-.444-0.03-0.624-0.49-0.572-0.32.035-.64,0.022-0.96,0.031l-0.58-.008-1.73.008-0.58-.007-1.73.007-0.58-.008-1.72.008-0.59-.008-1.72.008-0.59-.008-1.72.008L1049.1,855l-1.72.008-0.59-.008-1.72.008-0.58-.008-1.73.008-0.58-.008-1.73.008A1.12,1.12,0,0,0,1039.87,855.023Zm11.78-4.546a0.252,0.252,0,0,0,.11-0.229,33.317,33.317,0,0,1,2.48-4.022,31.739,31.739,0,0,1,2.51-2.637c0.05-.029.09-0.057,0.14-0.086a0.113,0.113,0,0,0-.19.027,4.115,4.115,0,0,0-1.12.332,14.682,14.682,0,0,0-3.02,1.3,4.191,4.191,0,0,0-1.04.543c-0.08.052-.15,0.1-0.23,0.156v-0.009a22.65,22.65,0,0,0-6.11,5.092,16.487,16.487,0,0,0-1.85,2.512h0.69l0.47,0,1.84,0,0.47,0,1.84,0,0.47,0c0.27,0.006.53-.006,0.79,0.024a0.589,0.589,0,0,0,.74-0.489c0.14-.5.36-0.988,0.55-1.481,0.15-.346.3-0.691,0.46-1.037h0Zm8.32,30.658a0.336,0.336,0,0,0,.22.235,1.594,1.594,0,0,0,1.77.191,1.345,1.345,0,0,0,.77-1.362c0.02-.537-0.1-0.815-0.69-0.656l-0.47,0c-0.49-.007-0.99-0.016-1.49-0.018-0.14,0-.34-0.029-0.34.191A1.92,1.92,0,0,0,1059.97,881.135Zm5.87-38.227a5.555,5.555,0,0,0-1.22-.284,0.3,0.3,0,0,0-.4.373c0.01,0.534.01,1.068,0.02,1.6v20.747c-0.02.24-.09,0.536,0.34,0.367l1.73-.007a0.614,0.614,0,0,0,.58.007l1.73-.006a0.614,0.614,0,0,0,.58.006l1.72-.007a0.635,0.635,0,0,0,.59.007l1.72-.007a0.719,0.719,0,0,0,.6.016c0.57,0.126,1.15-.105,1.72.067,1.64,0.025,1.69-.035,1.42-1.484a8.577,8.577,0,0,0-.11-1.6,0.946,0.946,0,0,0-.05-0.472,6.8,6.8,0,0,0-.21-1.619c-0.01-.152-0.03-0.3-0.04-0.457-0.09-.469-0.17-0.939-0.25-1.409-0.05-.187-0.09-0.375-0.13-0.562l-0.3-1.367c-0.04-.155-0.09-0.31-0.13-0.465-0.12-.431-0.25-0.862-0.37-1.294a0.871,0.871,0,0,0-.17-0.435,5.252,5.252,0,0,0-.43-1.283,1.457,1.457,0,0,0-.24-0.6,4.108,4.108,0,0,0-.48-1.116,1.073,1.073,0,0,0-.22-0.486,4.682,4.682,0,0,0-.5-1,0.61,0.61,0,0,0-.21-0.349,4.36,4.36,0,0,0-.68-1.162c-0.08-.114-0.15-0.228-0.23-0.342a4.539,4.539,0,0,0-.79-1.107l-0.24-.309a3.848,3.848,0,0,0-.82-0.929c-0.07-.068-0.13-0.135-0.2-0.2a3.9,3.9,0,0,0-.83-0.8,1.345,1.345,0,0,0-.46-0.378,3.462,3.462,0,0,0-.94-0.653,1.02,1.02,0,0,0-.45-0.262,3.672,3.672,0,0,0-1.18-.54A0.945,0.945,0,0,0,1065.84,842.908Zm-3.15,45.5c0-.2,0-0.39-0.01-0.585a9.891,9.891,0,0,0,.01-1.721c0-.195,0-0.389-0.01-0.584a9.892,9.892,0,0,0,.01-1.721c0-.2-0.01-0.39-0.01-0.585,0.04-.184-0.04-0.276-0.21-0.2a5.373,5.373,0,0,1-1.82.215c-0.11-.032-0.23-0.064-0.35-0.1l-1.02-.49c-0.16-.153-0.32-0.307-0.47-0.46l-0.48-.917-0.12-.465c0-.17.01-0.34,0.01-0.509,0-.791,0-0.791-0.8-0.738l-0.47,0-1.84,0-0.47,0c-0.74-.006-1.48-0.007-2.22-0.018-0.24,0-.37.042-0.25,0.321a9.954,9.954,0,0,0,.74,1.653c0.03,0.076.07,0.152,0.1,0.229a5.014,5.014,0,0,0,.57,1.159,1,1,0,0,0,.26.451,3.866,3.866,0,0,0,.66,1.09l0.12,0.181a4.049,4.049,0,0,0,.71,1.034l0.36,0.451a3.339,3.339,0,0,0,.7.81,1.3,1.3,0,0,0,.45.468,2.572,2.572,0,0,0,.78.706c0.12,0.108.25,0.215,0.38,0.323a3.762,3.762,0,0,0,1.03.707c0.12,0.072.24,0.144,0.35,0.216a3.218,3.218,0,0,0,1.27.579,0.947,0.947,0,0,0,.47.2,3.507,3.507,0,0,0,1.27.254c0.28,0.165.35,0.052,0.29-.231A9.881,9.881,0,0,0,1062.69,888.4Zm24.73-22.944a6.686,6.686,0,0,0-.11-1.61,0.837,0.837,0,0,0-.09-0.58,5.064,5.064,0,0,0-.25-1.494,0.558,0.558,0,0,0-.1-0.466,5.692,5.692,0,0,0-.3-1.287,0.794,0.794,0,0,0-.16-0.442,4.568,4.568,0,0,0-.45-1.392c-0.04-.112-0.09-0.223-0.13-0.335a7,7,0,0,0-.5-1.262,0.674,0.674,0,0,0-.2-0.351,4.345,4.345,0,0,0-.67-1.312c-0.04-.064-0.07-0.128-0.11-0.193a4.36,4.36,0,0,0-.69-1.159,0.6,0.6,0,0,0-.23-0.343,4.806,4.806,0,0,0-.72-1.029c-0.06-.079-0.13-0.159-0.2-0.238a3.958,3.958,0,0,0-.83-1.035l-0.33-.379a2.789,2.789,0,0,0-.72-0.769,1.3,1.3,0,0,0-.46-0.459,3.338,3.338,0,0,0-.77-0.713c-0.13-.111-0.26-0.221-0.38-0.332a5.289,5.289,0,0,0-1.04-.834l-0.24-.187a4.481,4.481,0,0,0-1.03-.719,0.549,0.549,0,0,0-.35-0.224,4.025,4.025,0,0,0-1.16-.688,0.579,0.579,0,0,0-.35-0.208,4.207,4.207,0,0,0-1.15-.572l-0.33-.156a11.085,11.085,0,0,0-3.11-1.091c0.72,0.7,1.37,1.436,2.04,2.159,0.07,0.079.14,0.157,0.2,0.235l0.75,1.025,0.33,0.474c0.22,0.356.45,0.712,0.68,1.068a1.919,1.919,0,0,0,.11.195,6.413,6.413,0,0,0,.69,1.305,0.363,0.363,0,0,0,.15.3c0.17,0.393.35,0.785,0.52,1.178a0.506,0.506,0,0,0,.16.323,6.676,6.676,0,0,0,.55,1.436c0.03,0.1.07,0.205,0.1,0.307,0.15,0.48.31,0.96,0.47,1.44l0.06,0.275c0.12,0.46.24,0.919,0.35,1.378,0.05,0.16.09,0.32,0.14,0.48,0.1,0.493.2,0.986,0.31,1.479a0.413,0.413,0,0,0,.08.355,8.757,8.757,0,0,0,.25,1.61c0.01,0.154.03,0.308,0.04,0.462,0.06,0.538.13,1.075,0.19,1.612l0.03,0.462c0.03,0.575.06,1.149,0.1,1.724,0,0.155.01,0.311,0.01,0.466-0.06.269,0.04,0.394,0.33,0.381,0.42-.019.84-0.017,1.26-0.024a0.615,0.615,0,0,0,.58.006l1.73-.007a0.612,0.612,0,0,0,.58.007l1.73-.007a0.615,0.615,0,0,0,.58.007l1.73-.007C1087.36,865.834,1087.48,865.762,1087.42,865.46Zm-25.15-13.805a0.508,0.508,0,0,0-.35-0.235c-1.38-.475-2.23.173-2.21,1.641,0.01,0.38.14,0.475,0.48,0.395l0.47,0c0.55,0.006,1.1.016,1.65,0.014,0.16,0,.39.052,0.39-0.206A1.663,1.663,0,0,0,1062.27,851.655Zm16.3,16c-0.03.613-.07,1.226-0.1,1.839a2.078,2.078,0,0,0-.13.7,15.924,15.924,0,0,1-.12,1.953,1.3,1.3,0,0,0-.09.585c-0.11.657-.23,1.313-0.34,1.97a2.159,2.159,0,0,0-.15.8l-0.63,2.416a1.419,1.419,0,0,0-.19.694c-0.35.922-.7,1.844-1.04,2.766a4.417,4.417,0,0,0-.46,1.038,35.066,35.066,0,0,1-2.48,4.139,27.621,27.621,0,0,1-2.59,2.836,1.225,1.225,0,0,0,.8-0.165,13.649,13.649,0,0,0,2.88-1.169,0.231,0.231,0,0,0,.23-0.112c0.04-.023.09-0.046,0.14-0.07a4,4,0,0,0,.91-0.487c0.07-.042.15-0.085,0.23-0.127v0a20.628,20.628,0,0,0,4.19-3.036,21.967,21.967,0,0,0,4.59-5.721v0c0.04-.077.09-0.154,0.14-0.232a3.445,3.445,0,0,0,.55-1.043,14.134,14.134,0,0,0,1.26-3,1.757,1.757,0,0,0,.24-0.8,9.7,9.7,0,0,0,.61-2.424,1.044,1.044,0,0,0,.09-0.577,9.083,9.083,0,0,0,.27-2.076,1.256,1.256,0,0,0,.04-0.578c0.08-.349-0.01-0.532-0.41-0.5-0.35.029-.71,0.019-1.06,0.027a0.635,0.635,0,0,0-.59-0.007,9.059,9.059,0,0,0-1.84.043l-0.46-.039a7.679,7.679,0,0,0-1.85.039l-0.46-.039-1.73,0C1078.64,867.133,1078.5,867.264,1078.57,867.655Zm-11.67-.365c-0.77,0-1.53,0-2.29-.02a0.32,0.32,0,0,0-.39.4c0.02,0.762.01,1.523,0.02,2.285v18.907a7.649,7.649,0,0,1-.03.958c-0.06.491,0.13,0.653,0.6,0.512l0.69-.161a5.807,5.807,0,0,0,1.88-.725,15.918,15.918,0,0,0,6.36-7.379,4.538,4.538,0,0,0,.53-1.162,15.515,15.515,0,0,0,1.07-2.879,1.685,1.685,0,0,0,.2-0.694,12.644,12.644,0,0,0,.62-2.418,1.138,1.138,0,0,0,.1-0.576,11.666,11.666,0,0,0,.39-2.194,1.125,1.125,0,0,0,.05-0.575,11.081,11.081,0,0,0,.22-2.07c0.01-.155.01-0.31,0.01-0.466a7.573,7.573,0,0,0,.12-1.344c0.02-.376-0.13-0.471-0.46-0.392l-0.46-.008-1.85.009-0.46-.009-1.85.008-0.46-.008-1.85.008-0.46-.008-1.85.008Zm3.17-23.763,0.02-.027-0.03,0Zm0.01,45.941-0.03.032,0.04,0.006Zm-22.82-13.636-0.46-.008-1.85.007-0.46-.007-1.85.007-0.46-.008a1.039,1.039,0,0,1-1.02-.613c0.01-.133.01-0.265,0.02-0.4l0.42-.48,0.58-.073a6.041,6.041,0,0,0,1.73-.009,0.822,0.822,0,0,0,.59.009,5.972,5.972,0,0,0,1.72-.01,0.827,0.827,0,0,0,.59.011,8.167,8.167,0,0,0,1.72.017h2.89a1.612,1.612,0,0,1,1.21.316c0.05,0.107.11,0.213,0.16,0.319a0.927,0.927,0,0,1-.91.918l-0.46-.008-1.85.008-0.46-.008Zm-5.63-3.356c-0.12-.114-0.24-0.228-0.37-0.342a0.8,0.8,0,0,1,.87-1.134c0.17,0,.34-0.016.51-0.024l0.46,0,1.85,0,0.46,0,1.85,0,0.46,0a1.115,1.115,0,0,1,1.12.488c0.02,0.15.03,0.3,0.05,0.452a1.146,1.146,0,0,1-.59.591l-0.58.006-1.73.008-0.58-.008-1.73.008-0.58-.008Z" transform="translate(-1036 -841)"/>
</svg>
