<svg xmlns="http://www.w3.org/2000/svg" width="20" height="20" viewBox="0 0 20 20">
  <metadata><?xpacket begin="﻿" id="W5M0MpCehiHzreSzNTczkc9d"?>
<x:xmpmeta xmlns:x="adobe:ns:meta/" x:xmptk="Adobe XMP Core 5.6-c138 79.159824, 2016/09/14-01:09:01        ">
   <rdf:RDF xmlns:rdf="http://www.w3.org/1999/02/22-rdf-syntax-ns#">
      <rdf:Description rdf:about=""/>
   </rdf:RDF>
</x:xmpmeta>
                                                                                                    
                                                                                                    
                                                                                                    
                                                                                                    
                                                                                                    
                                                                                                    
                                                                                                    
                                                                                                    
                                                                                                    
                                                                                                    
                                                                                                    
                                                                                                    
                                                                                                    
                                                                                                    
                                                                                                    
                                                                                                    
                                                                                                    
                                                                                                    
                                                                                                    
                                                                                                    
                           
<?xpacket end="w"?></metadata>
<defs>
    <style>
      .cls-1 {
        fill: #515357;
        fill-rule: evenodd;
      }
    </style>
  </defs>
  <path class="cls-1" d="M861.478,191.8a1.971,1.971,0,0,1,1.5-.657h14.374l0.145-1.074A2.181,2.181,0,0,1,879.352,188h1.056a0.586,0.586,0,1,1,0,1.172h-1.056a1.174,1.174,0,0,0-.679,1.046l-1.694,12.58a2.358,2.358,0,0,1-.81,1.462,2.45,2.45,0,0,1-1.135.559,2.134,2.134,0,0,1,.262,1.026,2.176,2.176,0,0,1-4.352,0,2.129,2.129,0,0,1,.241-0.983h-3.1a2.129,2.129,0,0,1,.241.983,2.177,2.177,0,0,1-4.353,0,2.129,2.129,0,0,1,.241-0.983h-1.55a0.586,0.586,0,1,1,0-1.172H874.6a1.267,1.267,0,0,0,1.208-1.047l0.123-.919H864.248a2.407,2.407,0,0,1-1.57-.6,2.363,2.363,0,0,1-.81-1.462l-0.849-6.3A1.934,1.934,0,0,1,861.478,191.8Zm10.65,14.05a0.993,0.993,0,1,0,.992-0.983A0.989,0.989,0,0,0,872.128,205.845Zm-6.971,0a0.993,0.993,0,1,0,.992-0.983A0.989,0.989,0,0,0,865.157,205.845Zm-2.788-13.278a0.78,0.78,0,0,0-.177.635l0.356,2.643h4.026l-0.238-3.535h-3.355A0.8,0.8,0,0,0,862.369,192.567Zm8.4,7.985,0.238-3.535h-3.17l0.238,3.535h2.694Zm0.317-4.707,0.238-3.535h-3.8l0.238,3.535h3.328Zm1.424-3.535-0.238,3.535h4.448l0.476-3.535h-4.686Zm4.052,4.707H872.2l-0.238,3.535h4.131Zm-12.316,3.535h2.643l-0.238-3.535h-3.947l0.335,2.488A1.265,1.265,0,0,0,864.248,200.552Z" transform="translate(-861 -188)"/>
</svg>
