<svg xmlns="http://www.w3.org/2000/svg" width="38.44" height="25.656" viewBox="0 0 38.44 25.656">
  <metadata><?xpacket begin="﻿" id="W5M0MpCehiHzreSzNTczkc9d"?>
<x:xmpmeta xmlns:x="adobe:ns:meta/" x:xmptk="Adobe XMP Core 5.6-c138 79.159824, 2016/09/14-01:09:01        ">
   <rdf:RDF xmlns:rdf="http://www.w3.org/1999/02/22-rdf-syntax-ns#">
      <rdf:Description rdf:about=""/>
   </rdf:RDF>
</x:xmpmeta>
                                                                                                    
                                                                                                    
                                                                                                    
                                                                                                    
                                                                                                    
                                                                                                    
                                                                                                    
                                                                                                    
                                                                                                    
                                                                                                    
                                                                                                    
                                                                                                    
                                                                                                    
                                                                                                    
                                                                                                    
                                                                                                    
                                                                                                    
                                                                                                    
                                                                                                    
                                                                                                    
                           
<?xpacket end="w"?></metadata>
<defs>
    <style>
      .cls-1 {
        fill: #fff;
        fill-rule: evenodd;
      }
    </style>
  </defs>
  <path id="icon_group_white" class="cls-1" d="M1345.69,648.8a1.348,1.348,0,0,1-1.05-1.594,1.334,1.334,0,0,1,.49-0.793,6.092,6.092,0,0,1-.98.081,6.328,6.328,0,0,1-1.22-.129,5.57,5.57,0,0,1-1.17-.366,1.348,1.348,0,0,1,1.04-2.488,2.822,2.822,0,0,0,.66.2,3.1,3.1,0,0,0,.69.068,3.561,3.561,0,0,0,1.36-.271,4.627,4.627,0,0,0,.58-0.319,3.8,3.8,0,0,0,.51-0.427,4.257,4.257,0,0,0,.43-0.522,3.377,3.377,0,0,0,.32-0.584,4.846,4.846,0,0,0,.2-0.657,3.52,3.52,0,0,0,0-1.4,4.816,4.816,0,0,0-.2-0.658,3.422,3.422,0,0,0-.32-0.59,4.119,4.119,0,0,0-.43-0.515,3.339,3.339,0,0,0-.51-0.427,3.14,3.14,0,0,0-1.25-.529,3.463,3.463,0,0,0-.69-0.061,3.945,3.945,0,0,0-.53.033,2.959,2.959,0,0,0-.52.122,1.332,1.332,0,0,1-1.17-.176,7.418,7.418,0,0,1,.14,1.424,6.887,6.887,0,0,1-2,4.876,6.975,6.975,0,0,1-3.02,1.769,11.4,11.4,0,0,1,2.6.74,11.573,11.573,0,0,1,3.78,2.529,11.7,11.7,0,0,1,2.34,3.4,11.517,11.517,0,0,1,1.02,4,1.344,1.344,0,1,1-2.68.2,8.942,8.942,0,0,0-.78-3.072,9.053,9.053,0,0,0-4.7-4.563,8.942,8.942,0,0,0-11.53,4.563,8.731,8.731,0,0,0-.79,3.072,1.334,1.334,0,0,1-1.43,1.255,1.348,1.348,0,0,1-1.25-1.451,11.742,11.742,0,0,1,1.02-4,11.615,11.615,0,0,1,6.12-5.933,11.4,11.4,0,0,1,2.6-.74,6.894,6.894,0,0,1-5.02-6.645,6.59,6.59,0,0,1,.13-1.342,1.324,1.324,0,0,1-1.1.115,3.029,3.029,0,0,0-.55-0.136,3.524,3.524,0,0,0-.56-0.04,3.608,3.608,0,0,0-.69.061,3.535,3.535,0,0,0-.66.2,3.084,3.084,0,0,0-.58.326,3.6,3.6,0,0,0-.52.42h0v0.007a3.561,3.561,0,0,0-.42.515,2.854,2.854,0,0,0-.32.59,3.762,3.762,0,0,0-.21.658,4.1,4.1,0,0,0,0,1.4,3.778,3.778,0,0,0,.21.657,2.816,2.816,0,0,0,.32.584,3.432,3.432,0,0,0,.42.522h0a3.271,3.271,0,0,0,.52.427,3.552,3.552,0,0,0,.58.319,2.822,2.822,0,0,0,.66.2,3.585,3.585,0,0,0,1.39,0,2.9,2.9,0,0,0,.65-0.2,1.35,1.35,0,0,1,1.05,2.488,5.659,5.659,0,0,1-1.18.366,6.247,6.247,0,0,1-1.22.129,6.092,6.092,0,0,1-.98-0.081,1.334,1.334,0,0,1,.49.793,1.348,1.348,0,0,1-1.05,1.594,6.832,6.832,0,0,0-.72.19,7.161,7.161,0,0,0-.71.257c-0.19.082-.41,0.19-0.66,0.326v-0.007c-0.19.108-.4,0.237-0.62,0.386s-0.42.3-.6,0.441c-0.15.136-.34,0.3-0.53,0.5a5.4,5.4,0,0,0-.45.5c-0.17.19-.3,0.366-0.42,0.529-0.12.183-.24,0.373-0.35,0.57a6.668,6.668,0,0,0-.31.6c-0.1.223-.19,0.433-0.26,0.63s-0.14.427-.2,0.651a8.014,8.014,0,0,0-.22,1.383,1.349,1.349,0,1,1-2.69-.2,7.778,7.778,0,0,1,.11-0.936c0.05-.312.11-0.617,0.19-0.929,0.08-.292.17-0.59,0.28-0.882,0.11-.311.22-0.6,0.34-0.854s0.27-.529.43-0.814a7.652,7.652,0,0,1,.49-0.766c0.18-.271.37-0.509,0.54-0.719a7.545,7.545,0,0,1,.61-0.671c0.21-.21.46-0.434,0.73-0.671s0.54-.421.79-0.6,0.54-.346.86-0.515h0v-0.007a9.624,9.624,0,0,1,.9-0.427,9.069,9.069,0,0,1,.96-0.353,8.454,8.454,0,0,1,.98-0.251c0.01-.007.03-0.007,0.04-0.013-0.12-.041-0.24-0.089-0.36-0.143a5.463,5.463,0,0,1-1.05-.563,6.64,6.64,0,0,1-.92-0.759h0a7.112,7.112,0,0,1-.75-0.916,6.462,6.462,0,0,1-.56-1.051,6.627,6.627,0,0,1-.37-1.179,6.312,6.312,0,0,1,.93-4.686,6.127,6.127,0,0,1,.75-0.915h0l0.01-.007h0a5.6,5.6,0,0,1,.91-0.753,5.9,5.9,0,0,1,1.05-.57,6.068,6.068,0,0,1,1.17-.359,5.818,5.818,0,0,1,1.22-.129,6.341,6.341,0,0,1,1,.082,5.989,5.989,0,0,1,.97.244,1.36,1.36,0,0,1,.81.759,6.846,6.846,0,0,1,11.02-1.844,7.145,7.145,0,0,1,1.34,1.919,1.325,1.325,0,0,1,.87-0.861,6.108,6.108,0,0,1,.92-0.224,6.807,6.807,0,0,1,.95-0.075,5.818,5.818,0,0,1,1.22.129,6.068,6.068,0,0,1,1.17.359,5.568,5.568,0,0,1,1.05.57,5.919,5.919,0,0,1,.92.753,6.163,6.163,0,0,1,1.31,1.973,5.77,5.77,0,0,1,.37,1.18,5.86,5.86,0,0,1,0,2.455,5.9,5.9,0,0,1-.37,1.179,6.462,6.462,0,0,1-.56,1.051,6.367,6.367,0,0,1-.75.916,5.9,5.9,0,0,1-.92.759,5.181,5.181,0,0,1-1.05.563,2.571,2.571,0,0,1-.36.143c0.02,0.006.03,0.006,0.05,0.013a9.638,9.638,0,0,1,.98.251,8.176,8.176,0,0,1,.95.353c0.34,0.142.64,0.285,0.91,0.427,0.03,0.02.07,0.04,0.1,0.061,0.27,0.156.52,0.3,0.75,0.461,0.25,0.176.52,0.373,0.79,0.6s0.52,0.461.73,0.671a6.273,6.273,0,0,1,.61.671c0.18,0.21.36,0.448,0.55,0.719,0.17,0.244.33,0.5,0.49,0.766q0.24,0.428.42,0.814c0.12,0.258.23,0.543,0.34,0.854,0.11,0.292.2,0.59,0.28,0.882,0.08,0.312.14,0.617,0.19,0.929s0.09,0.631.12,0.936a1.363,1.363,0,0,1-1.26,1.451,1.34,1.34,0,0,1-1.43-1.255,6.921,6.921,0,0,0-.23-1.383,6.659,6.659,0,0,0-.2-0.651c-0.07-.19-0.15-0.407-0.25-0.63a6.6,6.6,0,0,0-.32-0.6,4.54,4.54,0,0,0-.35-0.57c-0.12-.163-0.25-0.339-0.41-0.529-0.13-.156-0.29-0.325-0.46-0.5a7.246,7.246,0,0,0-.53-0.5c-0.17-.142-0.37-0.285-0.59-0.441-0.19-.129-0.37-0.237-0.54-0.339l-0.09-.04a6.846,6.846,0,0,0-.66-0.326,6.97,6.97,0,0,0-.7-0.257c-0.25-.075-0.49-0.143-0.73-0.19h0Zm-7.53-13.528a4.165,4.165,0,0,0-7.11,2.956,4.2,4.2,0,0,0,1.22,2.957,4.148,4.148,0,0,0,5.89,0,4.217,4.217,0,0,0,0-5.913h0Z" transform="translate(-1316 -631.344)"/>
</svg>
