<svg xmlns="http://www.w3.org/2000/svg" width="83" height="87.062" viewBox="0 0 83 87.062">
  <metadata><?xpacket begin="﻿" id="W5M0MpCehiHzreSzNTczkc9d"?>
<x:xmpmeta xmlns:x="adobe:ns:meta/" x:xmptk="Adobe XMP Core 5.6-c138 79.159824, 2016/09/14-01:09:01        ">
   <rdf:RDF xmlns:rdf="http://www.w3.org/1999/02/22-rdf-syntax-ns#">
      <rdf:Description rdf:about=""/>
   </rdf:RDF>
</x:xmpmeta>
                                                                                                    
                                                                                                    
                                                                                                    
                                                                                                    
                                                                                                    
                                                                                                    
                                                                                                    
                                                                                                    
                                                                                                    
                                                                                                    
                                                                                                    
                                                                                                    
                                                                                                    
                                                                                                    
                                                                                                    
                                                                                                    
                                                                                                    
                                                                                                    
                                                                                                    
                                                                                                    
                           
<?xpacket end="w"?></metadata>
<defs>
    <style>
      .cls-1 {
        fill: #2e77bc;
        fill-rule: evenodd;
      }
    </style>
  </defs>
  <path class="cls-1" d="M378.189,276.374l9.307,14.761c3.123-4.95,6.123-9.706,9.254-14.671-0.671-.04-1.107-0.087-1.543-0.089-2.537-.007-5.076.043-7.609-0.053a3.123,3.123,0,0,1-1.211-1.012,3.735,3.735,0,0,1,1.227-1.16c1.016-.245,2.408.148,3.06-0.409,0.59-.5.339-1.938,0.566-2.937a19.421,19.421,0,1,1,24.022,23.18,19.158,19.158,0,0,1-18.28-4.416c-0.66-.575-1.341-1.275-0.575-2.135s1.513-.263,2.156.347a17.02,17.02,0,0,0,22.355.68c5.384-4.618,7.474-10.589,5.674-17.456-1.787-6.818-6.361-11.09-13.373-12.489a16.917,16.917,0,0,0-19.811,13.7c-0.092.549-.2,1.1-0.342,1.883,1.835,0,3.546-.008,5.257,0,1.785,0.011,2.224.748,1.281,2.257q-5.4,8.639-10.851,17.249c-0.78,1.235-1.7,1.267-2.473.051q-5.524-8.727-11-17.487c-0.791-1.265-.332-2.045,1.165-2.067,1.451-.022,2.9,0,4.278,0a70.438,70.438,0,0,1,1.4-6.912c3.471-11.312,11.1-18.453,22.6-20.645a28.88,28.88,0,0,1,34.1,23.589c0.253,1.476.392,2.973,0.527,4.465,0.076,0.833-.015,1.679-1.119,1.76-1.233.09-1.328-.832-1.334-1.707a25.149,25.149,0,0,0-4.382-14.141,26.345,26.345,0,0,0-19.02-11.9,26.74,26.74,0,0,0-29.679,21.677,38.406,38.406,0,0,0-.515,4.6,1.3,1.3,0,0,1-1.541,1.5C380.692,276.345,379.613,276.374,378.189,276.374Zm-12,34.5L376,324.729c2.016-1.657,4.121-2.853,6.8-2.137,2.206,0.589,4.424,1.133,6.636,1.7q7.787,1.993,15.572,3.985a3.852,3.852,0,0,0,3.322-.674q12.32-8.748,24.643-17.489a3.779,3.779,0,0,0,1.063-5.321,3.729,3.729,0,0,0-5.448-.786c-2.784,1.9-5.536,3.856-8.3,5.786a1.746,1.746,0,0,1-.7.442,13.268,13.268,0,0,1-1.728-.14c0.134-.572.075-1.4,0.436-1.675,2.038-1.573,4.176-3.014,6.282-4.5,0.919-.648,1.824-1.318,2.763-1.937a6.118,6.118,0,0,1,9.716,4.561,6.035,6.035,0,0,1-2.87,5.626q-7.236,5.106-14.456,10.233c-3.327,2.355-6.674,4.682-9.982,7.063a6.334,6.334,0,0,1-5.588.965c-7.083-1.823-14.188-3.56-21.246-5.47-2.282-.617-3.887.234-5.437,1.663a0.6,0.6,0,0,0,.046.25c1.774,2.519,1.773,2.516-.75,4.293a16.16,16.16,0,0,1-2.414,1.68,2.036,2.036,0,0,1-1.816-.12c-0.64-.588-0.187-1.293.447-1.753,0.983-.713,1.98-1.4,3.038-2.151l-13.654-19.265A37.129,37.129,0,0,1,359,311.851a1.8,1.8,0,0,1-1.657-.121c-0.626-.576-0.321-1.265.366-1.748,1.226-.863,2.476-1.7,3.651-2.627,1.091-.862,1.919-0.757,2.645.425,0.24,0.39.542,0.741,0.867,1.179,3.494-2.5,6.935-4.925,10.335-7.406a10.078,10.078,0,0,1,9.294-1.584c8.268,2.432,16.553,4.81,24.829,7.215,4.181,1.215,6.065,5.317,4.106,8.922-1.356,2.5-4.171,3.605-7.248,2.856-4.209-1.025-8.421-2.04-12.627-3.08-0.828-.2-1.812-0.47-1.487-1.617,0.306-1.083,1.17-.884,2.076-0.654,4.2,1.067,8.417,2.071,12.632,3.083a3.828,3.828,0,0,0,4.461-1.521,3.529,3.529,0,0,0-.086-4.075,5.361,5.361,0,0,0-2.368-1.605c-8.484-2.524-17-4.956-25.493-7.429a6.287,6.287,0,0,0-5.41.6C373.965,305.289,370.153,308.075,366.186,310.873Zm73.745-30.308c-0.76.746-1.193,1.539-1.719,1.607a1.194,1.194,0,0,1-1.256-1.582,5.279,5.279,0,0,1,1.193-1.626ZM440,287.218a6.907,6.907,0,0,1-1.885,1.208,1.025,1.025,0,0,1-1.155-1.447,5.107,5.107,0,0,1,1.273-1.538Zm-29.67-7.4v-7.628l-7.432,3.264Zm0-8.152v-8.957l-7.193,12.115Zm0.48-8.961v8.961l7.294,3.2Zm0,9.485v7.629l7.437-4.363Zm-0.48,15.3v-6.135l-7.382-4.333Zm0.48,0,7.382-10.468-7.382,4.333v6.135Z" transform="translate(-357 -245.969)"/>
</svg>
