<svg xmlns="http://www.w3.org/2000/svg" width="90" height="90" viewBox="0 0 90 90">
  <metadata><?xpacket begin="﻿" id="W5M0MpCehiHzreSzNTczkc9d"?>
<x:xmpmeta xmlns:x="adobe:ns:meta/" x:xmptk="Adobe XMP Core 5.6-c138 79.159824, 2016/09/14-01:09:01        ">
   <rdf:RDF xmlns:rdf="http://www.w3.org/1999/02/22-rdf-syntax-ns#">
      <rdf:Description rdf:about=""/>
   </rdf:RDF>
</x:xmpmeta>
                                                                                                    
                                                                                                    
                                                                                                    
                                                                                                    
                                                                                                    
                                                                                                    
                                                                                                    
                                                                                                    
                                                                                                    
                                                                                                    
                                                                                                    
                                                                                                    
                                                                                                    
                                                                                                    
                                                                                                    
                                                                                                    
                                                                                                    
                                                                                                    
                                                                                                    
                                                                                                    
                           
<?xpacket end="w"?></metadata>
<defs>
    <style>
      .cls-1 {
        fill: #2e77bc;
        fill-rule: evenodd;
      }
    </style>
  </defs>
  <path class="cls-1" d="M385.67,276.813l6.662,10.568,6.626-10.5c-0.481-.029-0.793-0.063-1.105-0.064-1.816,0-3.634.031-5.448-.038a2.252,2.252,0,0,1-.867-0.724,2.663,2.663,0,0,1,.879-0.831c0.727-.175,1.723.106,2.19-0.293,0.423-.361.243-1.387,0.406-2.1a13.9,13.9,0,1,1,17.2,16.6,13.712,13.712,0,0,1-13.086-3.161c-0.473-.412-0.96-0.913-0.412-1.529s1.083-.188,1.544.249a12.182,12.182,0,0,0,16,.486c3.855-3.306,5.351-7.58,4.063-12.5a11.626,11.626,0,0,0-9.575-8.941,12.11,12.11,0,0,0-14.182,9.809c-0.066.393-.142,0.784-0.245,1.348,1.314,0,2.539-.006,3.763,0,1.278,0.007,1.593.535,0.917,1.615q-3.867,6.186-7.768,12.349c-0.558.884-1.219,0.907-1.77,0.037q-3.956-6.247-7.873-12.519c-0.566-.906-0.238-1.464.834-1.48,1.039-.016,2.078,0,3.062,0,0.338-1.7.522-3.37,1.006-4.948,2.485-8.1,7.944-13.211,16.179-14.78a20.675,20.675,0,0,1,24.414,16.888c0.181,1.056.28,2.128,0.377,3.2,0.054,0.6-.011,1.2-0.8,1.26-0.883.064-.951-0.6-0.955-1.222a18.007,18.007,0,0,0-3.138-10.124,18.859,18.859,0,0,0-13.616-8.517A19.143,19.143,0,0,0,389.7,272.457a27.377,27.377,0,0,0-.369,3.292,0.931,0.931,0,0,1-1.1,1.07C387.461,276.793,386.689,276.813,385.67,276.813Zm-8.593,24.7c2.367,3.346,4.669,6.6,7.021,9.92,1.444-1.187,2.951-2.043,4.87-1.53,1.579,0.422,3.167.811,4.751,1.217q5.574,1.427,11.148,2.853a2.763,2.763,0,0,0,2.379-.482q8.819-6.262,17.642-12.521a2.706,2.706,0,0,0,.761-3.809,2.669,2.669,0,0,0-3.9-.563c-1.993,1.363-3.964,2.76-5.944,4.142a1.244,1.244,0,0,1-.5.317,9.591,9.591,0,0,1-1.237-.1,2.469,2.469,0,0,1,.312-1.2c1.46-1.126,2.99-2.158,4.5-3.221,0.658-.464,1.306-0.943,1.978-1.386a4.379,4.379,0,0,1,6.955,3.265,4.316,4.316,0,0,1-2.054,4.027q-5.179,3.656-10.349,7.327c-2.382,1.685-4.778,3.352-7.146,5.056a4.529,4.529,0,0,1-4,.69c-5.07-1.3-10.157-2.548-15.21-3.915a3.845,3.845,0,0,0-3.893,1.19,0.449,0.449,0,0,0,.033.179c1.271,1.8,1.27,1.8-.536,3.074a11.552,11.552,0,0,1-1.729,1.2,1.454,1.454,0,0,1-1.3-.086c-0.458-.42-0.134-0.925.32-1.254,0.7-.511,1.418-1.006,2.175-1.541l-9.775-13.791a26.68,26.68,0,0,1-2.41,1.64,1.284,1.284,0,0,1-1.186-.086c-0.449-.412-0.23-0.906.261-1.251,0.878-.618,1.773-1.216,2.614-1.881a1.1,1.1,0,0,1,1.894.3c0.171,0.279.388,0.53,0.621,0.844,2.5-1.79,4.964-3.526,7.4-5.3a7.214,7.214,0,0,1,6.653-1.134c5.92,1.741,11.85,3.443,17.775,5.165,2.994,0.87,4.342,3.807,2.94,6.388a4.453,4.453,0,0,1-5.189,2.044c-3.013-.734-6.029-1.46-9.04-2.205-0.593-.146-1.3-0.336-1.064-1.157,0.219-.776.837-0.633,1.486-0.469,3.007,0.764,6.026,1.483,9.043,2.208a2.742,2.742,0,0,0,3.194-1.089,2.528,2.528,0,0,0-.061-2.918,3.843,3.843,0,0,0-1.7-1.149c-6.074-1.807-12.166-3.548-18.251-5.318a4.5,4.5,0,0,0-3.873.431C382.645,297.513,379.916,299.508,377.077,301.511Zm52.794-21.7a3.821,3.821,0,0,1-1.23,1.15,0.855,0.855,0,0,1-.9-1.132,3.755,3.755,0,0,1,.855-1.164Zm0.049,4.763a4.978,4.978,0,0,1-1.349.865,0.734,0.734,0,0,1-.827-1.036,3.677,3.677,0,0,1,.911-1.1Zm-21.24-5.3v-5.461l-5.321,2.337Zm0-5.836v-6.412l-5.15,8.673Zm0.343-6.415v6.415l5.222,2.293Zm0,6.79v5.462l5.324-3.123Zm-0.343,10.952v-4.392l-5.286-3.1Zm0.343,0,5.285-7.494-5.285,3.1v4.392ZM357,288a45,45,0,1,0,45-45A45.051,45.051,0,0,0,357,288Zm1.631,0A43.369,43.369,0,1,1,402,331.369,43.418,43.418,0,0,1,358.631,288Zm5.1,22.623,76.532-45,0.918,1.591-76.532,45Z" transform="translate(-357 -243)"/>
</svg>
