<svg xmlns="http://www.w3.org/2000/svg" width="16" height="17" viewBox="0 0 16 17">
  <metadata><?xpacket begin="﻿" id="W5M0MpCehiHzreSzNTczkc9d"?>
<x:xmpmeta xmlns:x="adobe:ns:meta/" x:xmptk="Adobe XMP Core 5.6-c138 79.159824, 2016/09/14-01:09:01        ">
   <rdf:RDF xmlns:rdf="http://www.w3.org/1999/02/22-rdf-syntax-ns#">
      <rdf:Description rdf:about=""/>
   </rdf:RDF>
</x:xmpmeta>
                                                                                                    
                                                                                                    
                                                                                                    
                                                                                                    
                                                                                                    
                                                                                                    
                                                                                                    
                                                                                                    
                                                                                                    
                                                                                                    
                                                                                                    
                                                                                                    
                                                                                                    
                                                                                                    
                                                                                                    
                                                                                                    
                                                                                                    
                                                                                                    
                                                                                                    
                                                                                                    
                           
<?xpacket end="w"?></metadata>
<defs>
    <style>
      .cls-1 {
        fill: #aaa;
        fill-rule: evenodd;
      }
    </style>
  </defs>
  <path class="cls-1" d="M1868.01,48.872a8.135,8.135,0,0,0-1.53-4.77,0.361,0.361,0,0,0-.49-0.1l-2.09,1.309a0.371,0.371,0,0,0-.17.248,0.383,0.383,0,0,0,.06.295,4.784,4.784,0,0,1,.89,2.789,4.681,4.681,0,1,1-9.36,0,4.784,4.784,0,0,1,.89-2.789,0.383,0.383,0,0,0,.06-0.295,0.371,0.371,0,0,0-.17-0.248L1854.01,44a0.376,0.376,0,0,0-.5.1,8.2,8.2,0,0,0-1.52,4.77A8.011,8.011,0,1,0,1868.01,48.872Zm-11.01-3.7a0.365,0.365,0,0,0,.38-0.019l1.31-.885v5.358a1.31,1.31,0,1,0,2.62,0V44.268l1.31,0.885a0.364,0.364,0,0,0,.38.019,0.383,0.383,0,0,0,.2-0.333V42.287a0.366,0.366,0,0,0-.17-0.313l-2.82-1.915a0.38,0.38,0,0,0-.42,0l-2.82,1.915a0.366,0.366,0,0,0-.17.314V44.84A0.383,0.383,0,0,0,1857,45.172Z" transform="translate(-1852 -40)"/>
</svg>
