<svg xmlns="http://www.w3.org/2000/svg" width="266" height="66" viewBox="0 0 266 66">
  <metadata><?xpacket begin="﻿" id="W5M0MpCehiHzreSzNTczkc9d"?>
<x:xmpmeta xmlns:x="adobe:ns:meta/" x:xmptk="Adobe XMP Core 5.6-c138 79.159824, 2016/09/14-01:09:01        ">
   <rdf:RDF xmlns:rdf="http://www.w3.org/1999/02/22-rdf-syntax-ns#">
      <rdf:Description rdf:about=""/>
   </rdf:RDF>
</x:xmpmeta>
                                                                                                    
                                                                                                    
                                                                                                    
                                                                                                    
                                                                                                    
                                                                                                    
                                                                                                    
                                                                                                    
                                                                                                    
                                                                                                    
                                                                                                    
                                                                                                    
                                                                                                    
                                                                                                    
                                                                                                    
                                                                                                    
                                                                                                    
                                                                                                    
                                                                                                    
                                                                                                    
                           
<?xpacket end="w"?></metadata>
<defs>
    <style>
      .cls-1 {
        fill: #fff;
        fill-rule: evenodd;
      }
    </style>
  </defs>
  <path id="Zuflo_copy" data-name="Zuflo copy" class="cls-1" d="M823.92,146.764l0.468-.941a5.923,5.923,0,0,0-2.611-.541,4.832,4.832,0,0,0-2.44.592,3.926,3.926,0,0,0-1.585,1.688,5.621,5.621,0,0,0-.549,2.551,5.168,5.168,0,0,0,1.14,3.587,4.139,4.139,0,0,0,3.238,1.263,7.038,7.038,0,0,0,2.437-.367v-0.96a8.583,8.583,0,0,1-2.268.354,3.119,3.119,0,0,1-2.491-1.008,4.226,4.226,0,0,1-.874-2.857,4.151,4.151,0,0,1,.906-2.831,3.124,3.124,0,0,1,2.472-1.033,5.055,5.055,0,0,1,2.157.5h0Zm7.273,1.867a3.022,3.022,0,0,0-2.374-.985,3.092,3.092,0,0,0-2.417.963,3.868,3.868,0,0,0-.87,2.689,4.419,4.419,0,0,0,.4,1.945,2.942,2.942,0,0,0,1.144,1.275,3.222,3.222,0,0,0,1.7.445,3.1,3.1,0,0,0,2.424-.97A4.528,4.528,0,0,0,831.193,148.631Zm-4,.612a1.908,1.908,0,0,1,1.6-.689,1.936,1.936,0,0,1,1.621.7,3.258,3.258,0,0,1,.549,2.045,3.311,3.311,0,0,1-.549,2.064,2.179,2.179,0,0,1-3.212,0A4.175,4.175,0,0,1,827.188,149.243Zm16.931,5.591v-4.606a2.738,2.738,0,0,0-.6-1.967,2.425,2.425,0,0,0-1.81-.615,2.88,2.88,0,0,0-1.377.322,2.249,2.249,0,0,0-.922.876h-0.052a2.119,2.119,0,0,0-2.183-1.2,2.65,2.65,0,0,0-1.244.289,2.109,2.109,0,0,0-.861.806h-0.052l-0.176-.967h-0.877v7.06h1.079v-3.7a3.239,3.239,0,0,1,.471-1.974,1.769,1.769,0,0,1,1.484-.6,1.419,1.419,0,0,1,1.137.422,1.892,1.892,0,0,1,.364,1.266v4.592h1.079v-3.942a2.711,2.711,0,0,1,.48-1.765,1.835,1.835,0,0,1,1.488-.573,1.41,1.41,0,0,1,1.13.422,1.892,1.892,0,0,1,.364,1.266v4.592h1.079Zm7.708-.834a5.072,5.072,0,0,0,.013-5.394,2.641,2.641,0,0,0-2.186-.96,2.977,2.977,0,0,0-1.267.257,2.5,2.5,0,0,0-.968.838h-0.052l-0.149-.967h-0.877V158h1.078v-2.9a9.381,9.381,0,0,0-.078-1.172h0.078a2.393,2.393,0,0,0,.965.783,3.114,3.114,0,0,0,1.27.254A2.645,2.645,0,0,0,851.827,154Zm-0.857-4.741a3.367,3.367,0,0,1,.523,2.026,3.5,3.5,0,0,1-.523,2.042,1.673,1.673,0,0,1-1.446.74,1.912,1.912,0,0,1-1.605-.64,3.515,3.515,0,0,1-.5-2.129v-0.239a3.063,3.063,0,0,1,.5-1.906,1.921,1.921,0,0,1,1.579-.6A1.727,1.727,0,0,1,850.97,149.259Zm4.6-4.448h-1.078v10.023h1.078V144.811Zm6.527,10.046a5.714,5.714,0,0,0,1.081-.352v-0.953a5.772,5.772,0,0,1-2.274.477,2.2,2.2,0,0,1-1.692-.644,2.778,2.778,0,0,1-.633-1.887h4.9v-0.677a3.329,3.329,0,0,0-.779-2.3,2.7,2.7,0,0,0-2.118-.872,2.828,2.828,0,0,0-2.277,1,4.073,4.073,0,0,0-.848,2.712,3.671,3.671,0,0,0,.913,2.648,3.287,3.287,0,0,0,2.491.953A6.21,6.21,0,0,0,862.1,154.857Zm-0.225-5.778a2.337,2.337,0,0,1,.455,1.549h-3.723a2.542,2.542,0,0,1,.6-1.533,1.77,1.77,0,0,1,1.368-.554A1.605,1.605,0,0,1,861.874,149.079Zm4.912,4.66a1.42,1.42,0,0,1-.306-0.979v-4.154h2.066v-0.832H866.48v-1.636h-0.623l-0.455,1.508-1.02.444v0.516h1.02v4.2a1.868,1.868,0,0,0,2.066,2.158,3.971,3.971,0,0,0,.614-0.055,2.065,2.065,0,0,0,.517-0.138v-0.818a3.885,3.885,0,0,1-.975.129A1.067,1.067,0,0,1,866.786,153.739Zm7.474,1.118a5.7,5.7,0,0,0,1.082-.352v-0.953a5.772,5.772,0,0,1-2.274.477,2.2,2.2,0,0,1-1.692-.644,2.783,2.783,0,0,1-.634-1.887h4.906v-0.677a3.329,3.329,0,0,0-.78-2.3,2.7,2.7,0,0,0-2.118-.872,2.828,2.828,0,0,0-2.277,1,4.068,4.068,0,0,0-.848,2.712,3.671,3.671,0,0,0,.913,2.648,3.287,3.287,0,0,0,2.491.953A6.192,6.192,0,0,0,874.26,154.857Zm-0.224-5.778a2.337,2.337,0,0,1,.455,1.549h-3.723a2.542,2.542,0,0,1,.6-1.533,1.77,1.77,0,0,1,1.368-.554A1.605,1.605,0,0,1,874.036,149.079Zm4.528-4.268h-1.078v10.023h1.078V144.811Zm4.028,10.062-0.4,1a1.644,1.644,0,0,1-1.585,1.236,3.821,3.821,0,0,1-.8-0.077v0.856a4.368,4.368,0,0,0,.974.11,2.27,2.27,0,0,0,1.491-.5,4.019,4.019,0,0,0,1.063-1.691l3.06-8.039h-1.157q-1.494,4.1-1.764,4.893t-0.354,1.124h-0.052a15.165,15.165,0,0,0-.636-1.991l-1.56-4.026h-1.156Zm13.41-.039h0.877V144.811H895.8v2.873l0.026,0.5,0.046,0.508h-0.085a2.6,2.6,0,0,0-2.222-1.043,2.63,2.63,0,0,0-2.169.966,4.21,4.21,0,0,0-.78,2.711,4.145,4.145,0,0,0,.776,2.693,2.655,2.655,0,0,0,2.173.947,2.542,2.542,0,0,0,2.235-1.076h0.059Zm-3.768-1.456a3.456,3.456,0,0,1-.5-2.041,3.607,3.607,0,0,1,.5-2.065,1.654,1.654,0,0,1,1.452-.731,1.922,1.922,0,0,1,1.608.641,3.515,3.515,0,0,1,.5,2.141v0.226a2.987,2.987,0,0,1-.5,1.923,1.972,1.972,0,0,1-1.6.595A1.7,1.7,0,0,1,892.234,153.378Zm11.171,1.479a5.691,5.691,0,0,0,1.081-.352v-0.953a5.771,5.771,0,0,1-2.273.477,2.2,2.2,0,0,1-1.693-.644,2.778,2.778,0,0,1-.633-1.887h4.905v-0.677a3.329,3.329,0,0,0-.78-2.3,2.7,2.7,0,0,0-2.118-.872,2.828,2.828,0,0,0-2.277,1,4.073,4.073,0,0,0-.848,2.712,3.675,3.675,0,0,0,.913,2.648,3.289,3.289,0,0,0,2.492.953A6.2,6.2,0,0,0,903.405,154.857Zm-0.224-5.778a2.337,2.337,0,0,1,.454,1.549h-3.722a2.536,2.536,0,0,1,.6-1.533,1.768,1.768,0,0,1,1.367-.554A1.608,1.608,0,0,1,903.181,149.079Zm8.095,5.517v-0.947a4.844,4.844,0,0,1-1.826.38,1.848,1.848,0,0,1-1.569-.7,3.245,3.245,0,0,1-.529-2q0-2.745,2.169-2.744a3.531,3.531,0,0,1,.748.093,5.018,5.018,0,0,1,.779.235l0.332-.908a3.4,3.4,0,0,0-.806-0.258,4.911,4.911,0,0,0-1.027-.109,3.113,3.113,0,0,0-2.452.966,3.978,3.978,0,0,0-.861,2.737,3.86,3.86,0,0,0,.848,2.67,3.049,3.049,0,0,0,2.394.944,3.921,3.921,0,0,0,1.8-.367h0Zm5.928,0.261a5.722,5.722,0,0,0,1.082-.352v-0.953a5.779,5.779,0,0,1-2.274.477,2.2,2.2,0,0,1-1.693-.644,2.783,2.783,0,0,1-.633-1.887h4.9v-0.677a3.329,3.329,0,0,0-.78-2.3,2.7,2.7,0,0,0-2.118-.872,2.828,2.828,0,0,0-2.277,1,4.073,4.073,0,0,0-.848,2.712,3.675,3.675,0,0,0,.913,2.648,3.289,3.289,0,0,0,2.492.953A6.2,6.2,0,0,0,917.2,154.857Zm-0.224-5.778a2.337,2.337,0,0,1,.454,1.549h-3.722a2.536,2.536,0,0,1,.6-1.533,1.77,1.77,0,0,1,1.367-.554A1.607,1.607,0,0,1,916.98,149.079Zm9.4,5.755v-4.606a2.6,2.6,0,0,0-.649-1.967,2.721,2.721,0,0,0-1.936-.615,3.039,3.039,0,0,0-1.332.286,2.193,2.193,0,0,0-.929.809h-0.052l-0.176-.967h-0.877v7.06h1.079v-3.7a3,3,0,0,1,.52-1.977,2.056,2.056,0,0,1,1.637-.6,1.626,1.626,0,0,1,1.241.425,1.832,1.832,0,0,1,.4,1.288v4.567h1.078Zm3.678-1.095a1.42,1.42,0,0,1-.306-0.979v-4.154h2.066v-0.832h-2.066v-1.636h-0.623l-0.455,1.508-1.02.444v0.516h1.02v4.2a1.868,1.868,0,0,0,2.066,2.158,3.981,3.981,0,0,0,.614-0.055,2.043,2.043,0,0,0,.516-0.138v-0.818a3.867,3.867,0,0,1-.974.129A1.065,1.065,0,0,1,930.058,153.739Zm5.256-5.72a3.132,3.132,0,0,0-.956,1.063h-0.052l-0.123-1.308h-0.89v7.06h1.079v-3.787a2.524,2.524,0,0,1,.613-1.733,1.9,1.9,0,0,1,1.478-.7,3.669,3.669,0,0,1,.78.1l0.149-.992a4.3,4.3,0,0,0-.851-0.077A2.159,2.159,0,0,0,935.314,148.019Zm8.588,6.815v-4.818a2.324,2.324,0,0,0-.614-1.8,2.725,2.725,0,0,0-1.887-.56,5.223,5.223,0,0,0-2.41.605l0.331,0.818a4.726,4.726,0,0,1,2.014-.541,1.49,1.49,0,0,1,1.153.4,1.781,1.781,0,0,1,.361,1.227V150.6l-1.209.039q-3.45.1-3.449,2.242a1.967,1.967,0,0,0,.6,1.539,2.391,2.391,0,0,0,1.66.541,3.261,3.261,0,0,0,1.323-.235,3,3,0,0,0,1.062-.9h0.052l0.214,1h0.8Zm-4.226-1.056a1.1,1.1,0,0,1-.354-0.883,1.191,1.191,0,0,1,.569-1.092,3.945,3.945,0,0,1,1.854-.4l1.079-.045V152a2.017,2.017,0,0,1-.575,1.533,2.2,2.2,0,0,1-1.582.548A1.482,1.482,0,0,1,939.676,153.778Zm7.527-8.967h-1.079v10.023H947.2V144.811Zm3.365,2.963h-1.079v7.06h1.079v-7.06ZM949.58,146.4a0.662,0.662,0,0,0,.9,0,0.7,0.7,0,0,0,.189-0.537,0.693,0.693,0,0,0-.189-0.535,0.677,0.677,0,0,0-.9,0,0.708,0.708,0,0,0-.181.538A0.719,0.719,0,0,0,949.58,146.4Zm7.829,7.6h-3.931l3.833-5.4v-0.832h-4.827v0.832h3.645l-3.885,5.5v0.728h5.165V154Zm5.909,0.854a5.691,5.691,0,0,0,1.081-.352v-0.953a5.772,5.772,0,0,1-2.274.477,2.2,2.2,0,0,1-1.692-.644,2.778,2.778,0,0,1-.633-1.887h4.905v-0.677a3.329,3.329,0,0,0-.78-2.3,2.7,2.7,0,0,0-2.118-.872,2.828,2.828,0,0,0-2.277,1,4.073,4.073,0,0,0-.848,2.712,3.675,3.675,0,0,0,.913,2.648,3.287,3.287,0,0,0,2.491.953A6.2,6.2,0,0,0,963.318,154.857Zm-0.224-5.778a2.337,2.337,0,0,1,.454,1.549h-3.722a2.536,2.536,0,0,1,.6-1.533,1.768,1.768,0,0,1,1.367-.554A1.608,1.608,0,0,1,963.094,149.079Zm8.439,5.755h0.877V144.811h-1.079v2.873l0.026,0.5,0.046,0.508h-0.085a2.6,2.6,0,0,0-2.222-1.043,2.631,2.631,0,0,0-2.169.966,4.21,4.21,0,0,0-.78,2.711,4.145,4.145,0,0,0,.776,2.693,2.655,2.655,0,0,0,2.173.947,2.542,2.542,0,0,0,2.235-1.076h0.059Zm-3.768-1.456a3.456,3.456,0,0,1-.5-2.041,3.607,3.607,0,0,1,.5-2.065,1.657,1.657,0,0,1,1.452-.731,1.922,1.922,0,0,1,1.608.641,3.522,3.522,0,0,1,.5,2.141v0.226a2.987,2.987,0,0,1-.5,1.923,1.972,1.972,0,0,1-1.6.595A1.7,1.7,0,0,1,967.765,153.378Zm15.566,1.456v-4.818a2.328,2.328,0,0,0-.614-1.8,2.725,2.725,0,0,0-1.887-.56,5.231,5.231,0,0,0-2.411.605l0.332,0.818a4.723,4.723,0,0,1,2.014-.541,1.492,1.492,0,0,1,1.153.4,1.781,1.781,0,0,1,.36,1.227V150.6l-1.208.039q-3.45.1-3.45,2.242a1.967,1.967,0,0,0,.6,1.539,2.391,2.391,0,0,0,1.66.541,3.259,3.259,0,0,0,1.322-.235,3,3,0,0,0,1.062-.9h0.052l0.215,1h0.8Zm-4.226-1.056a1.1,1.1,0,0,1-.354-0.883,1.193,1.193,0,0,1,.568-1.092,3.95,3.95,0,0,1,1.855-.4l1.078-.045V152a2.013,2.013,0,0,1-.575,1.533,2.2,2.2,0,0,1-1.582.548A1.481,1.481,0,0,1,979.105,153.778Zm12.4,1.056v-4.606a2.6,2.6,0,0,0-.65-1.967,2.719,2.719,0,0,0-1.936-.615,3.042,3.042,0,0,0-1.332.286,2.2,2.2,0,0,0-.929.809h-0.052l-0.175-.967h-0.877v7.06h1.078v-3.7a3,3,0,0,1,.52-1.977,2.056,2.056,0,0,1,1.637-.6,1.624,1.624,0,0,1,1.241.425,1.832,1.832,0,0,1,.4,1.288v4.567H991.5Zm7.2,0h0.877V144.811h-1.079v2.873l0.026,0.5,0.046,0.508h-0.085a2.6,2.6,0,0,0-2.222-1.043,2.635,2.635,0,0,0-2.17.966,4.216,4.216,0,0,0-.779,2.711,4.145,4.145,0,0,0,.776,2.693,2.655,2.655,0,0,0,2.173.947,2.542,2.542,0,0,0,2.235-1.076h0.059Zm-3.768-1.456a3.456,3.456,0,0,1-.5-2.041,3.607,3.607,0,0,1,.5-2.065,1.654,1.654,0,0,1,1.452-.731,1.922,1.922,0,0,1,1.608.641,3.522,3.522,0,0,1,.5,2.141v0.226a2.987,2.987,0,0,1-.5,1.923,1.972,1.972,0,0,1-1.6.595A1.7,1.7,0,0,1,994.941,153.378Zm15.569,1.456v-4.818a2.326,2.326,0,0,0-.62-1.8,2.722,2.722,0,0,0-1.88-.56,5.087,5.087,0,0,0-1.26.161,5,5,0,0,0-1.15.444l0.33,0.818a4.725,4.725,0,0,1,2.01-.541,1.48,1.48,0,0,1,1.15.4,1.781,1.781,0,0,1,.36,1.227V150.6l-1.2.039q-3.45.1-3.45,2.242a1.967,1.967,0,0,0,.6,1.539,2.382,2.382,0,0,0,1.66.541,3.232,3.232,0,0,0,1.32-.235,2.975,2.975,0,0,0,1.06-.9h0.05l0.22,1h0.8Zm-4.23-1.056a1.083,1.083,0,0,1-.35-0.883,1.192,1.192,0,0,1,.57-1.092,3.892,3.892,0,0,1,1.85-.4l1.08-.045V152a1.994,1.994,0,0,1-.58,1.533,2.192,2.192,0,0,1-1.58.548A1.5,1.5,0,0,1,1006.28,153.778Zm6.37-6v4.619a2.6,2.6,0,0,0,.65,1.958,2.73,2.73,0,0,0,1.94.612,3.07,3.07,0,0,0,1.34-.277,2.1,2.1,0,0,0,.92-0.8h0.06l0.16,0.947h0.89v-7.06h-1.08v3.711a3,3,0,0,1-.52,1.977,2.025,2.025,0,0,1-1.63.605,1.617,1.617,0,0,1-1.24-.425,1.8,1.8,0,0,1-.4-1.288v-4.58h-1.09Zm9.71,5.965a1.392,1.392,0,0,1-.31-0.979v-4.154h2.07v-0.832h-2.07v-1.636h-0.62l-0.46,1.508-1.02.444v0.516h1.02v4.2a1.869,1.869,0,0,0,2.07,2.158,3.871,3.871,0,0,0,.61-0.055,2.082,2.082,0,0,0,.52-0.138v-0.818a3.745,3.745,0,0,1-.42.087,3.7,3.7,0,0,1-.56.042A1.051,1.051,0,0,1,1022.36,153.739Zm8.5-5.108a3.035,3.035,0,0,0-2.38-.985,3.078,3.078,0,0,0-2.41.963,3.868,3.868,0,0,0-.87,2.689,4.391,4.391,0,0,0,.4,1.945,2.964,2.964,0,0,0,1.14,1.275,3.248,3.248,0,0,0,1.7.445,3.087,3.087,0,0,0,2.42-.97,3.847,3.847,0,0,0,.88-2.695A3.89,3.89,0,0,0,1030.86,148.631Zm-4.01.612a2.215,2.215,0,0,1,3.22.01,3.233,3.233,0,0,1,.55,2.045,3.285,3.285,0,0,1-.55,2.064,2.176,2.176,0,0,1-3.21,0,3.352,3.352,0,0,1-.55-2.061A3.3,3.3,0,0,1,1026.85,149.243Zm12.73,5.591v-4.606a2.616,2.616,0,0,0-.65-1.967,2.721,2.721,0,0,0-1.94-.615,3.036,3.036,0,0,0-1.33.286,2.184,2.184,0,0,0-.93.809h-0.05l-0.17-.967h-0.88v7.06h1.08v-3.7a2.983,2.983,0,0,1,.52-1.977,2.039,2.039,0,0,1,1.63-.6,1.606,1.606,0,0,1,1.24.425,1.8,1.8,0,0,1,.4,1.288v4.567h1.08Zm7.48-6.2a3.028,3.028,0,0,0-2.37-.985,3.1,3.1,0,0,0-2.42.963,3.868,3.868,0,0,0-.87,2.689,4.391,4.391,0,0,0,.4,1.945,2.924,2.924,0,0,0,1.15,1.275,3.187,3.187,0,0,0,1.69.445,3.087,3.087,0,0,0,2.42-.97A4.524,4.524,0,0,0,1047.06,148.631Zm-4,.612a1.886,1.886,0,0,1,1.59-.689,1.92,1.92,0,0,1,1.62.7,3.233,3.233,0,0,1,.55,2.045,3.285,3.285,0,0,1-.55,2.064,2.176,2.176,0,0,1-3.21,0,3.354,3.354,0,0,1-.54-2.061A3.3,3.3,0,0,1,1043.06,149.243Zm16.93,5.591v-4.606a2.694,2.694,0,0,0-.61-1.967,2.408,2.408,0,0,0-1.8-.615,2.869,2.869,0,0,0-1.38.322,2.25,2.25,0,0,0-.92.876h-0.06a2.115,2.115,0,0,0-2.18-1.2,2.63,2.63,0,0,0-1.24.289,2.094,2.094,0,0,0-.86.806h-0.06l-0.17-.967h-0.88v7.06h1.08v-3.7a3.268,3.268,0,0,1,.47-1.974,1.783,1.783,0,0,1,1.49-.6,1.408,1.408,0,0,1,1.13.422,1.908,1.908,0,0,1,.37,1.266v4.592h1.07v-3.942a2.653,2.653,0,0,1,.49-1.765,1.818,1.818,0,0,1,1.48-.573,1.408,1.408,0,0,1,1.13.422,1.855,1.855,0,0,1,.37,1.266v4.592h1.08Zm7.48-6.2a3.014,3.014,0,0,0-2.37-.985,3.1,3.1,0,0,0-2.42.963,3.868,3.868,0,0,0-.87,2.689,4.534,4.534,0,0,0,.4,1.945,2.924,2.924,0,0,0,1.15,1.275,3.212,3.212,0,0,0,1.69.445,3.124,3.124,0,0,0,2.43-.97,3.891,3.891,0,0,0,.87-2.695A3.842,3.842,0,0,0,1067.47,148.631Zm-4,.612a1.906,1.906,0,0,1,1.6-.689,1.945,1.945,0,0,1,1.62.7,3.3,3.3,0,0,1,.55,2.045,3.35,3.35,0,0,1-.55,2.064,2.188,2.188,0,0,1-3.22,0,3.354,3.354,0,0,1-.54-2.061A3.3,3.3,0,0,1,1063.47,149.243Zm6.7-1.469v4.619a2.594,2.594,0,0,0,.64,1.958,2.74,2.74,0,0,0,1.95.612,3.1,3.1,0,0,0,1.34-.277,2.154,2.154,0,0,0,.92-0.8h0.06l0.15,0.947h0.89v-7.06h-1.07v3.711a3.058,3.058,0,0,1-.52,1.977,2.038,2.038,0,0,1-1.63.605,1.641,1.641,0,0,1-1.25-.425,1.849,1.849,0,0,1-.39-1.288v-4.58h-1.09Zm12.39,3.968a4.734,4.734,0,0,0-1.71-.921,10.312,10.312,0,0,1-1.25-.522,1.435,1.435,0,0,1-.47-0.379,0.786,0.786,0,0,1-.15-0.484,0.736,0.736,0,0,1,.39-0.657,2.278,2.278,0,0,1,1.16-.238,5.168,5.168,0,0,1,1.94.438l0.38-.869a5.691,5.691,0,0,0-2.24-.464,3.347,3.347,0,0,0-1.95.5,1.723,1.723,0,0,0-.5,2.193,1.942,1.942,0,0,0,.62.622,7.608,7.608,0,0,0,1.42.641,5.755,5.755,0,0,1,1.4.692,0.919,0.919,0,0,1-.09,1.52,2.593,2.593,0,0,1-1.3.268,4.61,4.61,0,0,1-1.13-.149,5.147,5.147,0,0,1-1.1-.405v0.991a4.5,4.5,0,0,0,2.2.445,3.479,3.479,0,0,0,2.08-.535,1.747,1.747,0,0,0,.74-1.52A1.6,1.6,0,0,0,1082.56,151.742ZM923.576,113.165a13.847,13.847,0,0,0-5.4,5.117,13.86,13.86,0,0,0-3.228-15.118,14.956,14.956,0,0,0-20.451-.027,13.752,13.752,0,0,0,.054,19.881,14.767,14.767,0,0,0,22.878-3.216,10.2,10.2,0,0,0-.794,4.514,9.162,9.162,0,0,0,1.552,4.595,22.121,22.121,0,0,1-28.5-1.285,19.669,19.669,0,0,1,.107-28.991,22.344,22.344,0,0,1,29.905,0,18.966,18.966,0,0,1,6.4,13.45A15.2,15.2,0,0,0,923.576,113.165ZM879.033,132.6l-2.6-5.056h-20.4L853.7,132.6h-7.6L866.285,92l20.237,40.6h-7.489Zm-12.748-26.069-7.7,14.9h14.873ZM826.617,132.6H817V93.685h9.137q9.561,0,15.882,4.634,7.011,5.162,7.011,14.324,0,9.532-6.48,14.956Q836.443,132.6,826.617,132.6Zm-2.656-32.7v26.489h1.912q7.011,0,11.314-3.107,4.833-3.476,4.834-10.216Q842.021,99.9,823.961,99.9Zm96.114,25.346a10.793,10.793,0,0,1,3.125-2.788c0.314-.178.595-0.326,0.855-0.455a20.361,20.361,0,0,1-4.3,5.571c-0.376.35-.76,0.678-1.148,1A8.6,8.6,0,0,1,920.075,125.245Zm64.767-.315q-2.307,3.123-7.131,3.123-7.341-.416-8.6-5.83h22.652a14.836,14.836,0,0,0-4.09-10.307,13.081,13.081,0,0,0-10.592-4.269,14.283,14.283,0,0,0-10.487,4.165q-4.2,4.164-3.671,8.329-0.313,5.831,3.356,9.162,3.618,3.957,11.431,3.748,5.452,0.207,8.075-1.458a17.123,17.123,0,0,0,4.51-4.164Zm-15.94-6.871q2.307-4.581,8.39-5,5.663,0.417,7.76,5H968.9Zm51.318-23.946h-6.5V108.9a10.729,10.729,0,0,0-3.9-1.691,23.36,23.36,0,0,0-3.39-.234,11.482,11.482,0,0,0-9.015,3.826,13.684,13.684,0,0,0-3.409,9.448,12.872,12.872,0,0,0,3.618,9.214,11.94,11.94,0,0,0,9.016,3.8q6.87,0.416,10.02-3.332l3.56,2.915V94.113Zm-8.18,31.259a6.563,6.563,0,0,1-5.03,1.953,5.627,5.627,0,0,1-4.61-2.135,7.372,7.372,0,0,1-1.68-4.945,8.279,8.279,0,0,1,1.62-5.154,5.85,5.85,0,0,1,4.78-2.29,6.207,6.207,0,0,1,4.98,2.082,7.92,7.92,0,0,1,1.78,5.31A7.226,7.226,0,0,1,1012.04,125.372Zm63.28-.442q-2.31,3.123-7.13,3.123-7.35-.416-8.6-5.83h22.65a14.818,14.818,0,0,0-4.09-10.307,13.086,13.086,0,0,0-10.59-4.269,14.289,14.289,0,0,0-10.49,4.165q-4.2,4.164-3.67,8.329-0.315,5.831,3.36,9.162,3.615,3.957,11.43,3.748c3.63,0.138,6.33-.348,8.07-1.458a17.107,17.107,0,0,0,4.51-4.164Zm-15.94-6.871q2.31-4.581,8.39-5,5.655,0.417,7.76,5h-16.15Zm-16.52-5.727,11.8-18.376h-7.97l-7.71,12.286-7.29-12.286h-7.86l11.16,18.324-12.69,20.146h7.77l8.86-14.055,8.39,14.055h7.81ZM925.037,94.057H958.56l-18.143,30.394H957.4v7.937H923.877l18.008-30.436H925.037V94.057Zm11.09,17.563a86.137,86.137,0,0,0,8.575-1.728,27,27,0,0,0,5.757-2.246l-5.423,9.1s-3.4.519-6.79,0.748a42.994,42.994,0,0,0-6.121.918Zm29.567-11.215v8.545l-1.722-1.465c-5.236,6.18-11.99,9.278-24.106,9.278-4.435,0-17.041-.3-21.04,6.346,0,0,1.677-10.616,19.318-11.474,13.174-.64,16.944-3.458,21.154-8.056l-1.889-1.386Z" transform="translate(-817 -92)"/>
</svg>
