<?xml version="1.0" encoding="utf-8"?>
<!-- Generator: Adobe Illustrator 18.0.0, SVG Export Plug-In . SVG Version: 6.00 Build 0)  -->
<!DOCTYPE svg PUBLIC "-//W3C//DTD SVG 1.1//EN" "http://www.w3.org/Graphics/SVG/1.1/DTD/svg11.dtd">
<svg version="1.1" id="Layer_1" xmlns="http://www.w3.org/2000/svg" xmlns:xlink="http://www.w3.org/1999/xlink" x="0px" y="0px"
	 viewBox="545.2 -207.2 28.2 30" enable-background="new 545.2 -207.2 28.2 30" xml:space="preserve">
<g>
	<g opacity="0.25">
		<g>
			<path d="M555.8-187.2c-1.9-0.5-2.3-1.2-2.3-2.9c0-1.1,0-2,0-3.1c0-2.8,2.2-5.1,4.9-5.3c1.5-0.2,2.9-0.2,4.3,0.6
				c1.7,0.8,2.8,2.2,2.9,4.2c0,1.2,0,2.5,0,3.7c0,1.7-0.6,2.5-2.3,2.8c0,2,0,4,0,6c0,0.8-0.3,1.5-0.6,2.2c-0.8,1.4-2.5,2-4,1.7
				c-1.7-0.5-2.8-1.7-2.8-3.4c0-1.9,0-3.6,0-5.4C555.8-186.4,555.8-186.7,555.8-187.2z"/>
			<path d="M554.1-197.2c-1.4,1.5-1.5,3.2-1.4,5.1c0,0.8,0,1.5,0,2.3c0,1.4,0.5,2.5,1.7,3.1c0.5,0.2,0.5,0.5,0.5,0.9
				c0,1.2,0,2.5,0,3.7c0,1.7-1.2,3.1-2.8,3.4c-1.7,0.3-3.4-0.6-3.9-2.3c-0.3-1.1-0.2-2.2-0.2-3.2c0-0.9,0-2-0.2-2.9
				c0-0.2-0.3-0.5-0.5-0.5c-0.9-0.3-1.5-0.9-1.5-1.9c0-1.2-0.2-2.6,0-3.9c0.3-2.6,2-4.2,4.9-4.2c1.1,0,2,0.2,3.1,0.3
				C554.1-197.4,554.1-197.4,554.1-197.2z"/>
			<path d="M571.2-187.6c0,1.7,0,3.6,0,5.4c0,2.8-2.6,4.3-4.9,3.1c-1.1-0.6-1.7-1.5-1.7-2.6c0-1.4,0-2.8,0-4.2
				c0-0.3,0.3-0.6,0.5-0.8c0.9-0.6,1.5-1.5,1.7-2.6c0-1.4,0-2.8,0-4.2s-0.5-2.6-1.4-3.7c2-0.9,5.9-0.8,7.3,1.7
				c0.5,0.8,0.6,1.7,0.8,2.6c0.2,0.8,0,1.7,0,2.5C573.2-188.7,572.9-188.3,571.2-187.6z"/>
			<path d="M563.3-202.9c0,2-1.7,3.7-3.7,3.7s-3.7-1.7-3.7-3.7c0.2-2,1.9-3.7,3.7-3.7C562-206.5,563.3-204.8,563.3-202.9z"/>
			<path d="M551.5-205.1c1.9,0,3.2,1.4,3.2,3.2s-1.5,3.4-3.2,3.4c-1.7,0-3.2-1.5-3.2-3.2C548.1-203.6,549.7-205.1,551.5-205.1z"/>
			<path d="M567.7-205.1c1.9,0,3.2,1.4,3.2,3.2s-1.4,3.2-3.2,3.2c-1.9,0-3.4-1.5-3.4-3.2C564.5-203.7,566-205.1,567.7-205.1z"/>
		</g>
	</g>
	<g>
		<g>
			<path fill="#277FAE" d="M555.2-187.7c-1.9-0.5-2.3-1.2-2.3-2.9c0-1.1,0-2,0-3.1c0-2.8,2.2-5.1,4.9-5.3c1.5-0.2,2.9-0.2,4.3,0.6
				c1.7,0.8,2.8,2.2,2.9,4.2c0,1.2,0,2.5,0,3.7c0,1.7-0.6,2.5-2.3,2.8c0,2,0,4,0,6c0,0.8-0.3,1.5-0.6,2.2c-0.8,1.4-2.5,2-4,1.7
				c-1.7-0.5-2.8-1.7-2.8-3.4c0-1.9,0-3.6,0-5.4C555.2-186.9,555.2-187.3,555.2-187.7z"/>
			<path fill="#277FAE" d="M553.5-197.8c-1.4,1.5-1.5,3.2-1.4,5.1c0,0.8,0,1.5,0,2.3c0,1.4,0.5,2.5,1.7,3.1c0.5,0.2,0.5,0.5,0.5,0.9
				c0,1.2,0,2.5,0,3.7c0,1.7-1.2,3.1-2.8,3.4c-1.7,0.3-3.4-0.6-3.9-2.3c-0.3-1.1-0.2-2.2-0.2-3.2c0-0.9,0-2-0.2-2.9
				c0-0.2-0.3-0.5-0.5-0.5c-0.9-0.3-1.5-0.9-1.5-1.9c0-1.2-0.2-2.6,0-3.9c0.3-2.6,2-4.2,4.9-4.2c1.1,0,2,0.2,3.1,0.3
				C553.5-197.9,553.5-197.9,553.5-197.8z"/>
			<path fill="#277FAE" d="M570.5-188.2c0,1.7,0,3.6,0,5.4c0,2.8-2.6,4.3-4.9,3.1c-1.1-0.6-1.7-1.5-1.7-2.6c0-1.4,0-2.8,0-4.2
				c0-0.3,0.3-0.6,0.5-0.8c0.9-0.6,1.5-1.5,1.7-2.6c0-1.4,0-2.8,0-4.2c0-1.4-0.5-2.6-1.4-3.7c2-0.9,5.9-0.8,7.3,1.7
				c0.5,0.8,0.6,1.7,0.8,2.6c0.2,0.8,0,1.7,0,2.5C572.5-189.3,572.2-188.8,570.5-188.2z"/>
			<path fill="#277FAE" d="M562.6-203.5c0,2-1.7,3.7-3.7,3.7s-3.7-1.7-3.7-3.7c0.2-2,1.9-3.7,3.7-3.7
				C561.4-207,562.6-205.3,562.6-203.5z"/>
			<path fill="#277FAE" d="M550.8-205.7c1.9,0,3.2,1.4,3.2,3.2c0,1.9-1.5,3.4-3.2,3.4c-1.7,0-3.2-1.5-3.2-3.2
				C547.4-204.1,549-205.7,550.8-205.7z"/>
			<path fill="#277FAE" d="M567.1-205.7c1.9,0,3.2,1.4,3.2,3.2c0,1.9-1.4,3.2-3.2,3.2c-1.9,0-3.4-1.5-3.4-3.2
				C563.8-204.3,565.4-205.7,567.1-205.7z"/>
		</g>
	</g>
</g>
</svg>
