<svg xmlns="http://www.w3.org/2000/svg" width="15" height="13.969" viewBox="0 0 15 13.969">
  <metadata><?xpacket begin="﻿" id="W5M0MpCehiHzreSzNTczkc9d"?>
<x:xmpmeta xmlns:x="adobe:ns:meta/" x:xmptk="Adobe XMP Core 5.6-c138 79.159824, 2016/09/14-01:09:01        ">
   <rdf:RDF xmlns:rdf="http://www.w3.org/1999/02/22-rdf-syntax-ns#">
      <rdf:Description rdf:about=""/>
   </rdf:RDF>
</x:xmpmeta>
                                                                                                    
                                                                                                    
                                                                                                    
                                                                                                    
                                                                                                    
                                                                                                    
                                                                                                    
                                                                                                    
                                                                                                    
                                                                                                    
                                                                                                    
                                                                                                    
                                                                                                    
                                                                                                    
                                                                                                    
                                                                                                    
                                                                                                    
                                                                                                    
                                                                                                    
                                                                                                    
                           
<?xpacket end="w"?></metadata>
<defs>
    <style>
      .cls-1 {
        fill-rule: evenodd;
      }
    </style>
  </defs>
  <path class="cls-1" d="M593.078,431.682a0.75,0.75,0,0,1,0,1.09,0.826,0.826,0,0,1-1.135,0l-1.788-1.718a0.75,0.75,0,0,1,0-1.09l1.788-1.715a0.82,0.82,0,0,1,1.135,0,0.747,0.747,0,0,1,0,1.087l-0.417.4h2.828a3.974,3.974,0,0,0,2.759-1.105,3.657,3.657,0,0,0,1.147-2.651,3.584,3.584,0,0,0-.4-1.649,3.815,3.815,0,0,0-1.127-1.325,0.748,0.748,0,0,1-.145-1.079,0.82,0.82,0,0,1,1.119-.138,5.455,5.455,0,0,1,1.588,1.861,5.063,5.063,0,0,1,.566,2.33,5.181,5.181,0,0,1-1.616,3.741,5.616,5.616,0,0,1-3.894,1.556h-2.828Zm-3.946-2.7a0.746,0.746,0,0,1,.144,1.075,0.818,0.818,0,0,1-1.123.139,5.37,5.37,0,0,1-1.584-1.857,5.072,5.072,0,0,1-.569-2.331,5.175,5.175,0,0,1,1.62-3.741,5.616,5.616,0,0,1,3.894-1.556h2.827l-0.417-.4a0.742,0.742,0,0,1,0-1.087,0.823,0.823,0,0,1,1.131,0l1.789,1.718a0.747,0.747,0,0,1,0,1.087l-1.789,1.718a0.823,0.823,0,0,1-1.131,0,0.745,0.745,0,0,1,0-1.09l0.417-.4h-2.827a3.98,3.98,0,0,0-2.759,1.1,3.676,3.676,0,0,0-1.151,2.654,3.619,3.619,0,0,0,.4,1.649,3.86,3.86,0,0,0,1.131,1.325h0Z" transform="translate(-586 -419.031)"/>
</svg>
