<svg xmlns="http://www.w3.org/2000/svg" width="15" height="13.969" viewBox="0 0 15 13.969">
  <metadata><?xpacket begin="﻿" id="W5M0MpCehiHzreSzNTczkc9d"?>
<x:xmpmeta xmlns:x="adobe:ns:meta/" x:xmptk="Adobe XMP Core 5.6-c138 79.159824, 2016/09/14-01:09:01        ">
   <rdf:RDF xmlns:rdf="http://www.w3.org/1999/02/22-rdf-syntax-ns#">
      <rdf:Description rdf:about=""/>
   </rdf:RDF>
</x:xmpmeta>
                                                                                                    
                                                                                                    
                                                                                                    
                                                                                                    
                                                                                                    
                                                                                                    
                                                                                                    
                                                                                                    
                                                                                                    
                                                                                                    
                                                                                                    
                                                                                                    
                                                                                                    
                                                                                                    
                                                                                                    
                                                                                                    
                                                                                                    
                                                                                                    
                                                                                                    
                                                                                                    
                           
<?xpacket end="w"?></metadata>
<defs>
    <style>
      .cls-1 {
        fill: #ffa100;
        fill-rule: evenodd;
      }
    </style>
  </defs>
  <path class="cls-1" d="M1006.08,385.682a0.755,0.755,0,0,1,0,1.09,0.832,0.832,0,0,1-1.14,0l-1.79-1.718a0.755,0.755,0,0,1,0-1.09l1.79-1.715a0.826,0.826,0,0,1,1.14,0,0.752,0.752,0,0,1,0,1.087l-0.42.4h2.83a3.984,3.984,0,0,0,2.76-1.105,3.663,3.663,0,0,0,.75-4.3,3.91,3.91,0,0,0-1.13-1.325,0.74,0.74,0,0,1-.14-1.079,0.822,0.822,0,0,1,1.12-.138,5.421,5.421,0,0,1,1.58,1.861,5,5,0,0,1,.57,2.33,5.176,5.176,0,0,1-1.62,3.741,5.619,5.619,0,0,1-3.89,1.556h-2.83Zm-3.95-2.7a0.754,0.754,0,0,1,.15,1.075,0.828,0.828,0,0,1-1.13.139,5.416,5.416,0,0,1-1.581-1.857,5.072,5.072,0,0,1-.569-2.331,5.175,5.175,0,0,1,1.62-3.741,5.619,5.619,0,0,1,3.89-1.556h2.83l-0.42-.4a0.75,0.75,0,0,1,0-1.086,0.834,0.834,0,0,1,1.14,0l1.78,1.718a0.735,0.735,0,0,1,0,1.087l-1.78,1.718a0.834,0.834,0,0,1-1.14,0,0.755,0.755,0,0,1,0-1.09l0.42-.4h-2.83a4,4,0,0,0-2.76,1.1,3.715,3.715,0,0,0-1.15,2.654,3.659,3.659,0,0,0,.4,1.649,3.9,3.9,0,0,0,1.13,1.325h0Z" transform="translate(-999 -373.031)"/>
</svg>
