<?xml version="1.0" encoding="iso-8859-1"?>
<!-- Generator: Adobe Illustrator 19.0.0, SVG Export Plug-In . SVG Version: 6.00 Build 0)  -->
<svg version="1.1" id="Capa_1" xmlns="http://www.w3.org/2000/svg" xmlns:xlink="http://www.w3.org/1999/xlink" x="0px" y="0px"
	 viewBox="0 0 448.098 448.098" style="enable-background:new 0 0 448.098 448.098;" xml:space="preserve">
<g>
	<g>
		<path d="M184.08,0c-101.62,0-184,82.38-184,184s82.38,184,184,184s184-82.38,184-184C367.992,82.416,285.664,0.088,184.08,0z
			 M184.08,304c-66.274,0-120-53.726-120-120s53.726-120,120-120s120,53.726,120,120C303.992,250.238,250.318,303.912,184.08,304z"
			/>
	</g>
</g>
<g>
	<g>
		<path d="M438.64,393.44l-64-64c-12.504-12.504-32.776-12.504-45.28,0s-12.504,32.776,0,45.28l64,64
			c12.504,12.504,32.776,12.504,45.28,0S451.144,405.944,438.64,393.44z"/>
	</g>
</g>
<g>
</g>
<g>
</g>
<g>
</g>
<g>
</g>
<g>
</g>
<g>
</g>
<g>
</g>
<g>
</g>
<g>
</g>
<g>
</g>
<g>
</g>
<g>
</g>
<g>
</g>
<g>
</g>
<g>
</g>
</svg>
