<svg xmlns="http://www.w3.org/2000/svg" width="17" height="17" viewBox="0 0 17 17">
  <metadata><?xpacket begin="﻿" id="W5M0MpCehiHzreSzNTczkc9d"?>
<x:xmpmeta xmlns:x="adobe:ns:meta/" x:xmptk="Adobe XMP Core 5.6-c138 79.159824, 2016/09/14-01:09:01        ">
   <rdf:RDF xmlns:rdf="http://www.w3.org/1999/02/22-rdf-syntax-ns#">
      <rdf:Description rdf:about=""/>
   </rdf:RDF>
</x:xmpmeta>
                                                                                                    
                                                                                                    
                                                                                                    
                                                                                                    
                                                                                                    
                                                                                                    
                                                                                                    
                                                                                                    
                                                                                                    
                                                                                                    
                                                                                                    
                                                                                                    
                                                                                                    
                                                                                                    
                                                                                                    
                                                                                                    
                                                                                                    
                                                                                                    
                                                                                                    
                                                                                                    
                           
<?xpacket end="w"?></metadata>
<defs>
    <style>
      .cls-1 {
        fill: #aaa;
        fill-rule: evenodd;
      }
    </style>
  </defs>
  <path id="Shape_27_copy" data-name="Shape 27 copy" class="cls-1" d="M57.03,404.154h2.121l-3.341,6.692H53.9Zm-2.97,0h5.091l-0.424.923H54.061v-0.923Zm0.424,5.769h4.667v0.923H54.061ZM53.212,403a0.231,0.231,0,1,1-.212.231A0.222,0.222,0,0,1,53.212,403Zm0.849,0a0.231,0.231,0,1,1-.212.231A0.222,0.222,0,0,1,54.061,403Zm0.848,0a0.231,0.231,0,1,1-.212.231A0.222,0.222,0,0,1,54.909,403Zm0.849,0a0.231,0.231,0,1,1-.212.231A0.222,0.222,0,0,1,55.758,403Zm1.485,8.538a0.232,0.232,0,1,1-.212.231A0.223,0.223,0,0,1,57.242,411.538Zm0.848,0a0.232,0.232,0,1,1-.212.231A0.223,0.223,0,0,1,58.091,411.538Zm0.848,0a0.232,0.232,0,1,1-.212.231A0.222,0.222,0,0,1,58.939,411.538Zm0.848,0a0.232,0.232,0,1,1-.212.231A0.222,0.222,0,0,1,59.788,411.538ZM48.005,407.5A8.495,8.495,0,1,0,56.5,399,8.506,8.506,0,0,0,48.005,407.5Zm1.63,0a6.865,6.865,0,1,1,6.865,6.867A6.874,6.874,0,0,1,49.635,407.5Z" transform="translate(-48 -399)"/>
</svg>
